<svg version="1.1" xmlns="http://www.w3.org/2000/svg" viewBox="0 0 170 90">
	<path class="red-bull" fill="#c5c8c9" d="M73.571,49.502v18.513c-1.985-1.962-4.612-3.137-7.496-3.137	c-6.175,0.001-11.169,5.49-11.169,12.24c0,6.75,4.994,12.163,11.169,12.163c2.914,0,5.58-1.208,7.573-3.212v2.983h7.419V49.502	H73.571z M149.225,49.732v39.396h7.422V49.732H149.225z M161.846,49.732v39.396h7.421V49.732H161.846z M0.058,51.645v37.406h7.956	v-30.98h4.741c2.936,0,5.125,2.194,5.125,4.896c0,2.705-2.342,4.896-5.278,4.896h-1.834v8.95l7.954,12.239h9.335L17.039,73.446	c4.926-1.185,8.645-5.59,8.645-10.786c0-6.104-5.105-11.016-11.321-11.016c-0.189,0-1.037-0.012-1.222,0H0.058z M91.24,51.875	v37.176h16.523c6.321-0.1,11.397-4.853,11.397-10.709c0-4.259-1.46-7.301-6.503-9.64c2.049-1.905,3.291-4.458,3.291-7.265	c0-2.542-1.043-4.897-2.754-6.732c-1.783-1.962-4.916-2.831-9.178-2.831H91.24z M99.196,58.3h5.05c2.191,0,3.899,1.787,3.899,3.978	c0,2.19-1.708,3.978-3.899,3.978h-2.604v6.654h4.744c2.655,0,4.667,2.167,4.667,4.82c-0.096,2.744-1.785,4.639-4.667,4.82h-7.19	V58.3z M39.301,64.878c-6.821,0.001-12.314,5.566-12.314,12.468c0,6.907,5.493,12.546,12.314,12.546	c5.207,0,9.303-2.353,11.396-6.042l-6.119-2.831c-0.773,1.668-2.564,2.907-4.664,2.907c-2.811,0-5.052-2.094-5.052-4.666	c0-0.166-0.094-0.144-0.076-0.306h16.525c0.05-0.511,0.081-0.994,0.074-1.529C51.5,69.333,46.121,64.878,39.301,64.878z	 M121.763,66.179v14.917c0,5.045,5.264,9.103,11.707,9.103c6.439,0,11.624-4.057,11.624-9.103V66.179h-7.345v13.464	c0,2.243-1.924,4.055-4.279,4.055c-2.361,0-4.286-1.812-4.286-4.055V66.179H121.763z M39.377,70.081c2.52,0,4.59,2.068,4.59,4.589	h-9.181C34.786,72.149,36.855,70.081,39.377,70.081z M68.216,71.304c3.03,0,5.433,2.729,5.433,6.042	c0,3.318-2.402,5.968-5.433,5.968c-3.028,0-5.508-2.65-5.508-5.968C62.708,74.033,65.188,71.304,68.216,71.304z"/>
	<path class="center-ellipse" fill="#c5c8c9" d="M102.641,28.31c-0.22-0.423-0.985-1.36-0.885-1.957c0.564,0.07,1.417,0.076,1.732,0.093	C103.39,26.626,102.749,28.094,102.641,28.31 M68.302,26.968c-0.226,0.276-0.562,0.362-0.867,0.905	c-0.618-0.241-0.728-1.054-0.838-1.406c0.492-0.09,1.656-0.312,2.268-0.403C68.611,26.38,68.431,26.596,68.302,26.968	 M102.606,31.511c-0.034-0.145-0.16-0.249-0.31-0.254h-0.012c-0.146,0-0.273,0.094-0.315,0.234	c-0.161,0.524-0.608,1.415-1.807,1.489c-0.027,0.002-0.057,0.002-0.087,0.002c-0.534,0-1.233-0.267-1.698-0.444l-0.214-0.083	c-0.236-0.09-0.471-0.18-0.69-0.255c-0.315-0.107-0.546-0.164-0.726-0.179c-0.042-0.003-0.091-0.006-0.14-0.006	c-0.068,0-0.142,0.005-0.217,0.01c-0.136,0.01-0.278,0.025-0.429,0.042c-0.294,0.031-0.617,0.068-0.939,0.068l-0.075-0.001	c-0.693-0.013-1.236-0.209-1.658-0.597c-0.062-0.058-0.143-0.086-0.223-0.086c-0.086,0-0.174,0.034-0.237,0.102	c-1.061,1.1-2.366,1.657-3.886,1.657l-0.138,0c-0.316-0.009-0.878-0.18-1.111-0.483c-0.093-0.121-0.121-0.248-0.086-0.396	c0.021-0.098,0-0.199-0.062-0.278c-0.061-0.079-0.154-0.126-0.253-0.127c-0.86-0.015-1.371-0.425-1.495-0.825	c-0.097-0.312,0.033-0.616,0.37-0.856l0.082-0.058c0.12-0.085,0.262-0.182,0.449-0.337c0.278-0.231,0.604-0.541,0.99-0.945	c0.796-0.833,1.396-1.848,1.881-3.191c0.416-1.145,0.699-2.396,0.972-3.604l0.041-0.181c0.564-2.49,1.203-5.312,3.239-7.536	c1.505-1.644,2.657-2.548,5.836-4.81c0.614-0.437,1.239-0.971,1.846-1.488c0.117-0.102,0.235-0.202,0.354-0.302	c-3.88-4.711-9.755-7.72-16.319-7.72c-6.619,0-12.535,3.06-16.412,7.837c0.489,0.354,0.977,0.734,1.557,1.209	c0.451,0.372,0.942,0.79,1.522,1.282c0.407,0.347,0.859,0.729,1.37,1.16c0.301,0.294,0.684,0.731,1.148,1.32	c0.154,0.194,0.306,0.39,0.45,0.577c0.211,0.271,0.408,0.53,0.587,0.746c1.424,1.743,2.303,2.904,2.506,4.34	c0.393,2.79,0.651,4.378,1.746,7.18c0.02,0.053,0.062,0.12,0.123,0.198c0.06,0.077,0.134,0.159,0.213,0.24l0.251,0.262	c0.085,0.09,0.167,0.181,0.235,0.268c0.177,0.23,0.329,0.496,0.451,0.726l0.115,0.217c0.099,0.187,0.2,0.376,0.311,0.565	c0.253,0.434,0.622,0.976,1.243,1.326c0.655,0.367,0.784,0.443,1.01,0.653c0.104,0.098,0.156,0.214,0.153,0.351	c-0.003,0.204-0.121,0.439-0.305,0.601c-0.201,0.178-0.475,0.298-0.812,0.358c-0.092,0.017-0.172,0.07-0.221,0.148	c-0.049,0.079-0.065,0.174-0.042,0.262c0.059,0.222,0.014,0.446-0.124,0.631c-0.21,0.28-0.595,0.443-1.086,0.458	c-0.07,0.004-0.141,0.004-0.21,0.004c-2.062,0-3.464-0.97-4.114-1.549c-0.062-0.055-0.142-0.084-0.219-0.084	c-0.068,0-0.136,0.021-0.193,0.063l-0.087,0.063c-0.239,0.171-0.599,0.432-1.062,0.622c-0.319,0.153-0.673,0.221-1.129,0.221	c-0.167,0-0.325-0.011-0.475-0.019c-0.108-0.007-0.216-0.016-0.322-0.024c-0.158-0.013-0.316-0.026-0.473-0.034	c-0.088-0.004-0.172-0.006-0.25-0.006c-0.176,0-0.326,0.011-0.457,0.035c-0.372,0.067-0.77,0.2-1.188,0.34l-0.28,0.092	c-0.491,0.159-1.059,0.332-1.571,0.354c-0.041,0-0.082,0.002-0.123,0.002c-0.748,0-1.276-0.284-1.574-0.844	c-0.06-0.115-0.11-0.239-0.152-0.382c-0.04-0.129-0.152-0.222-0.286-0.232c-0.012-0.001-0.021-0.003-0.031-0.003	c-0.057,0-0.11,0.016-0.156,0.042c3.641,6.378,10.509,10.687,18.363,10.687c7.346,0,13.828-3.77,17.615-9.475	c-0.185-0.26-0.329-0.578-0.449-0.982C102.67,31.76,102.637,31.638,102.606,31.511z"/>
	<path class="merged_outline" fill="#c5c8c9" display="none" d="M141.711,34.821c-0.042-0.169-0.108-0.354-0.161-0.496	l-0.051-0.135c-0.042-0.108-0.081-0.213-0.12-0.331c-0.018-0.051-0.033-0.102-0.043-0.146c-0.008-0.032-0.009-0.064-0.006-0.096	c0.053-0.622-0.103-0.944-0.344-1.367c-0.191-0.331-0.456-0.459-0.632-0.467c-0.046,0.129-0.169,0.209-0.307,0.209	c-0.018,0-0.036-0.001-0.055-0.004c-0.175-0.026-0.297-0.2-0.276-0.377c0.005-0.042,0.01-0.086,0.012-0.135	c0.005-0.167-0.031-0.316-0.112-0.47c-0.211-0.391-1.717-1.63-2.288-1.63c-0.463,0-0.95,0.254-1.303,0.681	c-0.062,0.077-0.155,0.12-0.254,0.12c-0.011,0-0.021,0-0.031-0.001c-0.111-0.01-0.206-0.074-0.259-0.171	c-0.052-0.092-0.095-0.194-0.136-0.299c-0.102-0.271-0.161-0.549-0.22-0.817l-0.045-0.206c-0.159-0.697-0.395-1.4-1.326-1.67	c-0.075-0.022-0.174-0.04-0.292-0.05c-0.101-0.01-0.21-0.014-0.323-0.018l-0.085-0.001c-0.188-0.005-0.381-0.01-0.572-0.037	c-0.381-0.056-0.637-0.18-0.637-0.609c0-0.038,0.006-0.074,0.019-0.108l0.102-0.295c0.076-0.215,0.185-0.546,0.271-0.94	c0.16-0.732,0.173-1.403,0.037-1.994c-0.024-0.106,0.007-0.218,0.081-0.297c0.063-0.069,0.15-0.106,0.242-0.106	c0.016,0,0.032,0.001,0.049,0.003c0.383,0.059,0.691,0.063,0.778,0.063c1.987,0,5.139-1.296,5.139-4.777	c0-2-1.62-3.901-2.978-5.145c-0.089-0.082-0.128-0.206-0.099-0.324c0.029-0.116,0.122-0.208,0.237-0.24	c1.933-0.504,2.997-1.79,2.997-3.619V8.398c0-0.286,0-0.609-0.055-0.957c-0.08-0.485-0.262-0.935-0.547-1.374	c-0.032-0.045-0.079-0.097-0.188-0.097c-0.039,0-0.07,0.007-0.08,0.01c-0.076,0.021-0.16,0.071-0.215,0.109	c-0.181,0.119-0.439,0.34-0.647,0.52c-0.236,0.202-0.52,0.352-0.917,0.485c-0.242,0.08-0.494,0.147-0.763,0.217	c-0.14,0.037-0.283,0.075-0.432,0.117c-0.921,0.258-1.928,0.632-3.045,1.617c-0.512,0.451-0.865,1.201-0.9,1.91	c-0.032,0.597,0.19,1.213,0.68,1.885c0.424,0.584,0.984,1.135,1.571,1.694l0.21,0.199c0.212,0.204,0.423,0.406,0.627,0.608	c0.306,0.304,0.534,0.553,0.725,0.785c0.464,0.572,0.684,1.042,0.684,1.48c0,0.935-0.67,1.563-1.684,1.563	c-1.12-0.009-1.981-0.439-3.18-1.23c-0.183-0.121-0.371-0.248-0.563-0.378c-0.397-0.268-0.809-0.545-1.266-0.832	c-0.831-0.518-1.597-0.93-2.414-1.294c-0.432-0.192-0.856-0.344-1.342-0.474c-0.35-0.093-0.678-0.16-0.995-0.227l-0.156-0.032	c-0.733-0.154-1.345-0.306-1.997-0.734c-0.185-0.125-0.378-0.254-0.574-0.389c-0.341-0.231-0.693-0.471-1.053-0.697	c-0.691-0.43-1.249-0.703-1.757-0.855c-0.157-0.048-0.32-0.083-0.529-0.114c-0.091-0.014-0.181-0.025-0.271-0.036l-0.211-0.029	c-0.327-0.045-0.604-0.11-0.9-0.279c-0.186-0.109-0.361-0.227-0.561-0.371c-0.139-0.105-0.274-0.21-0.411-0.319l-0.095-0.074	c-0.347-0.272-0.735-0.564-1.329-0.886c-0.897-0.485-1.798-0.727-2.569-0.913l-0.15-0.038c-0.299-0.071-0.558-0.134-0.778-0.207	c-0.128-0.041-0.227-0.082-0.297-0.12c-0.05-0.025-0.092-0.054-0.108-0.066c-0.023-0.018-0.042-0.038-0.06-0.059	c-1.921-2.413-4.222-2.602-4.881-2.602c-0.149,0-0.293,0.009-0.427,0.023c-0.744,0.081-1.627,0.718-2.406,1.349	c-4.019-4.882-10.108-7.996-16.926-7.996c-6.895,0-13.045,3.185-17.062,8.163c-0.021-0.015-0.044-0.03-0.065-0.045	c-1.059-0.714-2.19-1.077-3.362-1.077c-1.199,0-2.082,0.386-2.381,0.591c-1.01,0.687-1.771,1.112-2.627,1.467	c-0.619,0.258-1.263,0.469-2.079,0.735c-0.261,0.086-0.542,0.178-0.846,0.279c-0.927,0.311-1.583,0.848-2.05,1.282	c-0.114,0.107-0.221,0.211-0.322,0.31c-0.114,0.112-0.224,0.218-0.327,0.311c-0.21,0.192-0.356,0.295-0.489,0.344	c-0.142,0.05-0.369,0.085-0.696,0.107c-0.169,0.013-0.347,0.019-0.518,0.028c-0.127,0.003-0.251,0.01-0.365,0.018	c-1.064,0.062-1.918,0.661-2.47,1.104c-0.286,0.231-0.553,0.476-0.809,0.71l-0.123,0.112c-0.324,0.294-0.554,0.492-0.774,0.635	c-0.755,0.488-1.469,0.557-2.252,0.636c-0.403,0.039-0.819,0.08-1.266,0.172c-0.532,0.11-1.034,0.278-1.534,0.513	c-0.563,0.266-1.133,0.604-1.846,1.1c-0.309,0.214-0.611,0.433-0.906,0.652c-0.268,0.192-0.531,0.384-0.791,0.567	c-1.177,0.823-2.187,1.373-3.279,1.373c-1.081,0-1.847-0.632-1.952-1.611c-0.094-0.862,0.348-1.734,1.241-2.456l0.492-0.394	c0.366-0.294,0.709-0.568,1.02-0.834c0.519-0.446,0.873-0.804,1.145-1.162c0.671-0.881,0.842-1.79,0.553-2.945	c-0.258-1.037-1.057-1.744-2.439-2.158c-0.492-0.149-0.995-0.239-1.464-0.315L34.73,7.476c-0.144-0.022-0.275-0.043-0.389-0.065	c-0.15-0.028-0.256-0.055-0.318-0.08c-0.748-0.334-2.378-1.422-2.704-1.643l-0.133-0.09l-0.093,0.131	c-0.296,0.428-0.532,0.766-0.711,2.251c-0.195,1.641,1.154,3.642,3.481,4.008c0.13,0.02,0.235,0.116,0.269,0.243	c0.032,0.127-0.012,0.262-0.115,0.344c-2.461,1.935-2.985,2.766-3.114,4.94c-0.079,1.348,0.391,2.67,1.294,3.628	c0.987,1.047,2.416,1.601,4.138,1.601c0.459,0,0.942-0.04,1.438-0.117c0.017-0.002,0.034-0.004,0.051-0.004	c0.074,0,0.146,0.026,0.205,0.071c0.073,0.057,0.117,0.142,0.125,0.234c0.113,1.512,0.389,2.742,0.73,3.293	c0.085,0.133,0.062,0.309-0.056,0.417c-0.105,0.098-0.273,0.194-0.483,0.275c-0.526,0.205-1.322,0.332-2.115,0.332	c-0.496,0-0.864,0.34-1.16,1.069c-0.097,0.238-0.176,0.491-0.253,0.736l-0.021,0.068c-0.04,0.124-0.077,0.24-0.113,0.342	c-0.034,0.095-0.071,0.18-0.108,0.251c-0.099,0.177-0.246,0.351-0.45,0.531c-0.061,0.054-0.139,0.083-0.218,0.083	c-0.018,0-0.039-0.001-0.056-0.005c-0.099-0.018-0.186-0.078-0.234-0.166c-0.241-0.438-0.624-0.716-1.136-0.828l-0.011-0.001	h-0.053c-0.756,0-2.06,0.638-2.541,1.837c-0.046,0.113-0.148,0.192-0.27,0.206l-0.061,0.006c-0.602,0.063-0.981,0.343-1.194,0.878	c-0.091,0.229-0.146,0.482-0.188,0.705l-0.032,0.164c-0.033,0.184-0.07,0.372-0.118,0.554c-0.036,0.145-0.089,0.273-0.167,0.417	c-0.037,0.07-0.078,0.135-0.114,0.196c-0.027,0.045-0.054,0.089-0.079,0.133c-0.133,0.247-0.202,0.498-0.095,0.927	c0.05,0.196,0.204,0.365,0.461,0.505c0.189,0.103,0.437,0.193,0.732,0.264c0.524,0.127,1.043,0.167,1.144,0.167	c0.071,0,0.144-0.02,0.214-0.059c0.05-0.03,0.099-0.068,0.153-0.109c0.062-0.045,0.141-0.074,0.218-0.074	c0.019,0,0.035,0.001,0.051,0.004l0.246,0.046c0.201,0.038,0.452,0.089,0.701,0.139l0.039,0.009	c0.239,0.049,0.475,0.096,0.664,0.13c0.104,0.02,0.195,0.036,0.264,0.045c0.077,0.011,0.138,0.017,0.174,0.017h0.003	c1.04-0.049,1.477-0.452,1.768-0.841c0.083-0.109,0.155-0.226,0.229-0.346l0.117-0.2l0.089-0.15	c0.085-0.146,0.168-0.279,0.262-0.406c0.063-0.086,0.162-0.135,0.268-0.135c0.027,0,0.058,0.004,0.086,0.011	c0.117,0.032,0.237,0.054,0.339,0.073c0.241,0.04,0.462,0.062,0.557,0.067c0.069,0.005,0.133,0.007,0.2,0.007	c0.983,0,1.717-0.548,2.324-1.062l0.201-0.17c0.092-0.081,0.184-0.16,0.275-0.235c0.119-0.1,0.279-0.23,0.446-0.342	c0.296-0.195,0.544-0.287,0.787-0.287l0.06,0.002c0.236,0.014,1.127,0.079,2.634,0.318c0.064,0.009,0.13,0.014,0.197,0.014	c0.339,0,0.771-0.116,1.287-0.346c0.372-0.167,0.796-0.397,1.229-0.666c0.091-0.058,0.202-0.11,0.335-0.171l0.039-0.018	c0.122-0.056,0.253-0.115,0.389-0.184c0.248-0.126,0.61-0.336,0.902-0.704c0.173-0.215,0.403-0.668,0.63-1.127l0.247-0.503	c0.133-0.28,0.278-0.574,0.424-0.869c0.058-0.111,0.172-0.18,0.297-0.18h0.007h0.086c0.469,0,1.027-0.072,1.516-0.142	c0.214-0.032,0.425-0.064,0.625-0.097c0.448-0.069,0.836-0.13,1.123-0.143c0.071,0,0.261,0.014,0.526,0.031l0.596,0.04	c0.752,0.045,1.366,0.067,1.876,0.067c0.304,0,0.571-0.009,0.794-0.025c0.402-0.027,0.771-0.089,1.069-0.179	c0.083-0.025,0.174-0.055,0.264-0.096c0.044-0.018,0.089-0.026,0.133-0.026c0.084,0,0.168,0.031,0.23,0.093	c0.164,0.16,0.34,0.322,0.517,0.477c0.101,0.087,0.139,0.228,0.096,0.353s-0.156,0.213-0.289,0.225	c-0.064,0.005-0.132,0.012-0.193,0.02c-0.212,0.029-0.592,0.112-0.783,0.361c-0.066,0.083-0.163,0.128-0.263,0.128	c-0.046,0-0.09-0.009-0.133-0.027c-0.044-0.02-0.091-0.037-0.139-0.049c-0.103-0.029-0.199-0.034-0.282-0.035h-0.042l-0.112,0	l-0.169,0.001h-0.091c-0.299,0-1.003,0-1.608,0.099c-0.374,0.061-0.67,0.151-0.879,0.27c-0.199,0.113-0.431,0.317-0.412,0.652	c0.037,0.622,0.913,2.302,1.509,2.9c0.116,0.114,0.508,0.239,0.942,0.239c0.045,0,0.093-0.002,0.14-0.005	c0.008-0.001,0.017-0.001,0.024-0.001c0.122,0,0.234,0.07,0.293,0.18c0.609,1.202,1.666,2.011,2.629,2.01h0.062	c0.921-0.034,3.401-0.932,5.143-1.749c0.022-0.009,0.043-0.018,0.068-0.022c0.056-0.014,0.12-0.023,0.189-0.032	c0.102-0.015,0.218-0.028,0.341-0.043l0.176-0.019c0.384-0.047,0.819-0.114,1.138-0.266c0.204-0.096,0.47-0.39,0.738-0.797	c3.819,6.426,10.83,10.733,18.848,10.733c7.592,0,14.28-3.862,18.213-9.728c0.066,0.023,0.137,0.043,0.223,0.057	c0.178,0.029,0.433,0.044,0.803,0.046c0.072,0,0.143,0.025,0.199,0.067c0.04,0.032,0.097,0.083,0.182,0.168	c0.075,0.078,0.154,0.158,0.233,0.224c0.064,0.059,0.17,0.137,0.291,0.18c1.682,0.57,3.867,1.189,4.963,1.207h0.04	c1.496,0,2.004-1.434,2.153-2.051c0.031-0.125,0.131-0.222,0.258-0.246c1.393-0.274,2.157-2.371,2.153-2.729	c-0.007-0.674-0.268-0.941-0.935-0.99l-2.429,0c-0.054,0-0.107,0.009-0.161,0.023c-0.032,0.009-0.062,0.013-0.093,0.013	c-0.11,0-0.218-0.057-0.277-0.153c-0.088-0.137-0.186-0.205-0.348-0.243c-0.12-0.029-0.217-0.123-0.245-0.246	c-0.028-0.121,0.013-0.249,0.109-0.329c0.051-0.042,0.099-0.084,0.144-0.128c0.062-0.058,0.143-0.089,0.227-0.089h0.014	c0.331,0.015,0.975,0.039,1.588,0.039c0.271,0,0.537-0.005,0.764-0.017c0.49-0.026,0.898-0.075,1.329-0.125	c0.677-0.076,1.374-0.157,2.426-0.159l2.274,0.125c0.486,0,0.93-0.064,1.317-0.188c0.032-0.009,0.065-0.014,0.1-0.014	c0.062,0,0.126,0.017,0.179,0.051c0.081,0.053,0.138,0.139,0.149,0.237c0.147,1.15,0.525,2.166,1.092,2.935	c0.149,0.201,0.333,0.373,0.584,0.546c0.13,0.089,0.266,0.17,0.404,0.253c0.08,0.048,0.159,0.096,0.238,0.146	c0.6,0.374,1.346,0.842,2.278,0.841c0.25,0,0.508-0.034,0.767-0.099c0.279-0.073,0.558-0.106,0.854-0.106	c0.146,0,0.29,0.009,0.428,0.023c0.369,0.042,0.7,0.123,0.965,0.191l0.069,0.017c0.432,0.107,0.842,0.278,1.251,0.523	c0.336,0.2,0.621,0.417,0.895,0.625l0.074,0.056c0.546,0.414,1.11,0.841,1.896,0.841c0.03,0,0.063-0.002,0.095-0.003	c0.052-0.002,0.113-0.019,0.14-0.026c0.044-0.012,0.095-0.028,0.151-0.049c0.106-0.039,0.235-0.088,0.363-0.14	c0.122-0.049,0.263-0.104,0.422-0.135c0.021-0.002,0.042-0.006,0.064-0.006c0.107,0,0.21,0.054,0.273,0.146	c0.039,0.06,0.08,0.127,0.124,0.197c0.079,0.127,0.161,0.26,0.265,0.393c0.303,0.392,0.855,0.916,2.148,0.948	c0.117,0.004,0.23,0.004,0.339,0.004c0.674,0,1.088-0.053,1.274-0.083c0.017-0.004,0.034-0.005,0.053-0.005	c0.068,0,0.133,0.021,0.19,0.06c0.137,0.095,0.282,0.142,0.445,0.142c0.347,0,0.863-0.104,1.282-0.259	c0.248-0.093,0.453-0.198,0.605-0.311c0.198-0.146,0.313-0.309,0.34-0.483C141.772,35.169,141.759,35.014,141.711,34.821z"/>
	<path class="bulls-fill" fill="#c5c8c9" d="M31.555,6.794c-0.286,0.44-0.383,0.903-0.345,1.439c0.152,1.207,1.074,2.301,2.222,2.722	c0.67,0.288,1.438,0.066,2.127,0.219c0.191,0.076,0.388,0.291,0.407,0.5c-0.038,0.191-0.047,0.367-0.219,0.5	c-1.072,0.9-2.198,1.769-3.098,2.878c-0.958,1.034-1.095,2.859-0.595,4.161c0.555,1.493,2.104,2.469,3.597,2.659	c1.092,0.173,2.072-0.132,3.066-0.344c0.134,0,0.193,0.142,0.25,0.219c0.097,0.88-0.036,1.668,0.157,2.471	c0.171,0.746,0.42,1.275,0.688,2.002c0.038,0.249-0.015,0.497-0.188,0.688c-0.555,0.423-1.106,0.733-1.72,1.001l-1.502,0.094	l-0.282,0.125c-0.556,0.651-0.562,1.307-0.907,2.034c-0.459,0.767-1.324,1.155-2.033,1.595c-0.229,0.362-0.457,0.744-0.782,1.032	c-0.25,0.229-0.581,0.274-0.907,0.313c-0.517,0.593-0.617,1.416-0.751,2.221c0.842,0.077,1.712,0.522,2.535,0.063	c0.708-0.327,0.871-1.173,1.407-1.69c0.422-0.459,1.065-0.127,1.564-0.031c0.745,0.038,1.275-0.501,1.908-0.75	c0.438-0.287,0.792-0.777,1.251-1.064c0.881-0.422,2.115-0.172,3.035,0c0.727,0.19,1.495,0.068,2.127-0.219	c0.593-0.364,1.144-0.817,1.814-0.97c0.593-0.306,0.879-0.979,1.126-1.533c0.191-0.518,0.696-0.94,0.657-1.533	c-0.154-0.134-0.334-0.426-0.563-0.407c-0.288,0.403-0.488,0.836-0.813,1.22c-1.383,1.888-2.479,2.065-5.286,2.065	c-2.088-0.077-3.978,0.563-5.413,2.19c-0.096,0.058-0.236,0.014-0.312-0.063c-0.058-0.229,0.155-0.611,0.251-0.782	c1.283-1.818,3.276-2.245,5.38-2.284c1.149-0.076,2.245-0.253,3.223-0.75c1.09-0.555,1.824-1.431,2.283-2.503	c0.25-1.206,0.35-2.511,0.657-3.66c0.038-0.114,0.311-0.195,0.407-0.156c0.113,0.019,0.344,0.116,0.344,0.25	c-0.21,1.186-0.584,2.605-0.125,3.754c0.918,1.208,2.635,0.558,3.88,0.5c1.301-0.115,2.32-0.014,3.565,0.063	c0.612-0.018,1.085,0.101,1.564-0.282c0.134-0.21,0.164-0.491,0.125-0.72c-0.038-0.344-0.324-0.557,0-0.844	c0.095-0.077,0.395-0.001,0.469,0.094c0.174,0.479,0.257,0.986,0.563,1.408c0.613,0.785,1.506,1.405,2.346,1.846	c0.805,0.555,1.476,1.338,1.534,2.314c0,0.497-0.463,0.835-0.845,1.064c-0.651,0.325-1.362,0.608-2.128,0.532	c-1.015-0.498-1.27-1.593-1.939-2.377c-0.344-0.383-0.86-0.446-1.377-0.406c-0.556,0.056-1.128,0.077-1.627,0.25	c-0.133,0.114-0.175,0.264-0.156,0.438c0.345,0.63,0.744,1.246,1.127,1.876c0.44,0.27,1.057-0.134,1.439,0.345	c0.324,0.498,0.533,1.087,1.032,1.47c0.478,0.419,1.215,0.61,1.846,0.344c1.417-0.44,2.809-0.887,4.129-1.595h0.438	c0.535-0.058,1.15-0.035,1.532-0.438c0.422-0.611,0.77-1.195,1.095-1.846c0.326-0.44,0.165-1.085,0.032-1.564	c-0.65-0.803-1.032-1.708-1.377-2.628c-0.325-0.095-0.606-0.3-0.97-0.282c-0.173,0.078-0.403,0.028-0.501,0.219l1.503,3.003	c0.095,0.229,0.213,0.539,0.155,0.845c-0.21,0.633-0.546,1.261-1.062,1.72c-0.096,0.058-0.206,0.103-0.283-0.031	c0.172-0.651,0.477-1.349,0.438-2.096l-1.471-2.659c-0.172-0.365-0.487-0.707-0.468-1.127c0-0.191,0.189-0.299,0.344-0.375	c0.65-0.211,1.441-0.171,1.938-0.688c0.651-1.015,0.767-2.017,0.938-3.222c0.039-0.077,0.199-0.219,0.313-0.219	c0.115-0.039,0.256,0.13,0.312,0.188c0.193,1.32-0.079,2.659-0.844,3.692c-0.039,0.135-0.092,0.311,0.062,0.406	c0.727,0.23,1.483-0.019,2.095-0.345c0.785,0.021,1.512-0.167,2.223-0.281c0.075,0.038,0.155,0.11,0.155,0.188	c-0.478,0.536-0.742,1.124-0.875,1.814c-0.575,0.594-1.412,1.11-1.472,1.971c0.098,0.422,0.471,0.024,0.721,0.063	c0.113,0.02,0.188,0.104,0.188,0.219l-0.563,0.845c-0.306,0.497,0.031,1.084,0.031,1.564c0.136,0.381,0.6,0.562,1,0.562	c0.862-0.037,1.646-0.357,2.41-0.625c0.842-0.364,1.896-0.341,2.815-0.188c0.9-0.056,1.553-0.657,2.221-1.251	c0.366,0,0.691,0.263,0.938,0.532c1.034,1.11,2.368,1.572,3.88,1.533l0.156-0.062c0.097-0.095,0.051-0.267-0.062-0.344	l-0.907-0.469c-0.631-0.402-1.417-0.95-1.627-1.659c-0.192-0.63-0.523-1.294-0.907-1.908c-0.133-0.305-0.46-0.571-0.595-0.876	c0.038-0.04,0.101-0.083,0.157-0.062c0.995,0.345,1.574,1.31,2.033,2.19c0.728,1.013,1.782,1.887,3.16,1.658l0.125-0.094	c0.06-0.077,0.038-0.193,0-0.25l-0.688-0.344c-1.148-0.671-1.605-1.912-2.315-2.91c-0.247-0.364-0.707-0.607-0.938-0.969	c-0.821-2.24-1.51-4.475-1.72-7.039c-0.174-0.632-0.312-1.284-0.657-1.877c-1.034-1.685-2.39-3.205-3.691-4.755	c-0.114-0.114-0.097-0.136-0.344-0.375l-4.536-3.785c-0.557-0.422-1.184-0.682-1.815-0.97c-0.956-0.364-2.285-0.276-3.222,0.125	C62.269,8.03,61.4,8.765,60.366,9.109c-1.491,0.67-3.19,0.822-4.474,1.97c-0.746,0.651-1.362,1.643-2.471,1.471	c-1.244-0.058-2.347,0.422-3.285,1.188c-0.843,0.766-1.662,1.667-2.753,1.877c-0.958,0.402-2.12,0.199-3.098,0.563	c-1.55,0.383-2.778,1.597-4.098,2.534c-1.32,0.765-2.577,1.603-4.223,1.564c-1.071-0.076-2.097-0.812-2.441-1.846	c-0.325-1.186,0.032-2.418,0.971-3.222c0.976-1.168,2.519-1.851,3.284-3.191c0.402-0.708,0.35-1.865-0.188-2.534	c-1.014-1.052-2.465-1.082-3.786-1.408C32.965,7.847,32.302,7.195,31.555,6.794z M105.001,6.856	c-0.573,0.039-0.998,0.43-1.438,0.813c-2.928,2.565-6.269,4.33-8.947,7.258c-1.8,1.857-2.302,4.198-2.972,6.476	c-0.958,3.445-1.354,7.229-4.818,9.354c-0.059,0.097-0.053,0.268,0.062,0.344c0.918,0.229,1.829-0.12,2.44-0.75	c0.595-0.938,1.229-1.83,2.033-2.691l0.188-0.093c0.096,0.018,0.194,0.053,0.157,0.187c-0.23,0.766-0.897,1.332-1.127,2.096	c-0.306,0.918-1.192,1.633-1.939,2.284l-0.032,0.094c0,0.096,0.093,0.2,0.189,0.219c1.683,0.076,2.904-1.123,4.035-2.252	c0.114-0.115,0.253-0.1,0.406-0.062c0.499,0.384,0.977,0.961,1.627,1.095c0.689-0.096,1.399-0.182,2.127-0.126	c1.015,0.307,1.99,0.72,3.004,1.064c0.518-0.019,0.89-0.517,1.157-0.938c0.211-0.497-0.068-0.993-0.032-1.471	c0.25-0.153,0.517,0.045,0.783-0.031c0.115-0.076,0.219-0.209,0.219-0.344c-0.191-0.88-0.971-1.553-1.22-2.377	c-0.383-1.053-1.617-1.687-1.846-2.816c0.056-0.076,0.153-0.17,0.25-0.093c0.822,0.593,1.521,1.38,2.534,1.533	c0.765,0.077,1.579,0.151,2.347,0.094c0.113-0.038,0.195-0.181,0.155-0.313c-0.324-0.689-0.622-1.382-0.812-2.127	c-0.269-0.939-0.464-2.251-0.157-3.285c0.057-0.077,0.291-0.225,0.407-0.188c0.152,0.039,0.356,0.241,0.376,0.376	c0.114,1.626-0.069,3.128,0.907,4.411c0.42,0.669,1.141,0.797,1.657,1.313c0.191,0.27,0.259,0.694,0.126,1.001l-1.189,1.721	c-0.269,0.384-0.53,0.83-0.626,1.251c-0.096,0.478-0.038,0.917,0,1.376c-0.076,0.037-0.11-0.057-0.188-0.094	c-0.306-0.631-0.639-1.444-0.312-2.19l1.471-2.283l0.03-0.188c-0.325-0.171-0.688-0.329-1.032-0.407	c-0.172,0.078-0.259,0.253-0.374,0.407l-1.44,2.597c-0.097,0.305-0.201,0.55-0.125,0.875c0.077,0.383,0.173,0.74,0.344,1.064	c0.115,0.537,0.221,0.93,0.47,1.408c0.363,0.402,0.856,0.011,1.314,0.125c0.459,0.115,0.635,0.679,1.095,0.813	c1.033,0.344,2.127,0.537,3.159,0.939c0.536,0.172,1.306,0.377,1.784-0.063c0.668-0.363,0.854-1.05,0.969-1.721	c0.21-0.286,0.632-0.187,0.938-0.281c0.574-0.384,0.768-1.079,1.189-1.596l0.062-0.25c-0.058-0.173-0.19-0.287-0.345-0.344h-1.971	c-0.899,0.115-0.962,1.107-1.345,1.721c-0.211,0.381-0.656,0.538-1.096,0.5c-0.917-0.249-2.02-0.381-2.439-1.376	c-0.059-0.249-0.067-0.547,0.125-0.72c0.476-0.554,1.034-1.199,1.626-1.658c0.843-0.173,1.688-0.786,2.128-1.533	c0.229-0.325,0.181-0.815,0.562-1.063c0.115-0.019,0.362-0.021,0.438,0.093c0.173,0.555-0.141,0.96-0.313,1.439	c2.089,0.211,3.729-0.389,5.757-0.313c0.862,0,1.63,0.089,2.472,0.031c0.842-0.037,1.765-0.403,2.034-1.283	c0.383-1.13-0.152-2.401-0.345-3.473l0.218-0.187c0.136-0.077,0.374,0.047,0.47,0.125c0.364,1.014,0.599,2.238,0.752,3.348	c0.153,0.977,0.591,1.617,1.125,2.439c0.978,1.455,2.677,2.021,4.381,1.659c2.066-0.153,3.867,0.925,5.131,2.533v0.094	c-0.04,0.076-0.123,0.175-0.22,0.156c-1.09-0.843-2.169-1.735-3.566-1.908c-1.413-0.256-2.688,0.469-4.161-0.125	c-1.775-0.583-2.532-1.662-3.284-3.41h-0.157c-0.114,0.019-0.167,0.135-0.187,0.25l0.187,1.189	c0.23,0.956,0.531,2.062,1.564,2.502c0.803,0.479,1.571,1.177,2.565,0.908c1.742-0.383,3.509,0.119,4.85,1.095	c0.438,0.249,0.803,0.703,1.282,0.875c0.517,0.21,1.144,0.094,1.564-0.25c0.978-0.324,1.206,0.907,1.877,1.345	c0.592,0.574,1.779,0.345,2.565,0.345l-0.032-0.094c-0.095-0.786-0.287-1.406-0.594-2.096c-0.977,0.059-1.461-0.981-2.034-1.595	c-0.478-0.555-1.427-0.897-1.407-1.72c-0.173-0.326-0.222-0.83-0.375-1.252c-0.135-0.344-0.259-0.83-0.72-0.907	c-0.823-0.132-1.8,0.078-2.316-0.688c-0.534-0.576,0.03-1.228,0.126-1.783c0.231-0.709,0.271-1.649,0.157-2.378	c-0.021-0.42-0.327-0.768-0.251-1.188c0.191-0.364,0.653-0.101,0.938-0.062c1.073,0.306,2.341,0.139,3.317-0.282	c1.338-0.65,2.403-1.983,2.346-3.535c-0.192-2.008-1.61-3.673-3.16-4.975c-0.288-0.249-0.653-0.513-0.75-0.875	c-0.036-0.785,0.841-0.404,1.283-0.594c0.534-0.134,1.061-0.257,1.501-0.563c1.167-0.785,1.418-2.165,1.188-3.504	c-0.037-0.115-0.016-0.281-0.188-0.281c-0.211,0.172-0.451,0.41-0.719,0.563c-0.745,0.44-1.719,0.368-2.503,0.751	c-0.976,0.42-2.175,1.017-2.597,2.127c-0.115,0.556,0.002,1.136,0.25,1.595c1.188,1.876,3.696,3.091,4.099,5.35	c0.154,0.918-0.293,1.58-1.001,2.096c-1.073,0.65-2.684,0.417-3.754-0.156c-2.067-1.034-3.881-2.764-6.101-3.473	c-1.398-0.631-3.104-0.461-4.349-1.439c-0.937-0.611-1.825-1.421-2.878-1.688c-0.727-0.25-1.521-0.2-2.19-0.563	c-0.691-0.613-1.415-1.194-2.221-1.595c-1.109-0.556-2.341-0.826-3.566-1.095c-0.728-0.171-1.001-1.004-1.596-1.408	C107.522,7.304,106.38,6.741,105.001,6.856z M104.616,11.424c0.105-0.02,0.216-0.031,0.312,0c0.117,0.036,0.201,0.135,0.251,0.25	c0.046,0.079,0.062,0.14,0.062,0.219c0,0.054-0.01,0.13-0.031,0.187l-0.093,0.157l-0.095,0.125	c-0.001-0.001-0.595,0.563-0.595,0.563l-0.656,0.625c-0.486,0.471-0.818,0.867-1.063,1.251c-0.206,0.282-0.351,0.589-0.501,0.907	c-0.047,0.095,0.104,0.115,0.041,0.094c0,0-0.306-0.026-0.322-0.031c-0.006-0.018,0.26-0.031,0.26-0.031	c-0.04-0.122-0.322-0.234-0.322-0.375c0-0.106,0.009-0.22,0.03-0.344l0.126-0.5l0.062-0.188c0.367-0.976,1.191-2.019,2.254-2.815	C104.402,11.475,104.511,11.443,104.616,11.424z M66.279,12.738c0.1-0.012,0.197,0,0.282,0.032l0.03,0.031	c0.325,0.225,0.535,0.604,0.688,0.875c0.194,0.451,0.281,1.013,0.281,1.596c0,0.444-0.04,0.89-0.156,1.313	c0,0,0.003,0.023,0,0.031c-0.007,0.007-0.031,0-0.031,0c-0.054,0.053-0.153,0.097-0.25,0.032c0,0,0.013-0.022,0-0.032	c-0.004-0.014-0.031-0.031-0.031-0.031c-0.149-0.762-0.317-1.565-0.626-2.315c0.001,0-0.156-0.312-0.156-0.312l-0.094-0.094	l-0.125-0.219c-0.119-0.193-0.256-0.44-0.094-0.751l0.03-0.031C66.099,12.793,66.18,12.75,66.279,12.738z M75.008,20.215	c0.072,0.007,0.163,0.026,0.25,0.062c0.269,0.144,0.438,0.392,0.562,0.595l0.062,0.125l0.126,0.188l0.219,0.282	c0.618,0.693,0.907,1.358,0.907,2.033c0,0.169,0.007,0.328-0.031,0.5c-0.004,0.015-0.062,0.157-0.062,0.157	c-0.003,0.011-0.063,0.188-0.063,0.188c-0.054,0.151-0.149,0.22-0.281,0.25c-0.077,0.022-0.13,0.011-0.187-0.031	c-0.06-0.044-0.095-0.109-0.095-0.188c0-0.003-0.031-0.188-0.031-0.188l-0.063-0.562c-0.047-0.274-0.123-0.511-0.249-0.688	c-0.005-0.005-0.251-0.282-0.251-0.282c-0.01-0.011-0.281-0.344-0.281-0.344c-0.226-0.225-0.447-0.337-0.656-0.345	c-0.165,0.051-0.31,0.169-0.47,0.345l-0.188,0.25l-0.188,0.25c-0.064,0.112-0.217,0.031-0.218,0.031c0,0-0.021,0.006-0.032,0	c-0.005-0.013,0-0.031,0-0.031c-0.045-0.115-0.062-0.241-0.062-0.344c0-0.184,0.069-0.335,0.126-0.469l0.155-0.313l0.157-0.375	l0.031-0.031c0.055-0.051,0.098-0.158,0.155-0.313l0.063-0.125l0.094-0.282C74.626,20.303,74.788,20.194,75.008,20.215z	 M96.147,20.872c0.367-0.072,0.607,0.264,0.688,0.406c0.318,0.408,0.575,0.884,0.813,1.471c0.013,0.04,0,0.079,0,0.125	c0,0.026,0.004,0.035,0,0.063l-0.062,0.188c-0.045,0.062-0.085,0.144-0.157,0.188c-0.059,0.036-0.148,0.065-0.249,0	c-0.103-0.041-0.183-0.096-0.251-0.188c0-0.001-0.094-0.125-0.094-0.125l-0.062-0.125c-0.088-0.147-0.176-0.265-0.376-0.25	c-0.178-0.009-0.294,0.078-0.407,0.157l-0.124,0.093l-0.063,0.031l-0.22,0.157c-0.007,0.005-0.281,0.219-0.281,0.219l-0.093,0.094	l-0.407,0.375c-0.278,0.291-0.422,0.536-0.469,0.814l-0.062,0.219c0-0.001,0,0.094,0,0.094l-0.032,0.125	c-0.027,0.134-0.084,0.259-0.219,0.344c-0.092,0.027-0.195,0.033-0.282-0.031c-0.069-0.051-0.124-0.144-0.124-0.219	c-0.078-0.924,0.265-1.792,0.906-2.377c0.327-0.267,0.588-0.596,0.814-0.876l0.249-0.312l0.501-0.625L96.147,20.872z	 M74.538,27.848c0.016-0.001,0.062,0,0.062,0h0.094l0.126,0.031c0.065,0.019,0.188,0.087,0.218,0.25	c0.01,0.093,0.031,0.176,0.031,0.282c0,0.294-0.059,0.623-0.312,0.813c0,0-0.036-0.004-0.031,0	c-0.355,0.112-0.754,0.178-1.189,0.157l-0.031-0.031c0,0-0.094-0.031-0.094-0.031c-0.002-0.001-0.062-0.031-0.062-0.031	c-0.041-0.033-0.131-0.11-0.094-0.219C73.422,28.57,73.916,27.977,74.538,27.848z M95.867,28.255h0.031	c0.503,0,0.88,0.172,1.126,0.469c0,0.001,0.062,0.157,0.062,0.157l0.126,0.25c0.033,0.089,0.062,0.144,0.062,0.219	c0,0.076-0.029,0.151-0.062,0.219V29.6c-0.126,0.088-0.285,0.134-0.501,0.125l-0.375-0.062h-0.125l-0.031-0.032	c-0.367-0.205-0.429-0.613-0.47-1.033c0-0.141,0.029-0.235,0.126-0.312C95.836,28.287,95.856,28.264,95.867,28.255z	 M32.305,30.101c-0.073,0.012-0.151,0.043-0.219,0.063c-0.421,0.364-0.855,0.651-1.313,0.938	c-0.192,0.134-0.118,0.416-0.157,0.626c0,0.19,0.228,0.324,0.345,0.438c0.209,0.098,0.459,0.108,0.688,0.031	c0.592-0.344,0.976-0.977,1.282-1.533c-0.058-0.21-0.266-0.378-0.438-0.532C32.435,30.083,32.38,30.088,32.305,30.101z	 M137.191,30.132c-0.282,0.011-0.544,0.348-0.687,0.563c0.133,0.459,0.527,0.831,0.812,1.251c0.154,0.23,0.419,0.388,0.688,0.406	c0.267,0,0.466-0.128,0.656-0.281c0.135-0.172,0.275-0.378,0.22-0.625c-0.364-0.498-0.917-0.806-1.376-1.189	C137.41,30.175,137.287,30.128,137.191,30.132z M29.646,32.259c-0.306,0.152-0.644,0.436-0.719,0.782	c-0.097,0.612,0.039,1.185-0.438,1.627c-0.019,0.114-0.116,0.26,0,0.375c0.421,0.134,0.83,0.286,1.345,0.344	c0.23-0.747,0.391-1.571,0.657-2.222v-0.188C30.261,32.692,30.027,32.334,29.646,32.259z M139.507,32.384	c-0.269,0.229-0.65,0.474-0.594,0.876c0.229,0.689,0.365,1.2,0.501,1.908c0.075,0.133,0.009,0.407,0.219,0.407l1.22-0.407	c0.212-0.344-0.173-0.614-0.251-0.938c-0.095-0.44,0.006-1.038-0.281-1.439C140.071,32.599,139.832,32.307,139.507,32.384z"/>
	<path class="hoof-right" fill="#c5c8c9" d="M58.682,30.23c0.383,0.422,0.364,1.071,0.805,1.397c0.573,0.098,1.09-0.132,1.53-0.477 c0.251-0.211-0.113-0.479-0.151-0.728c-0.25-0.363-0.077-1.091-0.688-1.11c-0.614,0.095-1.227,0.115-1.838,0.115l-0.174,0.115 C58.052,29.906,58.586,29.906,58.682,30.23"/>
	<path class="hoof-left" fill="#c5c8c9" d="M110.154,29.618c-0.518,0.096-1.109-0.021-1.627,0.058 c-0.229,0.344-0.439,0.766-0.383,1.225c0.058,0.479,0.594,0.516,0.938,0.651c0.325,0.037,0.802,0.153,0.976-0.191 c0.191-0.498,0.363-1.034,0.439-1.569C110.461,29.637,110.307,29.579,110.154,29.618"/>
</svg>