<?xml version="1.0" encoding="utf-8"?>
<!-- Generator: Adobe Illustrator 21.0.2, SVG Export Plug-In . SVG Version: 6.00 Build 0)  -->
<svg version="1.1" id="Layer_1" xmlns:x="&ns_extend;" xmlns:i="&ns_ai;" xmlns:graph="&ns_graphs;"
	 xmlns="http://www.w3.org/2000/svg" xmlns:xlink="http://www.w3.org/1999/xlink" x="0px" y="0px" width="500px" height="200px"
	 viewBox="0 0 500 200" enable-background="new 0 0 500 200" xml:space="preserve">
<metadata>
	<sfw  xmlns="&ns_sfw;">
		<slices></slices>
		<sliceSourceBounds  bottomLeftOrigin="true" height="200" width="500" x="0" y="-200"></sliceSourceBounds>
	</sfw>
</metadata>
<path display="none" fill="none" stroke="#000000" stroke-width="8" stroke-miterlimit="10" d="M0.5,110.5
	c22.2,0,33.3-10.5,55.5-10.5s33.3,30,55.5,30s33.3-51,55.5-51s33.3,71,55.5,71s33.3-90,55.5-90s33.3,110,55.5,110S366.8,40,389,40
	s33.3,150,55.5,150S477.8,19,500,19"/>
<path fill="#28353D" d="M27,101.4c8.5-2.7,17.2-5.4,29-5.4c12.6,0,21.7,8.1,30.4,16c8,7.2,15.5,14,25.1,14c8.9,0,16.8-12,24.4-23.7
	C144.7,88.9,153.7,75,167,75c13.6,0,22.3,18.4,31.4,37.8c7.3,15.6,15.6,33.2,24.1,33.2c8.3,0,17-23.5,24-42.4
	C255.6,79.1,264.1,56,278,56c14.1,0,22.2,26.8,31.6,57.8c6.3,20.8,15.8,52.2,23.9,52.2c1.1,0,5.1-1.3,11.2-17.7
	c4.4-12,8.6-28.4,12.7-44.3c10.8-42.2,18.1-68,31.6-68c13.6,0,20.9,29.7,31.7,78.1c4.1,18.3,8.3,37.3,12.7,51.2
	c6.4,20.1,10.6,20.7,11.1,20.7c0,0,4.4-0.3,11.1-23.8c4.5-15.9,8.7-37.5,12.8-58.5C479.4,47.1,486.3,15,500,15V0H0v200h500V23
	c0,0-4.4,0.3-11.1,23.8c-4.5,15.9-8.7,37.5-12.8,58.5c-11,56.7-17.9,88.7-31.7,88.7c-13.6,0-20.9-29.7-31.7-78.1
	c-4.1-18.3-8.3-37.3-12.7-51.2C393.7,44.6,389.5,44,389,44c-1.1,0-5.1,1.3-11.2,17.7c-4.4,12-8.6,28.4-12.7,44.3
	c-10.8,42.2-18.1,68-31.6,68c-14.1,0-22.2-26.8-31.6-57.8C295.6,95.4,286.1,64,278,64c-8.3,0-17,23.5-24,42.4
	c-9.1,24.5-17.6,47.6-31.5,47.6c-13.6,0-22.3-18.4-31.4-37.8C183.8,100.6,175.6,83,167,83c-8.9,0-16.8,12-24.4,23.7
	c-8.8,13.4-17.8,27.3-31.1,27.3c-12.6,0-21.7-8.1-30.4-16c-8-7.2-15.5-14-25.1-14c-10.5,0-18.3,2.5-26.5,5.1
	c-8.5,2.7-17.2,5.4-29,5.4v-8C11,106.5,18.8,104,27,101.4z"/>
</svg>
