<?xml version="1.0" encoding="utf-8"?>
<!-- Generator: Adobe Illustrator 21.0.2, SVG Export Plug-In . SVG Version: 6.00 Build 0)  -->
<svg version="1.1" id="Layer_1"
	 xmlns="http://www.w3.org/2000/svg" xmlns:xlink="http://www.w3.org/1999/xlink" x="0px" y="0px" width="30px" height="30px"
	 viewBox="0 0 30 30" enable-background="new 0 0 30 30" xml:space="preserve">

<g>
	<path fill="#FFFFFF" d="M3.7,20.7l-0.2-0.3c-1.8-2.1-2.7-4.6-2.7-7.3C0.8,6.3,7.1,0.8,15,0.8s14.2,5.5,14.2,12.4S22.9,25.5,15,25.5
		c-1.5,0-3.1-0.2-4.6-0.7l-0.3-0.1L2,28.4L3.7,20.7z"/>
	<path fill="#AAAAAA" d="M15,1.5c7.4,0,13.5,5.2,13.5,11.6S22.4,24.7,15,24.7c-1.5,0-2.9-0.2-4.4-0.6L10.1,24l-0.5,0.2l-6.5,2.9
		l1.3-5.9l0.2-0.7l-0.5-0.6c-1.7-2-2.6-4.3-2.6-6.8C1.5,6.7,7.6,1.5,15,1.5 M15,0C6.7,0,0,5.9,0,13.1c0,2.9,1.1,5.6,2.9,7.8L1,29.3
		l-0.3,0.4L1,29.6l0,0l9.3-4.1c1.5,0.4,3.1,0.7,4.8,0.7c8.3,0,15-5.9,15-13.1C30,5.9,23.3,0,15,0L15,0z"/>
</g>
<g>
	<path fill="#FCC948" d="M18.1,20.6c-1.6-1-3.3-2-4.9-3.1C11.1,16,9.1,14.5,7,13c-0.4-0.3-0.5-0.6-0.5-1.1c0.1-1.3,0.2-2.6,0.8-3.7
		c0.3-0.6,0.7-1,1.4-1.1c1.1-0.1,2.1,0.3,3,1c1.3,1,2,2.4,2.7,3.8C15.9,14.8,16.5,17.9,18.1,20.6z"/>
	<path fill="#FCE163" d="M18.1,20.6c-1.6-2.7-2.2-5.9-3.6-8.7c-0.7-1.4-1.4-2.8-2.7-3.8c-0.9-0.7-1.9-1.1-3-1L8.9,7
		c0.5,0,1-0.1,1.6-0.1c0.3,0.1,0.6,0.2,0.9,0.3c0.8,0.6,1.5,1.2,2.3,1.8c0.1,0.1,0.3,0.3,0.4,0.4c0,0.1,0.1,0.2,0.1,0.2
		c0.2,0.4,0.4,0.7,0.6,1.1c0.4,0.8,0.7,1.5,1.1,2.3c0.2,0.6,0.5,1.3,0.7,1.9c0.5,1.4,1,2.8,1.6,4.2c0.1,0.1,0.2,0.3,0.2,0.4
		c0.1,0.2,0.2,0.4,0.3,0.5c0.6,0.6,1,0.5,1.6-0.3l0,0c0.2-0.1,0.4-0.3,0.4-0.4c0.4-0.9,0.7-1.8,1.1-2.7c0,1.5-0.4,2.8-1.4,3.8
		C19.7,21.1,19,21.2,18.1,20.6z"/>
	<path fill="#81B321" d="M20,6.2c0.5,0.1,0.5,0.4,0.5,0.8c-0.1,0.9,0.3,1.5,1.2,1.8c0.6,0.2,0.4,0.5,0.1,0.9C21,8.9,21,8.9,19.9,9.5
		c-0.2,0.1-0.3,0.2-0.5,0.3c-0.4-0.1-0.9-0.2-1.3-0.2C18.6,8.7,18,8.4,17.4,8c0.7,0,1.4,0,2.1,0c0.3,0.2,0.6,0.3,0.9,0.5l0.1,0.1
		c0-0.1,0-0.1,0-0.2c-0.3-0.3-0.5-0.6-0.8-1C19.8,7,19.9,6.6,20,6.2z"/>
	<path fill="#E72129" d="M19.5,8c-0.7,0-1.4,0-2.1,0c-0.1-0.1-0.1-0.3-0.2-0.4c0.2-0.1,0.5-0.1,0.7-0.2C17.4,7.3,17,7.1,16.5,7V6.9
		c0.3-0.3,0.5-0.5,0.8-0.8c0.2,0,0.3-0.1,0.4-0.1s0.1,0,0.2-0.1C19,5.4,19,5.4,20,6.2c-0.1,0.4-0.2,0.8-0.3,1.2
		C19.6,7.6,19.5,7.8,19.5,8z"/>
	<path fill="#D6912A" d="M21.8,16.6c-0.4,0.9-0.7,1.8-1.1,2.7c-0.1,0.2-0.3,0.3-0.4,0.4c0.1-0.3,0.2-0.7,0.3-1
		c0.1-0.2,0.2-0.4,0.3-0.5c0.2-0.5,0.7-0.9,0.4-1.6c0-0.1,0.1-0.2,0.1-0.3c0.5-0.3,0.3-0.6,0-0.9c-0.1-0.3-0.2-0.6-0.2-0.8
		s0-0.4,0.1-0.5c0.3-0.5,0.1-0.7-0.4-0.8c0-0.5,0.1-1.1,0.1-1.6c0.2,0,0.3,0,0.5-0.1c0.2,0,0.4,0,0.6,0
		C22.2,13.3,22.2,14.9,21.8,16.6z"/>
	<path fill="#81B321" d="M16.6,7.1C17,7.2,17.5,7.3,18,7.5c-0.3,0.1-0.5,0.1-0.7,0.2C16.7,7.8,16,7.9,15.4,8c-0.4,0-0.9-0.1-1.3-0.1
		c-0.7-0.2-1.5-0.5-2.2-0.7c-0.5-0.4-0.9-0.7-1.4-1.1c-0.1-0.1-0.1-0.3-0.2-0.4c0.1,0,0.3,0.1,0.4,0.1c0.6,0.3,1.2,0.6,1.7,0.8
		c0.7,0.2,1.5,0.4,2.2,0.5C15.3,7.1,16,7.1,16.6,7.1z"/>
	<path fill="#81B321" d="M18.1,9.5c0.4,0.1,0.9,0.2,1.3,0.2c0.8,0.1,1.6,0.2,2.4,0.3c0.2,0,0.4,0.1,0.7,0.1
		c-0.3,0.1-0.5,0.2-0.7,0.3l0,0c-1,0-1.9,0.1-2.9,0.1c-0.3,0-0.6-0.1-0.8-0.1c-0.4-0.1-0.7-0.3-1.1-0.4c0-0.2,0.1-0.4,0.1-0.6
		C17.4,9.4,17.7,9.5,18.1,9.5z"/>
	<path fill="#AAE138" d="M16.6,7.1c-0.7,0-1.4,0.1-2,0c-0.7-0.1-1.5-0.3-2.2-0.5c0.1-0.3,0.1-0.7,0.2-1h0.1C12.8,5.7,13,5.9,13.1,6
		c0.2,0.1,0.5,0.3,0.7,0.4C14.7,6.6,15.6,6.8,16.6,7.1L16.6,7.1z"/>
	<path fill="#A9E53E" d="M10.3,5.6c0.1,0.1,0.1,0.3,0.2,0.4c0,0.3,0,0.5,0,0.8c-0.5,0-1,0.1-1.6,0.1c0-0.3-0.1-0.6,0-0.9
		C9.1,5.1,9.6,5,10.3,5.6z"/>
	<path fill="#89C02B" d="M17.7,6c-0.1,0.1-0.2,0.1-0.3,0.2C16.6,6.1,15.8,6,15,5.9c0.1-0.1,0.3-0.3,0.4-0.4c0.3-0.1,0.5-0.2,0.8-0.3
		C17,5,17.3,5.2,17.7,6z"/>
	<path fill="#E8282B" d="M12.6,5.5c-0.1,0.3-0.1,0.7-0.2,1c-0.6-0.3-1.2-0.6-1.7-0.8c0.5-0.2,0.9-0.4,1.4-0.6l0.1,0.1l0,0
		c0.1,0.1,0.2,0.1,0.3,0.2l0,0C12.5,5.4,12.5,5.5,12.6,5.5L12.6,5.5z"/>
	<path fill="#80B725" d="M15.4,5.5c-0.1,0.1-0.3,0.3-0.4,0.4c-0.6,0-1.3,0.1-1.9,0.1c-0.1-0.2-0.3-0.4-0.4-0.6
		C13,5.3,13.2,5.1,13.5,5c0.2-0.1,0.6,0,0.6,0.1C14.4,5.8,14.9,5.6,15.4,5.5z"/>
	<path fill="#E62629" d="M21.8,10c-0.8-0.1-1.6-0.2-2.4-0.3c0.2-0.1,0.3-0.2,0.5-0.3c1-0.5,1-0.5,1.9,0.3C21.8,9.8,21.8,9.9,21.8,10
		z"/>
	<path fill="#85B32A" d="M21.7,10.5L21.7,10.5c0.1,0.4,0.2,0.8,0.3,1.2c-0.2,0-0.4,0-0.6,0C21.5,11.2,21.6,10.9,21.7,10.5z"/>
	<path fill="#AAE138" d="M12.4,5.4c-0.1-0.1-0.2-0.1-0.3-0.2C12.3,5.3,12.3,5.3,12.4,5.4z"/>
	<path fill="#AAE138" d="M12.6,5.5l-0.1-0.1C12.5,5.4,12.5,5.5,12.6,5.5z"/>
	<path fill="#AAE138" d="M12.2,5.2l-0.1-0.1C12.1,5.2,12.1,5.2,12.2,5.2z"/>
	<path fill="#7A5846" d="M21.3,15.4c0.3,0.3,0.5,0.6,0,0.9c-0.1,0.1-0.2,0.2-0.1,0.3c0.3,0.6-0.2,1.1-0.4,1.6
		c-0.2,0-0.5-0.1-0.7-0.1c0.2,0.2,0.3,0.4,0.5,0.6c-0.1,0.3-0.2,0.7-0.3,1l0,0c-0.5,0.1-1.1,0.2-1.6,0.3c-0.1-0.2-0.2-0.4-0.3-0.5
		c0.2,0,0.4,0.1,0.6,0.1c0.1-0.7-0.1-0.8-0.8-0.5c-0.5-1.4-1-2.8-1.6-4.2c0.5-0.7,0.7-0.7,1.4-0.2c0.3,0.2,0.6,0.3,0.9,0.4
		c0.1,0.1,0.1,0.2,0.2,0.3h0.1c-0.1-0.5-0.1-1-0.2-1.5c0.2-1,0.2-1,1.2-0.7c0.2,0.1,0.4,0,0.6,0c0.5,0.1,0.6,0.4,0.4,0.8
		c-0.1,0.1-0.1,0.3-0.1,0.5c-0.1,0.2-0.2,0.3-0.4,0.5C20.9,15.2,21.1,15.3,21.3,15.4z M19.7,18c-0.2-0.2-0.4-0.3-0.5-0.5
		c-0.1,0.1-0.3,0.3-0.3,0.4c0.1,0.2,0.2,0.3,0.4,0.5C19.4,18.3,19.5,18.2,19.7,18z M20.7,14.1c-0.3-0.2-0.5-0.3-0.7-0.4L19.8,14
		c0.1,0.2,0.3,0.3,0.5,0.4C20.3,14.4,20.4,14.3,20.7,14.1z M19.3,16.1c-0.2-0.2-0.3-0.4-0.5-0.4c-0.1,0-0.3,0.2-0.3,0.3
		c0,0.1,0.2,0.3,0.3,0.4C18.9,16.4,19.1,16.2,19.3,16.1z M17.8,15.2c-0.2-0.2-0.4-0.3-0.5-0.4c-0.1,0-0.3,0.2-0.3,0.3
		c0,0.2,0.2,0.3,0.3,0.4C17.4,15.5,17.6,15.3,17.8,15.2z M20.8,16.4c0.1-0.1,0.1-0.2,0.2-0.3c-0.2-0.1-0.4-0.3-0.6-0.4
		c-0.1,0.1-0.1,0.2-0.2,0.4C20.4,16.2,20.6,16.3,20.8,16.4z M18.1,17.2c0.1-0.1,0.1-0.2,0.2-0.3c-0.2-0.1-0.4-0.3-0.6-0.4
		c-0.1,0.1-0.2,0.3-0.2,0.4C17.7,17,17.9,17.1,18.1,17.2z"/>
	<path fill="#E72127" d="M17,9.4c0,0.2-0.1,0.4-0.1,0.6c-0.1,0.2-0.2,0.3-0.3,0.5c-0.2-0.1-0.5-0.3-0.7-0.4
		c-0.6-0.3-1.2-0.5-1.8-0.8C14,9.2,13.8,9,13.7,8.9c0.1-0.4,0.3-0.8,0.4-1.2c0.4,0,0.9,0.1,1.3,0.1c0.5,0.4,0.9,0.9,1.4,1.3
		C16.9,9.3,16.9,9.3,17,9.4L17,9.4z"/>
	<path fill="#81B321" d="M14.1,9.4c0.6,0.3,1.2,0.5,1.8,0.8c0.2,0.1,0.5,0.3,0.7,0.4c0.6,0.6,1.2,1.3,1.8,1.9c0.2,0.5,0.4,1,0.7,1.5
		c0.1,0.5,0.1,1,0.2,1.5h-0.1c-0.1-0.1-0.1-0.2-0.2-0.3c-0.5-0.8-1-1.5-1.4-2.3c-0.6-0.7-1.3-1.4-1.9-2.1c-0.5-0.4-0.9-0.7-1.4-1.1
		C14.1,9.6,14.1,9.5,14.1,9.4z"/>
	<path fill="#7CB41E" d="M17.5,12.8c0.5,0.8,1,1.5,1.4,2.3c-0.3-0.1-0.6-0.3-0.9-0.4c-0.7-0.5-0.9-0.5-1.4,0.2
		c-0.2-0.6-0.5-1.3-0.7-1.9C16.4,12.9,16.9,12.9,17.5,12.8z"/>
	<path fill="#A9E239" d="M17.5,12.8c-0.5,0.1-1.1,0.1-1.6,0.2c-0.4-0.8-0.7-1.5-1.1-2.3c0.3,0,0.5,0,0.8,0
		C16.2,11.4,16.8,12.1,17.5,12.8z"/>
	<path fill="#ACDC38" d="M14.1,7.8C14,8.2,13.8,8.6,13.7,9c-0.8-0.6-1.5-1.2-2.3-1.8c0.2,0,0.3,0,0.5,0C12.6,7.3,13.3,7.6,14.1,7.8z
		"/>
	<path fill="#E72928" d="M11.8,7.1c-0.2,0-0.3,0-0.5,0C11,7,10.7,6.9,10.4,6.8c0-0.3,0-0.5,0-0.8C10.9,6.4,11.4,6.7,11.8,7.1z"/>
	<path fill="#D6912A" d="M18.7,20.1c0.5-0.1,1.1-0.2,1.6-0.3C19.7,20.6,19.3,20.6,18.7,20.1z"/>
	<path fill="#E72928" d="M15.5,10.7c-0.3,0-0.5,0-0.8,0c-0.2-0.4-0.4-0.7-0.6-1.1C14.6,10,15.1,10.4,15.5,10.7z"/>
	<path fill="#7A5846" d="M18.1,19.1c0.8-0.3,0.9-0.2,0.8,0.5c-0.2,0-0.4-0.1-0.6-0.1C18.3,19.4,18.2,19.3,18.1,19.1z"/>
	<path fill="#A6E137" d="M16.8,9.2c-0.5-0.4-0.9-0.9-1.4-1.3c0.6-0.1,1.3-0.2,1.9-0.3c0.1,0.1,0.1,0.3,0.2,0.4
		c0.6,0.4,1.1,0.7,0.7,1.5c-0.4,0-0.7-0.1-1.1-0.1l0,0C16.9,9.3,16.9,9.3,16.8,9.2z"/>
	<path fill="#81B321" d="M19.5,8c0.1-0.2,0.1-0.4,0.2-0.6c0.3,0.3,0.5,0.6,0.8,1c0,0,0,0-0.1,0.1C20.1,8.3,19.8,8.2,19.5,8z"/>
	<path fill="#F4D72B" d="M20.4,8.4c0,0.1,0,0.1,0,0.2C20.4,8.6,20.4,8.5,20.4,8.4C20.4,8.5,20.4,8.4,20.4,8.4z"/>
	<path fill="#81B321" d="M13.1,6c0.6,0,1.3-0.1,1.9-0.1c0.8,0.1,1.6,0.2,2.4,0.3c-0.3,0.3-0.5,0.5-0.8,0.8c-0.9-0.2-1.9-0.4-2.8-0.6
		C13.6,6.4,13.4,6.2,13.1,6z"/>
	<path fill="#7CB31E" d="M19,13.9c-0.2-0.5-0.4-1-0.7-1.5c0.4-0.2,0.3-0.5,0.2-0.8c-0.2-0.4-0.4-0.8-0.5-1.2c0.3,0,0.6,0.1,0.8,0.1
		c0.3,1,0.4,1,1.3,1.1c0.3,0,0.5,0,0.8,0c0,0.5-0.1,1.1-0.1,1.6c-0.2,0-0.4,0-0.6,0C19.2,12.9,19.2,12.9,19,13.9z"/>
	<path fill="#E52327" d="M20.9,11.7c-0.3,0-0.5,0-0.8,0c-0.9,0-1-0.1-1.3-1.1c1,0,1.9-0.1,2.9-0.1c-0.1,0.4-0.2,0.8-0.3,1.1
		C21.2,11.6,21.1,11.7,20.9,11.7z"/>
	<path fill="#7A5846" d="M20.5,18.7c-0.2-0.2-0.3-0.4-0.5-0.6c0.2,0,0.5,0.1,0.7,0.1C20.7,18.4,20.6,18.5,20.5,18.7z"/>
	<path fill="#7A5846" d="M21.3,15.4c-0.2-0.1-0.4-0.2-0.6-0.3c0.1-0.2,0.2-0.3,0.4-0.5C21.1,14.9,21.2,15.1,21.3,15.4z"/>
	<path fill="#A8E438" d="M18,10.5c0.2,0.4,0.4,0.8,0.5,1.2c0.1,0.3,0.2,0.6-0.2,0.8c-0.6-0.6-1.2-1.3-1.8-1.9
		c0.1-0.2,0.2-0.3,0.3-0.5C17.2,10.2,17.6,10.3,18,10.5z"/>
	<path fill="#7A5846" d="M19.7,18c-0.2,0.2-0.3,0.3-0.4,0.4c-0.1-0.2-0.3-0.3-0.4-0.5c0-0.1,0.2-0.2,0.3-0.4
		C19.3,17.7,19.5,17.8,19.7,18z"/>
	<path fill="#7A5846" d="M20.7,14.1c-0.2,0.2-0.4,0.4-0.5,0.3c-0.2-0.1-0.3-0.2-0.5-0.4l0.2-0.3C20.2,13.8,20.4,13.9,20.7,14.1z"/>
	<path fill="#7A5846" d="M19.3,16.1c-0.2,0.2-0.4,0.4-0.5,0.3s-0.3-0.2-0.3-0.4c0-0.1,0.2-0.4,0.3-0.3C19,15.7,19.1,15.9,19.3,16.1z
		"/>
	<path fill="#7A5846" d="M17.8,15.2c-0.2,0.2-0.4,0.3-0.5,0.3c-0.1-0.1-0.3-0.2-0.3-0.4c0-0.1,0.2-0.2,0.2-0.4
		C17.4,14.9,17.6,15,17.8,15.2z"/>
	<path fill="#7A5846" d="M20.8,16.4c-0.2-0.1-0.4-0.2-0.6-0.3c0.1-0.1,0.1-0.2,0.2-0.4c0.2,0.1,0.4,0.3,0.6,0.4
		C20.9,16.2,20.9,16.3,20.8,16.4z"/>
	<path fill="#7A5846" d="M18.1,17.2c-0.2-0.1-0.4-0.2-0.7-0.3c0.1-0.1,0.2-0.3,0.2-0.4c0.2,0.1,0.4,0.3,0.6,0.4
		C18.2,17,18.2,17.1,18.1,17.2z"/>
	<path fill="#FCDB2E" d="M16.8,9.2c0.1,0,0.2,0.1,0.2,0.1C16.9,9.3,16.9,9.3,16.8,9.2z"/>
</g>
</svg>
