<?xml version="1.0" encoding="utf-8"?>
<!-- Generator: Adobe Illustrator 21.0.2, SVG Export Plug-In . SVG Version: 6.00 Build 0)  -->
<svg version="1.1" id="Layer_1" xmlns="http://www.w3.org/2000/svg" xmlns:xlink="http://www.w3.org/1999/xlink" x="0px" y="0px"
	 width="30px" height="30px" viewBox="0 0 30 30" enable-background="new 0 0 30 30" xml:space="preserve">
<g>
	<path fill="#FFFFFF" d="M5.7773,22.5674l-0.4971-0.4028C2.4014,19.8306,0.75,16.5347,0.75,13.1211C0.75,6.2998,7.1426,0.75,15,0.75
		s14.25,5.5498,14.25,12.3711S22.8574,25.4922,15,25.4922c-1.8052,0-3.5635-0.2891-5.2271-0.8594l-0.2979-0.1021l-6.791,3.4067
		L5.7773,22.5674z"/>
	<path fill="#CCCCCC" d="M15,1.5c7.4439,0,13.5,5.2132,13.5,11.6212S22.4439,24.7424,15,24.7424
		c-1.7213,0-3.3981-0.2756-4.9839-0.8192L9.4202,23.719l-0.5631,0.2825L4.581,26.1466l1.5269-2.6507l0.6385-1.1085l-0.9937-0.8055
		C3.0103,19.3591,1.5,16.3544,1.5,13.1212C1.5,6.7132,7.5561,1.5,15,1.5 M15,0C6.7157,0,0,5.8746,0,13.1212
		c0,3.8041,1.8513,7.2294,4.808,9.626l-4.021,6.9809l8.7428-4.3858c1.6949,0.581,3.5399,0.9002,5.4702,0.9002
		c8.2843,0,15-5.8746,15-13.1212C30,5.8746,23.2843,0,15,0L15,0z"/>
</g>
</svg>
