<?xml version="1.0" encoding="utf-8"?>
<!-- Generator: Adobe Illustrator 21.0.2, SVG Export Plug-In . SVG Version: 6.00 Build 0)  -->
<svg version="1.1" id="Layer_1" 
	 xmlns="http://www.w3.org/2000/svg" xmlns:xlink="http://www.w3.org/1999/xlink" x="0px" y="0px" width="30px" height="30px"
	 viewBox="0 0 30 30" enable-background="new 0 0 30 30" xml:space="preserve">

<g>
	<path fill="#FFFFFF" d="M3.7,20.7l-0.2-0.3c-1.8-2.1-2.7-4.6-2.7-7.3C0.8,6.3,7.1,0.8,15,0.8s14.2,5.5,14.2,12.4S22.9,25.5,15,25.5
		c-1.5,0-3.1-0.2-4.6-0.7l-0.3-0.1L2,28.4L3.7,20.7z"/>
	<path fill="#AAAAAA" d="M15,1.5c7.4,0,13.5,5.2,13.5,11.6S22.4,24.7,15,24.7c-1.5,0-2.9-0.2-4.4-0.6L10.1,24l-0.5,0.2l-6.5,2.9
		l1.3-5.9l0.2-0.7l-0.5-0.6c-1.7-2-2.6-4.3-2.6-6.8C1.5,6.7,7.6,1.5,15,1.5 M15,0C6.7,0,0,5.9,0,13.1c0,2.9,1.1,5.6,2.9,7.8L1,29.3
		l-0.3,0.4L1,29.6l0,0l9.3-4.1c1.5,0.4,3.1,0.7,4.8,0.7c8.3,0,15-5.9,15-13.1C30,5.9,23.3,0,15,0L15,0z"/>
</g>
<g>
	<path fill="#EC9C00" d="M14.7,6.2c0,1,0,2,0,3c0,0.2,0,0.4,0,0.5c-0.2,0.9,0.1,1.2,1,1.1c0.5-0.1,0.9,0.1,1.4,0.1
		c-0.3,0-0.6,0.1-0.8,0.1c-0.5,0.3-1.6-0.1-1.5,0.9c0.1,0.8,1.1,0.6,1.7,0.7c0.2,0,0.4,0.1,0.4-0.2c0-0.2-0.2-0.3-0.4-0.3
		c-0.4,0-1.3-0.1-1.2-0.3c0.2-0.6,0.9-0.3,1.4-0.2c0.2,0,0.5,0,0.7,0.1c0.4,0.1,1,0.2,0.9,0.7c0,0.6-0.6,0.7-1.1,0.7
		c-1,0-2-0.1-3.1-0.1c-0.5,0-0.9,0.1-1,0.7c-0.1,0.6,0.5,0.7,0.9,0.8c2,0.2,3.9,0.1,5.7-0.8c0.2-0.1,0.6-0.1,0.4-0.4
		c-0.1-0.3-0.4-0.1-0.6,0c-1.7,0.7-3.4,1.1-5.2,0.8c-0.3,0-0.7-0.1-0.7-0.4c0-0.4,0.5-0.3,0.8-0.3c0.5,0,1.1,0.1,1.6,0.1
		c0.9,0,1.9,0.2,2.6-0.7c0.1,0.1,0.2,0.2,0.3,0.3c0.2-0.1,0.5-0.2,0.7-0.3c0.6-0.2,1.3-0.5,1.6,0.1c0.3,0.6-0.5,0.9-1.1,1.1
		c-2.4,1-5,0.9-7.5,0.7c-1-0.1-2-0.4-2.8-0.9c-0.3-0.2-0.7-0.4-0.3-0.8c0.1-0.1,0.6-0.1,0.3-0.4c-0.2-0.2-0.5,0-0.6,0.2
		c-0.5,0.5-0.2,0.9,0.2,1.3c0.6,0.5,1.3,0.8,2,0.9c2.3,0.5,4.7,0.3,7,0.1c0.1,0,0.2-0.1,0.3-0.1c0.1,0,0.3,0,0.4,0s0.2,0,0.3,0v0.1
		c-0.1,0-0.2,0-0.2,0c-0.1,0-0.2,0.1-0.3,0.1c-3.2,0.7-6.4,0.6-9.5-0.6C8.6,14.3,7.8,14,7.5,13c1-1.3,2.5-1.7,4-2
		c0.2,0.7-0.5,0.4-0.7,0.6c-0.1,0.1-0.3,0.2-0.4,0.4c0.1,0,0.2,0.2,0.3,0.1c0.5-0.5,1.3,0,1.9-0.6c0.3-0.3,0.9-0.3,1.3-0.1
		c0.1,0,0.2,0.2,0.2,0.3c-0.2,0.4-0.7,0.4-1,0.5c-0.4,0.1-0.8,0.1-1.1,0.2c-0.5,0.1-1,0.2-1,0.8s0.5,0.8,1,0.9
		c0.2,0,0.6,0.2,0.6-0.2c0-0.3-0.3-0.2-0.6-0.2s-0.6-0.1-0.7-0.4c0-0.4,0.3-0.4,0.6-0.5c0.7-0.2,1.4-0.3,2.1-0.5
		c0.3-0.1,0.6-0.3,0.6-0.7S14.3,11.1,14,11s-0.6-0.2-1-0.2c0.7-0.1,1.7,0.1,1.3-1.3c0-0.2,0-0.4,0-0.5c0-1.1,0-2.2,0-3.2
		C14.3,6,14.5,6.1,14.7,6.2z"/>
	<path fill="#E5EAEE" d="M23.1,14.1c0.1,3.2-2.9,6.3-6.4,6.8C15.8,21,15,21,14.1,21c-0.2-0.1-0.4-0.2-0.5-0.3
		c-1.7-0.5-2.2-1.8-1.5-3.4h0.1c1.8,0.2,3.7,0.2,5.5,0C19.9,17,22.1,16.5,23.1,14.1z"/>
	<path fill="#E5EAEE" d="M19.1,15.2c0.1,0,0.2,0,0.2,0c0.1,0,0.2-0.1,0.3-0.1c0.1,0,0.2,0,0.3,0C20,15,20,15,20.1,15h0.1
		c0.1,0,0.2-0.1,0.3-0.1h0.1c0.1,0,0.1-0.1,0.2-0.1c0.7-0.3,1.5-0.6,1.7-1.5c0.3-0.4,0.2-0.7,0-1.1c-0.6-1-1.7-1.4-2.7-1.7
		c-1.6-0.5-3.3-0.7-5.1-0.7c0-0.2,0-0.4,0-0.5c2.6,0,5.1,0.3,7.4,1.8c0.7,0.4,1.1,1.1,1.1,1.9c0,0.1-0.1,0.2-0.1,0.3v0.1v0.1
		c0,0.1-0.1,0.1-0.1,0.2v0.1l0,0c-0.5,0.7-1.3,1.2-2.1,1.5c-2,0.9-4.1,1.1-6.2,1.1c-0.1,0-0.2,0-0.3,0c-0.2,0-0.4,0-0.5,0
		c-0.4,0-0.8-0.1-1.1-0.1c-2.3-0.4-4.6-0.7-6-3c-0.1-1.5,0.8-2.4,2.9-3.2c0.7-0.2,1.4-0.4,2-0.6c0,0.2,0,0.4,0,0.6
		c-1.1,0.3-2.2,0.5-3.1,1.1c-0.7,0.4-1.6,0.8-1.2,2c0.3,1,1.1,1.3,1.9,1.6c3.1,1.2,6.3,1.3,9.5,0.6C18.9,15.3,19,15.3,19.1,15.2z"/>
	<path fill="#CED7DC" d="M12.1,17.3c-0.7,1.6-0.1,2.9,1.5,3.4v0.1c-3.5-0.1-6.9-3.5-6.7-6.7C7.9,16.5,10,16.9,12.1,17.3z"/>
	<path fill="#F36C60" d="M14.7,16.3c2.1,0,4.2-0.2,6.2-1.1c0.8-0.4,1.5-0.8,2.1-1.5l0.1,0.1c0,0.1,0,0.2,0,0.3
		c-1,2.4-3.1,2.9-5.3,3.2c-1.8,0.2-3.7,0.2-5.5,0c0.5-0.5,1-0.7,1.6-0.8c0.2,0,0.4,0,0.6,0C14.5,16.4,14.6,16.4,14.7,16.3z"/>
	<path fill="#EC9C00" d="M11.7,10c0-0.2,0-0.4,0-0.6c0.1-1.5-0.1-2.9,0.2-4.4c0.1-0.2,0.3-0.3,0.4-0.5l0,0h0.1h0.1
		c0.1,0,0.2,0,0.3,0h0.1L13,4.6c-0.1,0-0.2,0.1-0.3,0.1l-0.1,0.1l0,0c-0.1,0.1-0.1,0.2-0.2,0.3c-0.5,1.3-0.2,2.6-0.2,4
		c0,0.2,0,0.4,0,0.6c0,0.4,0.1,0.8,0.1,1.1c0.4,0.6,0.9,0.1,1.4,0.2c0.3,0.1,0.6,0.2,0.6,0.6c0,0.3-0.3,0.6-0.6,0.7
		c-0.7,0.2-1.4,0.3-2.1,0.5c-0.3,0.1-0.7,0.1-0.6,0.5c0,0.3,0.4,0.3,0.7,0.4c0.2,0,0.6,0,0.6,0.2c0,0.3-0.4,0.2-0.6,0.2
		c-0.5-0.1-1-0.3-1-0.9c0-0.5,0.5-0.7,1-0.8c0.4,0,0.8-0.1,1.1-0.2c0.4-0.1,0.8-0.1,1-0.5c0-0.1-0.1-0.3-0.2-0.3
		c-0.4-0.2-1-0.2-1.3,0.1c-0.6,0.6-1.4,0.1-1.9,0.6c0,0-0.2-0.1-0.3-0.1c0.2-0.1,0.3-0.2,0.4-0.4c0.2-0.2,0.9,0.1,0.7-0.6
		C11.9,10.9,11.6,10.4,11.7,10z"/>
	<path fill="#DF3737" d="M13.9,16.5c-0.6,0.1-1.2,0.3-1.6,0.8h-0.1C10.1,16.9,8,16.5,7,14.2c0-0.3-0.1-0.7-0.1-1
		c1.3,2.3,3.7,2.6,6,3c0.4,0.1,0.8,0.1,1.1,0.1C13.9,16.4,13.9,16.4,13.9,16.5z"/>
	<path fill="#785748" d="M19,6.7c1.2,0.5,2.6,0.6,3.7,1.3c-0.2,0.4-0.5,0.4-0.8,0.2c-1.9-0.7-3.8-1.3-5.7-1.9
		c-0.8-0.3-1.5-0.3-2-0.8c0.7-0.1,1.3,0.2,1.9,0.4c0.1,0,0.2,0,0.3,0c0.1,0,0.1,0.1,0.2,0.1h0.1h0.1h0.1H17l0,0
		c0.1,0,0.1,0.1,0.2,0.1h0.1h0.1h0.1h0.1h0.1h0.1c0.1,0,0.1,0.1,0.2,0.1h0.1h0.1h0.1c0.2,0.1,0.5,0.2,0.7,0.3c0.1,0,0.2,0,0.2,0
		C18.9,6.6,18.9,6.6,19,6.7z"/>
	<path fill="#795748" d="M14.7,4.9c2.7,0.4,5.4,0.8,8.2,1.2c0.1,0,0.2,0.1,0.3,0.2C23,6.4,23,6.7,22.6,6.7c-2.7-0.5-5.3-1-8-1.5
		c-0.1-0.1-0.2-0.1-0.2-0.2C14.5,5,14.6,4.9,14.7,4.9z"/>
	<path fill="#8A6859" d="M14.7,5.2c2.7,0.5,5.3,1,8,1.5c0.3,0,0.3-0.3,0.5-0.4c0.2,0.8,0,1-0.9,0.8c-0.9-0.3-1.9-0.4-2.8-0.6
		c-0.1,0-0.3-0.1-0.4-0.1s-0.2,0-0.2,0c-0.3-0.1-0.7-0.2-1-0.2h-0.1h-0.1c-0.1,0-0.2-0.1-0.3-0.1h-0.1h-0.1c-0.1,0-0.1,0-0.2,0l0,0
		L16.9,6h-0.1l-0.1,0.1c-0.1,0-0.1-0.1-0.2-0.1s-0.2,0-0.3,0c-0.6-0.2-1.2-0.5-1.9-0.4l0,0C14.3,5.4,14.5,5.3,14.7,5.2z"/>
	<path fill="#8B695A" d="M14.2,5.5C14.7,6,15.4,6,16.1,6.3C18,7,19.9,7.6,21.8,8.2c0.4,0.1,0.7,0.1,0.8-0.2c0.2,0.8-0.1,1-0.9,0.7
		c-2.3-0.9-4.7-1.6-7.1-2.5C14.4,6.1,14.2,6,14.1,6S14,6,13.9,5.9C14,5.7,14.1,5.6,14.2,5.5C14.1,5.4,14.2,5.5,14.2,5.5z"/>
	<path fill="#805E4F" d="M12.8,4.9c0.1,0,0.2-0.1,0.3-0.1V4.7V4.6c0.1,0,0.2,0,0.3,0c0.2,0,0.3,0.1,0.5,0.1c0.1,0,0.1,0,0.2,0v0.1
		H14l-0.1,0.1l0,0L13.8,5l0,0c0,0.1-0.1,0.1-0.1,0.2l0,0C13.4,5.1,13.1,5,12.8,4.9L12.8,4.9C12.7,5,12.7,5,12.8,4.9z"/>
	<path fill="#826150" d="M12.2,4.6c-0.1,0.2-0.3,0.3-0.4,0.5c-0.2-0.1-0.2-0.4-0.1-0.5C11.8,4.5,12.1,4.6,12.2,4.6z"/>
	<path fill="#DFD7D3" d="M17.9,6.2c0.3,0.1,0.7,0.2,1,0.2c-0.1,0-0.2,0.1-0.3,0.1C18.4,6.4,18.1,6.3,17.9,6.2
		C17.9,6.2,17.9,6.2,17.9,6.2z"/>
	<path fill="#85624F" d="M14,4.9L14,4.9c0.2-0.1,0.5,0,0.7,0c-0.1,0-0.2,0.1-0.3,0.1C14.3,5,14.2,4.9,14,4.9z"/>
	<path fill="#DFE5E8" d="M13.6,20.9v-0.1c0.2,0.1,0.4,0.2,0.5,0.3C14,21,13.8,20.9,13.6,20.9z"/>
	<path fill="#EDE9E6" d="M19.1,6.4c0.1,0,0.3,0.1,0.4,0.1C19.4,6.5,19.2,6.5,19.1,6.4z"/>
	<path fill="#85624F" d="M13.8,4.8c-0.2,0-0.3-0.1-0.5-0.1C13.5,4.7,13.6,4.7,13.8,4.8z"/>
	<path fill="#E79898" d="M23,13.6c0-0.1,0.1-0.1,0.1-0.2h0.1c0,0.1-0.1,0.2-0.1,0.3H23C23,13.7,23,13.6,23,13.6z"/>
	<path fill="#E8C7C7" d="M23.1,13.2c0-0.1,0.1-0.2,0.1-0.3c0,0.1,0,0.2,0,0.3H23.1z"/>
	<path fill="#B7A59D" d="M12.9,4.7h-0.1V4.6c0.1,0,0.2,0.1,0.3,0.1v0.1C13,4.7,13,4.7,12.9,4.7z"/>
	<path fill="#A68C80" d="M12.8,4.5L12.8,4.5c-0.1,0.1-0.2,0.1-0.3,0.1V4.5C12.6,4.5,12.7,4.5,12.8,4.5z"/>
	<path fill="#F36C60" d="M23.1,13.8L23,13.7l0,0h0.1h0.1C23.1,13.8,23.1,13.8,23.1,13.8z"/>
	<path fill="#785647" d="M12.4,4.6h-0.1H12.4C12.4,4.6,12.4,4.6,12.4,4.6z"/>
	<path fill="#EDE9E6" d="M19,6.7c-0.1,0-0.1-0.1-0.2-0.1C18.9,6.6,18.9,6.6,19,6.7z"/>
	<path fill="#876349" d="M12.4,4.6L12.4,4.6l0.1-0.1v0.1H12.4z"/>
	<path fill="#ECA9A5" d="M23.1,13.2h0.1v0.1h-0.1V13.2z"/>
	<path fill="#EE978F" d="M23.1,13.3h0.1v0.1h-0.1C23.1,13.4,23.1,13.3,23.1,13.3z"/>
	<path fill="#EC9C00" d="M18.7,12.9c-0.7,0.9-1.7,0.7-2.6,0.7c-0.5,0-1.1-0.1-1.6-0.1c-0.3,0-0.8-0.1-0.8,0.3c0,0.3,0.4,0.3,0.7,0.4
		c1.8,0.2,3.5-0.1,5.2-0.8c0.2-0.1,0.5-0.4,0.6,0c0.1,0.3-0.3,0.3-0.4,0.4c-1.8,0.9-3.8,1-5.7,0.8c-0.4,0-0.9-0.2-0.9-0.8
		c0.1-0.6,0.5-0.7,1-0.7c1,0,2,0.1,3.1,0.1c0.5,0,1-0.1,1.1-0.7c0-0.6-0.5-0.6-0.9-0.7c-0.2-0.1-0.5,0-0.7-0.1
		c-0.5-0.1-1.2-0.3-1.4,0.2c-0.1,0.3,0.7,0.3,1.2,0.3c0.2,0,0.4,0,0.4,0.3c0,0.2-0.2,0.2-0.4,0.2c-0.7-0.1-1.6,0.1-1.7-0.7
		c-0.1-0.9,1-0.6,1.5-0.9c0.3,0,0.7,0.1,1,0.1C18.2,11.5,19.2,11.5,18.7,12.9z"/>
	<path fill="#EC9C00" d="M18.4,15.2c-2.3,0.2-4.7,0.4-7-0.1c-0.7-0.2-1.5-0.4-2-0.9c-0.4-0.3-0.7-0.7-0.2-1.3
		c0.2-0.2,0.4-0.4,0.6-0.2c0.3,0.3-0.2,0.3-0.3,0.4c-0.4,0.4,0.1,0.6,0.3,0.8c0.9,0.5,1.8,0.8,2.8,0.9c2.6,0.2,5.1,0.4,7.5-0.7
		c0.5-0.2,1.3-0.5,1.1-1.1c-0.3-0.6-1-0.3-1.6-0.1c-0.2,0.1-0.5,0.2-0.7,0.3c0.3-0.8,1.7-1.1,2.8-0.5c0.2,1.1-0.4,1.5-1.2,1.9
		l-0.1,0.1h-0.1c-0.1,0-0.1,0.1-0.2,0.1s-0.2,0-0.3,0l-0.1,0.1c-0.1,0-0.2,0-0.3,0c-0.1,0-0.2,0.1-0.3,0.1c-0.1,0-0.3,0-0.4,0
		C18.6,15.1,18.5,15.2,18.4,15.2z"/>
	<path fill="#BDC2CE" d="M14.7,9.7c1.7,0,3.4,0.2,5.1,0.7c0.1,0.4,0.2,0.8,0.3,1.1c-1-0.2-1.9-0.4-2.9-0.6c-0.5,0-1-0.2-1.4-0.1
		C14.8,11,14.5,10.6,14.7,9.7z"/>
	<path fill="#BEC2CE" d="M11.7,10c0,0.4,0.2,0.9-0.3,1.2c-1.5,0.3-2.9,0.7-4,2C7,12,7.9,11.6,8.6,11.1C9.5,10.5,10.6,10.3,11.7,10z"
		/>
	<path fill="#EC9D03" d="M17.2,11c1,0.2,1.9,0.4,2.9,0.6c0.6,0.3,1.1,0.6,1.7,0.9c0,0.1,0,0.1,0,0.2l0,0c-1.1-0.6-2.5-0.3-2.8,0.5
		c-0.1-0.1-0.2-0.2-0.3-0.3c0.5-1.3-0.5-1.4-1.4-1.6c-0.3-0.1-0.7-0.1-1-0.1C16.6,11.1,16.9,11,17.2,11z"/>
	<path fill="#BEC3CD" d="M12.4,11c0-0.4-0.1-0.8-0.1-1.1c0.4,0,0.7,0,1.1,0c0,0.2,0.2,0.4,0.3,0.3c0.1-0.1,0.2-0.3,0.2-0.4
		c0.1,0,0.2,0,0.2,0c0.4,1.3-0.6,1.1-1.3,1.3C12.6,11,12.5,11,12.4,11z"/>
	<path fill="#FEFDFC" d="M14,5.9c0.1,0,0.1,0,0.2,0.1c0,1.1,0,2.2,0,3.2c-0.1,0-0.2,0-0.2,0C13.9,8.1,14,7,14,5.9z"/>
	<path fill="#EBA210" d="M12.4,11c0.1,0,0.3,0,0.4,0c0.3,0.1,0.6,0.2,1,0.2C13.3,11.1,12.7,11.6,12.4,11z"/>
	<path fill="#E6EBEF" d="M13.9,9.2c0.1,0,0.2,0,0.2,0c0,0.2,0,0.4,0,0.5c-0.1,0-0.2,0-0.2,0C13.9,9.5,13.9,9.4,13.9,9.2z"/>
	<path fill="#ECA618" d="M19.1,15.1c0.1,0,0.2-0.1,0.3-0.1v0.1l0,0C19.3,15.1,19.2,15.1,19.1,15.1z"/>
	<path fill="#ECA618" d="M18.4,15.2c0.1,0,0.2-0.1,0.3-0.1C18.6,15.1,18.5,15.2,18.4,15.2z"/>
	<path fill="#ECA618" d="M19.7,15.1c-0.1,0-0.2,0.1-0.3,0.1v-0.1l0,0C19.5,15.1,19.6,15.1,19.7,15.1z"/>
	<path fill="#ECA618" d="M19.1,15.2c-0.1,0-0.2,0.1-0.3,0.1C18.9,15.3,19,15.3,19.1,15.2z"/>
	<path fill="#99A8AD" d="M21.7,12.5c-0.6-0.3-1.1-0.6-1.7-0.9c-0.1-0.4-0.2-0.8-0.3-1.1c1,0.3,2.1,0.7,2.7,1.7
		c0.2,0.3,0.3,0.7,0,1.1c-0.2-0.2-0.4-0.4-0.6-0.6C21.8,12.5,21.8,12.5,21.7,12.5z"/>
	<path fill="#EA9E07" d="M21.9,12.6c0.2,0.2,0.4,0.4,0.6,0.6c-0.3,0.9-1,1.2-1.7,1.5c-0.1,0-0.1,0.1-0.2,0.1h-0.1
		c-0.1,0-0.2,0-0.3,0l0,0v-0.1h0.1l0.1-0.1c0.8-0.4,1.5-0.9,1.2-1.9l0,0C21.8,12.6,21.8,12.6,21.9,12.6z"/>
	<path fill="#EC9D00" d="M19.7,15.1c-0.1,0-0.2,0-0.3,0V15c0.1,0,0.2,0,0.3,0l0.1-0.1c0.1,0,0.2,0,0.3,0h0.1l0,0V15h-0.1
		c-0.1,0-0.1,0-0.2,0.1C19.8,15.1,19.8,15.1,19.7,15.1z"/>
	<path fill="#E9544E" d="M13.9,16.5v-0.1c0.2,0,0.4,0,0.5,0v0.1C14.2,16.5,14.1,16.5,13.9,16.5z"/>
	<path fill="#EAA61E" d="M20.2,14.9v-0.1c0.1,0,0.2,0,0.3,0C20.4,14.9,20.3,14.9,20.2,14.9z"/>
	<path fill="#F0645A" d="M14.4,16.5v-0.1c0.1,0,0.2,0,0.3,0C14.6,16.4,14.5,16.4,14.4,16.5z"/>
	<path fill="#ECA412" d="M20.6,14.8c0.1,0,0.1-0.1,0.2-0.1C20.7,14.7,20.7,14.8,20.6,14.8z"/>
	<path fill="#EAA61E" d="M19.9,15.1C20,15,20,15,20.1,15C20,15,20,15,19.9,15.1z"/>
	<path fill="#F2776D" d="M23,13.7h-0.1v-0.1C23,13.6,23,13.7,23,13.7z"/>
	<path fill="#FEFDFC" d="M12.2,9.3c0.1-1.3-0.3-2.7,0.2-4l0,0c0,1.3,0,2.7,0,4C12.4,9.3,12.3,9.3,12.2,9.3z"/>
	<path fill="#E7E9E9" d="M12.2,9.3c0.1,0,0.2,0,0.2,0c0,0.3,0.1,0.4,0.4,0.4h0.1c0.1,0,0.2,0,0.3,0v0.1c-0.4,0-0.7,0-1.1,0
		C12.2,9.7,12.2,9.5,12.2,9.3z"/>
	<path fill="#85624F" d="M12.6,5.1c0.3,0.1,0.6,0.2,0.8,0.3c0,0.1-0.1,0.2-0.1,0.3c-0.1,0-0.2,0-0.3-0.1c-0.2-0.1-0.4-0.2-0.6-0.3
		l0,0C12.5,5.2,12.6,5.2,12.6,5.1z"/>
	<path fill="#85624F" d="M12.8,4.9L12.7,5C12.7,5,12.7,5,12.8,4.9z"/>
	<path fill="#85624F" d="M12.9,4.7H13v0.1C13,4.8,13,4.7,12.9,4.7z"/>
	<path fill="#9C8074" d="M16.1,5.9c0.1,0,0.2,0,0.3,0C16.3,5.9,16.2,5.9,16.1,5.9z"/>
	<path fill="#C3B2AB" d="M17.3,6c0.1,0,0.2,0.1,0.3,0.1l0,0C17.5,6.1,17.5,6.1,17.3,6L17.3,6l-0.1,0.1C17.3,6.1,17.3,6.1,17.3,6z"/>
	<path fill="#F2EFED" d="M17.9,6.2L17.9,6.2l-0.1,0.1V6.2C17.8,6.1,17.8,6.1,17.9,6.2z"/>
	<path fill="#F8F7F6" d="M17.7,6.2L17.7,6.2l-0.1,0.1h-0.1V6.2l0,0C17.6,6.2,17.7,6.2,17.7,6.2z"/>
	<path fill="#C8BAB3" d="M17.6,6.2L17.6,6.2c-0.1,0.1-0.1,0-0.2,0C17.5,6.2,17.5,6.2,17.6,6.2z"/>
	<path fill="#DBD2CD" d="M17.3,6L17.3,6l-0.1,0.1h-0.1V6C17.2,6,17.3,6,17.3,6z"/>
	<path fill="#D6CBC6" d="M17.2,6C17.2,6.1,17.2,6.1,17.2,6c0,0.1-0.1,0.1-0.1,0.1H17V6C17.1,6,17.1,6,17.2,6z"/>
	<path fill="#A68E83" d="M17,6L17,6h-0.1H17z"/>
	<path fill="#AD958A" d="M16.8,5.9L16.9,6L16.8,5.9L16.8,5.9z"/>
	<path fill="#BFACA4" d="M16.8,5.9L16.8,5.9L16.7,6h-0.1V5.9C16.7,5.9,16.7,5.9,16.8,5.9z"/>
	<path fill="#A68E83" d="M16.6,5.9L16.6,5.9L16.5,6L16.6,5.9z"/>
	<path fill="#EC9C00" d="M13.4,5.6c0-0.1,0.1-0.2,0.1-0.3l0,0c0-0.1,0.1-0.1,0.1-0.2l0,0L13.7,5l0,0l0.1-0.1h0.1
		C14,4.9,14.2,5,14.3,5c0.1,0.1,0.2,0.1,0.2,0.2c-0.2,0.1-0.3,0.2-0.5,0.2c0.1,0.2,0,0.3,0,0.5c0,1.1-0.1,2.2-0.1,3.3
		c0,0.2,0,0.4,0,0.6c-0.1,0.1-0.1,0.4-0.2,0.4c-0.2,0.1-0.3-0.1-0.3-0.3V9.8c0-0.1,0-0.3,0-0.4C13.3,8.1,13.4,6.9,13.4,5.6z"/>
	<path fill="#85624F" d="M13.6,5.2c0,0.1-0.1,0.1-0.1,0.2C13.5,5.3,13.6,5.2,13.6,5.2z"/>
	<path fill="#85624F" d="M13.7,5l-0.1,0.1C13.6,5.1,13.7,5.1,13.7,5z"/>
	<path fill="#85624F" d="M13.9,4.9L13.8,5C13.8,5,13.8,4.9,13.9,4.9z"/>
	<path fill="#ECA412" d="M20.5,14.6l-0.1,0.1C20.4,14.6,20.4,14.6,20.5,14.6z"/>
	<path fill="#ECA412" d="M20.2,14.8h-0.1c0.1,0,0.1-0.1,0.2-0.1C20.2,14.7,20.2,14.8,20.2,14.8z"/>
	<path fill="#EAA61E" d="M19.8,14.8l-0.1,0.1C19.7,14.9,19.7,14.9,19.8,14.8z"/>
	<path fill="#EC9C00" d="M21.9,12.6c-0.1,0-0.1,0-0.2,0c0-0.1,0-0.1,0-0.2C21.8,12.5,21.8,12.5,21.9,12.6z"/>
	<path fill="#EC9C00" d="M12.5,5.3c0.2,0.1,0.4,0.2,0.6,0.3c0,1.2,0,2.5,0,3.7c0,0.1,0,0.2,0,0.3L13,9.7c-0.3,0-0.4-0.1-0.4-0.4
		C12.5,8,12.5,6.7,12.5,5.3z"/>
	<path fill="#E5EAEE" d="M13,9.6c0-0.1,0-0.2,0-0.3c0.1,0,0.2,0,0.2,0c0,0.1,0,0.3,0,0.4c-0.1,0-0.2,0-0.3,0C13,9.7,13,9.6,13,9.6z"
		/>
	<path fill="#BEC3CD" d="M13,9.6v0.1h-0.1C13,9.7,13,9.6,13,9.6z"/>
	<path fill="#FDFCFB" d="M13.3,9.3c-0.1,0-0.2,0-0.2,0c0-1.2,0-2.5,0-3.7c0.1,0,0.2,0,0.3,0.1C13.4,6.9,13.3,8.1,13.3,9.3z"/>
</g>
</svg>
