<?xml version="1.0" encoding="utf-8"?>
<!-- Generator: Adobe Illustrator 21.0.2, SVG Export Plug-In . SVG Version: 6.00 Build 0)  -->
<svg version="1.1" id="Layer_1" xmlns="http://www.w3.org/2000/svg" xmlns:xlink="http://www.w3.org/1999/xlink" x="0px" y="0px"
	 width="25px" height="24px" viewBox="0 0 25 24" style="enable-background:new 0 0 25 24;" xml:space="preserve">
<title>28 - Noodles (Solid)</title>
<desc>Created with Sketch.</desc>
<g>
	<g>
		<path d="M6.1,5.1c0,0,0,0.1,0,0.1c0,0,0,0.1,0,0.1c0,0,0,0.1,0.1,0.1c0,0.1,0.1,0.1,0.1,0.2c0,0,0.1,0.1,0.1,0.1
			c0.1,0.1,0.1,0.1,0.2,0.1c0,0,0.1,0,0.1,0.1C6.9,6,7,6,7.1,6h0l0,0h16c0.6,0,1-0.4,1-1c0-0.6-0.4-1-1-1h-7.9l8.1-2
			c0.5-0.1,0.9-0.7,0.7-1.2c-0.1-0.5-0.7-0.9-1.2-0.7l-16,4c0,0,0,0-0.1,0c-0.1,0-0.1,0.1-0.2,0.1c-0.1,0-0.1,0.1-0.1,0.1
			c-0.1,0-0.1,0.1-0.1,0.1c0,0.1-0.1,0.1-0.1,0.2c0,0.1,0,0.1-0.1,0.2c0,0.1,0,0.1,0,0.2c0,0,0,0,0,0.1C6.1,5.1,6.1,5.1,6.1,5.1"/>
		<path d="M12.1,22c-3.9,0-7.3-2.2-8.9-5.6c2.3,1,5.6,1.6,8.9,1.6s6.6-0.5,8.9-1.6C19.4,19.8,16,22,12.1,22 M6.1,12h1
			c0.6,0,1,0.4,1,1c0,0.6-0.4,1-1,1h-1c-0.6,0-1-0.4-1-1C5.1,12.5,5.5,12,6.1,12 M11.1,13h1c0.6,0,1,0.4,1,1c0,0.6-0.4,1-1,1h-1
			c-0.6,0-1-0.4-1-1C10.1,13.5,10.5,13,11.1,13 M15.1,11h1c0.6,0,1,0.4,1,1c0,0.6-0.4,1-1,1h-1c-0.6,0-1-0.4-1-1
			C14.1,11.5,14.5,11,15.1,11 M12.1,8c-6,0-12,1.7-12,5c0,0.3,0.1,0.6,0.2,0.9C1.2,19.7,6.2,24,12.1,24S23,19.7,23.9,13.9
			c0.1-0.3,0.2-0.6,0.2-0.9C24.1,9.7,18.1,8,12.1,8"/>
	</g>
</g>
</svg>
