<?xml version="1.0" encoding="utf-8"?>
<!-- Generator: Adobe Illustrator 21.0.2, SVG Export Plug-In . SVG Version: 6.00 Build 0)  -->
<svg version="1.1" id="Layer_1" xmlns="http://www.w3.org/2000/svg" xmlns:xlink="http://www.w3.org/1999/xlink" x="0px" y="0px"
	 width="65.9px" height="63.8px" viewBox="0 0 65.9 63.8" style="enable-background:new 0 0 65.9 63.8;" xml:space="preserve">
<g>
	<g>
		<g>
			<path d="M9.8,13.3C3,21,0,30.7,0.7,40.2l63.7,21.9l0.1-0.1l0.1-0.1L35.5,1.1C26,1.6,16.6,5.6,9.8,13.3z M58.9,57
				C58.9,57,58.9,57.1,58.9,57L8.1,39.7c-0.5-7.5,1.9-15.3,7.3-21.3c5.4-6.1,12.8-9.4,20.4-9.7L58.9,57C59,56.9,59,57,58.9,57z"/>
		</g>
		<g>
			<path d="M64.5,62.6l-0.2-0.1l-64-22v-0.2c-0.7-10.1,2.5-19.7,9.2-27.2l0,0c6.6-7.5,15.8-11.8,26-12.4h0.2l0.1,0.2L65.1,62
				L64.5,62.6z M1,40l63,21.7L35.3,1.5c-9.8,0.6-18.8,4.9-25.2,12.1l0,0C3.6,20.8,0.4,30.2,1,40z M58.8,57.6l-0.2-0.3L7.8,40v-0.2
				C7.3,31.9,10,24,15.2,18.2c5.3-6,12.7-9.5,20.6-9.8H36l23.2,48.3l0.2,0.1l-0.1,0.6h-0.2L58.8,57.6z M8.5,39.5l49.7,16.9L35.5,9.1
				c-7.7,0.4-14.7,3.8-19.9,9.5C10.7,24.2,8,31.8,8.5,39.5z"/>
			<path d="M64.5,62.9l-0.4-0.2L0,40.7v-0.4c-0.7-10.2,2.6-19.9,9.3-27.4C15.9,5.5,25.2,1.1,35.5,0.5l0.4,0L36,0.8l29.4,61.3
				L64.5,62.9z M0.5,40.3l63.9,22l0.3-0.3L35.5,1h0c-10.2,0.6-19.4,5-25.8,12.3C3.1,20.6-0.1,30.2,0.5,40.3L0.5,40.3z M64.5,62.1
				L0.8,40.2l0-0.2c-0.6-9.9,2.6-19.4,9.2-26.6C16.4,6.2,25.4,1.9,35.3,1.3l0.2,0l0.1,0.2L64.5,62.1z M1.2,39.8l62.3,21.5L35.1,1.8
				c-9.7,0.6-18.5,4.9-24.9,12C3.9,20.8,0.7,30.1,1.2,39.8z M58.7,57.9l-0.3-0.4L7.5,40.2v-0.4C7,31.8,9.8,23.9,15,18
				c5.4-6.1,12.7-9.6,20.8-9.9h0.4l0.1,0.1l23.2,48.2l0.3,0.1l-0.2,1h-0.3L58.7,57.9z M8,39.8l50.7,17.3l0.1,0.2l0.2-0.1h0.1l0-0.2
				L59,56.9L35.8,8.6h0c-7.9,0.3-15.1,3.8-20.4,9.7C10.2,24.1,7.6,31.9,8,39.8L8,39.8z M58.7,56.8l-0.6-0.2l-49.9-17l0-0.2
				c-0.5-7.6,2.1-15.3,7.2-21.1c5.3-5.8,12.4-9.2,20.1-9.6l0.2,0L35.7,9L58.7,56.8z M8.7,39.3l49,16.7L35.3,9.4
				c-7.5,0.4-14.4,3.8-19.6,9.4C10.9,24.4,8.3,31.9,8.7,39.3z"/>
		</g>
	</g>
	<g>
		<g>
			<circle cx="39.8" cy="40.5" r="6.9"/>
		</g>
	</g>
	<g>
		<g>
			<circle cx="31.7" cy="19.7" r="5.9"/>
		</g>
	</g>
	<g>
		<g>
			<circle cx="22.2" cy="33.8" r="5.8"/>
		</g>
	</g>
</g>
</svg>
