<?xml version="1.0" encoding="utf-8"?>
<!-- Generator: Adobe Illustrator 21.0.2, SVG Export Plug-In . SVG Version: 6.00 Build 0)  -->
<svg version="1.1" id="Layer_1" xmlns="http://www.w3.org/2000/svg" xmlns:xlink="http://www.w3.org/1999/xlink" x="0px" y="0px"
	 width="60px" height="40px" viewBox="0 0 60 40" enable-background="new 0 0 60 40" xml:space="preserve">
<g>
	<path fill="#FFFFFF" d="M16.748,39c-1.6543,0-3-1.3457-3-3v-9.252c0-2.7568-2.2432-5-5-5h-0.626
		c-0.7256,0-1.2886-0.2363-1.5854-0.667c-0.2969-0.4297-0.3184-1.04-0.061-1.7188l5.7896-15.2676C12.9009,2.417,14.9541,1,16.748,1
		H43.252c1.7939,0,3.8467,1.4175,4.4834,3.0947l5.79,15.2676c0.2568,0.6787,0.2344,1.2891-0.0625,1.7197
		c-0.2969,0.4297-0.8594,0.666-1.585,0.666h-0.626c-2.7568,0-5,2.2432-5,5V36c0,1.6543-1.3457,3-3,3H16.748z"/>
	<path fill="#CCCCCC" d="M43.2519,2c1.3709,0,3.0621,1.1674,3.5482,2.4493l5.7895,15.2678
		c0.1571,0.4143,0.1255,0.6878,0.0508,0.7962c-0.0748,0.1083-0.3193,0.2348-0.7625,0.2348h-0.6259c-3.3084,0-6,2.6916-6,6V36
		c0,1.1028-0.8972,2-2,2H16.7481c-1.1028,0-2-0.8972-2-2v-9.2519c0-3.3084-2.6916-6-6-6h-0.626
		c-0.4431,0-0.6877-0.1265-0.7624-0.2348c-0.0748-0.1083-0.1064-0.3818,0.0508-0.7962l5.7895-15.2678
		C13.686,3.1674,15.3772,2,16.7481,2H43.2519 M43.2519,0H16.7481c-2.2,0-4.6382,1.6831-5.4182,3.7401L5.5404,19.008
		c-0.78,2.0571,0.3818,3.7401,2.5818,3.7401h0.626c2.2,0,4,1.8,4,4V36c0,2.2,1.8,4,4,4h26.5038c2.2,0,4-1.8,4-4v-9.2519
		c0-2.2,1.8-4,4-4h0.6259c2.2,0,3.3618-1.6831,2.5818-3.7401L48.6701,3.7401C47.8901,1.6831,45.4519,0,43.2519,0L43.2519,0z"/>
</g>
<g>
	<path fill="#FDDF61" d="M36.9931,23.3654c-0.2678,0.5355-0.1062,1.2574-0.6622,1.663c-0.4782-0.0707-0.5096-0.7243-1.0115-0.688
		c-0.3075-0.6999-0.7679-0.2855-1.1127-0.1013c-3.0212,1.6135-6.038,3.2362-9.0314,4.9015
		c-0.5466,0.3041-1.2099,0.5886-1.3345,1.3591c-0.0654,0.0796-0.1488,0.1501-0.1934,0.2404
		c-0.7763,1.5692-0.7752,1.5697-2.088,0.5768c-0.2398-0.6381-0.7007-0.3787-1.0934-0.246c-0.5798,0.1961-1.1578,0.3512-1.775,0.2898
		c-0.1163-1.3332,0.2672-2.5845,0.6152-3.8418c0.3376-0.0611,0.679-0.1067,1.0123-0.186c2.0954-0.4983,3.2911-1.7939,3.2865-3.549
		c-0.1682-1.5103-1.3318-1.9306-2.508-2.3374c0.1879-1.0863,0.631-2.0889,1.0004-3.1162c1.9916,0.5975,4.1416-1.2215,4.0114-3.394
		c-0.1921-1.1984-0.9778-1.8688-2.0169-2.3139c0.0689-0.428,0.1379-0.8561,0.2067-1.2843c1.0956,0.3227,2.1964,0.6272,3.3505,0.6158
		c1.2001-0.0118,2.326,0.2646,3.3899,0.8212c0.9506,0.4974,1.8971,1.0042,2.861,1.4744c2.608,1.2723,4.5571,3.2387,6.0019,5.7466
		c-0.1664,0.7128-0.7126,1.0736-1.2948,1.3767C37.7772,21.805,37.1233,22.3638,36.9931,23.3654z M31.8147,17.2918
		c0.056-0.0843,0.1118-0.1685,0.1677-0.2528c0.5799-1.2971,0.4131-2.2509-0.5192-2.9684c-1.0243-0.7882-2.0851-0.7423-3.1029,0.1651
		c-0.7122,0.635-1.2577,1.3808-1.3568,2.3793c-0.001,1.1061,0.4922,1.796,1.4789,2.0691c1.3218,0.366,2.543-0.1429,3.3444-1.3935
		L31.8147,17.2918z M31.8128,19.5756c-0.411,0.7255-0.2849,1.4082,0.195,2.0374c0.8175,1.0718,2.4599,1.4632,3.7399,0.9114
		c1.4429-0.6221,2.2921-1.9882,2.1217-3.4135c-0.494-1.8959-2.0994-2.7071-3.8387-1.9128
		C32.9774,17.679,32.2076,18.4553,31.8128,19.5756z M31.3675,23.1376c0.2005-1.3467-0.4025-2.4441-1.6535-3.009
		c-2.1914-0.9895-4.6166,0.4156-5.2169,3.0223c-0.1795,0.7949-0.1059,1.5698,0.5238,2.1133
		c1.1482,0.9911,2.5007,1.3132,3.9438,0.8086C30.3234,25.5978,31.2401,24.678,31.3675,23.1376z M23.9234,27.8286
		c0.5259,0.4952,0.927,0.4194,1.2621-0.0728c0.1984-0.2914,0.0961-0.5287-0.2127-0.6582
		C24.2912,26.8121,24.206,27.4023,23.9234,27.8286z M20.1506,28.7398c0.8282,0.8284,1.0916,0.0171,1.5186-0.3974
		C20.9032,27.6578,20.5628,28.2191,20.1506,28.7398z M23.615,20.1785c0.0242-0.3502-0.2445-0.49-0.5027-0.5362
		c-0.3623-0.065-0.5917,0.2065-0.6459,0.5223c-0.0542,0.3161,0.2246,0.5389,0.4829,0.5789
		C23.302,20.7981,23.4683,20.4834,23.615,20.1785z M25.1117,18.9124c0.3859,0.4382,0.7168,0.5235,1.0627,0.0718
		c0.1506-0.1967,0.1676-0.4022-0.0415-0.5395C25.6268,18.1119,25.3979,18.5017,25.1117,18.9124z"/>
	<path fill="#E98803" d="M24.4509,7.7493c0.3458-0.9751,1.1358-0.9025,1.8979-0.7689c1.4634,0.2566,2.9065,0.6852,4.3785,0.8284
		c3.8913,0.3787,7.0161,2.4239,10.0484,4.6257c1.2957,0.9409,2.2636,2.256,2.4995,3.9599c-0.295-0.0089-0.59-0.0179-0.8849-0.0267
		c-0.1562-0.1912-0.2891-0.1556-0.4054,0.0425l0.0139-0.0096c-0.7138,0.1063-1.28-0.2076-1.7926-0.6552
		c-0.6283-0.5489-1.237-1.1213-1.8744-1.6591c-1.5861-1.3382-3.326-2.4387-5.3558-2.8906c-1.1141-0.248-2.1353-0.6193-3.0224-1.3058
		c-1.1377-0.8804-2.3563-1.055-3.7231-0.7283C24.7943,9.505,24.5262,9.263,24.4509,7.7493z"/>
	<path fill="#AC5C10" d="M24.4509,7.7493c0.0753,1.5136,0.3434,1.7555,1.7793,1.4124c1.367-0.3267,2.5854-0.1521,3.7231,0.7283
		c0.8871,0.6865,1.9083,1.0577,3.0224,1.3058c2.0299,0.4521,3.7697,1.5524,5.3558,2.8906c0.6373,0.5378,1.2461,1.1102,1.8744,1.6591
		c0.5126,0.4478,1.0788,0.7615,1.7926,0.6554c-1.0385,0.6373-1.1778,1.7944-1.5843,2.797c-1.337-2.4601-2.8568-4.7202-5.7433-5.5561
		c-0.4589-0.1329-0.9133-0.3459-1.314-0.6089c-2.7679-1.8156-5.7994-2.5413-9.074-2.3077
		C23.4226,9.6802,23.9197,8.7138,24.4509,7.7493z"/>
	<path fill="#AC5C10" d="M24.2828,10.7251c3.2746-0.2336,6.3063,0.4922,9.074,2.3077c0.4007,0.2628,0.8551,0.476,1.314,0.6089
		c2.8866,0.8359,4.4064,3.0961,5.7429,5.556c-0.1093,0.3063-0.1237,0.6745-0.5119,0.7986
		c-1.4446-2.5079-3.3939-4.4743-6.0019-5.7466c-0.9639-0.4702-1.9103-0.9771-2.861-1.4744
		c-1.0639-0.5566-2.1897-0.8331-3.3899-0.8212c-1.1541,0.0114-2.2547-0.2931-3.3505-0.6158
		C24.2935,11.1339,24.2881,10.9294,24.2828,10.7251z"/>
	<path fill="#E4BB5F" d="M39.9018,19.9962c0.3881-0.124,0.4026-0.4922,0.5119-0.7986c0.407-1.0025,0.5464-2.1595,1.5849-2.7968
		c0,0-0.0137,0.0096-0.0137,0.0094c0.1351-0.0142,0.2702-0.0283,0.4053-0.0425c0.295,0.0089,0.59,0.0177,0.8849,0.0267
		c0.0001,0-0.0267-0.009-0.0267-0.009c-0.0387,0.2055,0.0542,0.3424,0.2246,0.4388c0.5337,1.3708-0.092,2.4302-0.9809,3.3423
		c-1.532,1.5719-3.5493,2.3359-5.4992,3.1988c0.1304-1.0016,0.7841-1.5604,1.6141-1.9925
		C39.1892,21.0698,39.7354,20.709,39.9018,19.9962z"/>
	<path fill="#E6BF63" d="M23.841,30.4996c0.1246-0.7705,0.7879-1.055,1.3345-1.3591c2.9933-1.6653,6.0101-3.288,9.0314-4.9015
		c0.3449-0.1841,0.8051-0.5987,1.1127,0.1013c-3.4579,2.0879-6.9339,4.1431-10.609,5.8276
		C24.4291,30.2971,24.1313,30.3899,23.841,30.4996z"/>
	<path fill="#C41916" d="M21.0971,21.4464c1.1762,0.4067,2.3399,0.8271,2.508,2.3374c-0.5119,0.1747-0.371,0.9994-1.0163,1.041
		c0.4216-1.5288,0.2364-2.07-1.0216-2.673c0.0456,1.0788-0.2336,2.1455,0.8142,2.8827c-0.4897,1.3196-1.6997,1.2472-2.7629,1.4588
		C20.0581,24.7952,20.4667,23.0877,21.0971,21.4464z"/>
	<path fill="#C41B17" d="M24.092,12.6225c1.0391,0.4451,1.8248,1.1155,2.0169,2.3139c-0.1162,0.1227-0.2892,0.2253-0.34,0.3713
		c-0.5362,1.5406-1.7251,2.0612-3.2106,2.1345C23.1274,15.8544,23.6937,14.2657,24.092,12.6225z M24.7546,16.0819
		c0.8076-1.1629,0.719-1.9054-0.2179-2.6179C24.0281,14.3593,24.5336,15.1007,24.7546,16.0819z"/>
	<path fill="#B50F0B" d="M19.6185,26.4935c1.0631-0.2116,2.2732-0.1392,2.763-1.4588c0.0692-0.0698,0.1383-0.1398,0.2074-0.2098
		c0.6453-0.0416,0.5045-0.8663,1.0163-1.041c0.0046,1.7551-1.1911,3.0506-3.2865,3.549c-0.3334,0.0793-0.6747,0.1249-1.0123,0.186
		C19.2091,27.1145,19.4245,26.8074,19.6185,26.4935z"/>
	<path fill="#B30C09" d="M22.5582,17.4422c1.4855-0.0735,2.6743-0.5939,3.2106-2.1345c0.0508-0.146,0.2238-0.2486,0.34-0.3713
		c0.1304,2.1725-2.0197,3.9915-4.0114,3.3939C22.251,18.0345,22.4045,17.7384,22.5582,17.4422z"/>
	<path fill="#E9C56F" d="M18.691,31.3605c0.6173,0.0616,1.1953-0.0937,1.775-0.2898c0.3926-0.1327,0.8535-0.3923,1.0934,0.246
		C20.6056,31.4715,19.6607,32.2438,18.691,31.3605z"/>
	<path fill="#E98803" d="M43.473,16.8242c-0.1705-0.0964-0.2632-0.2333-0.2246-0.4388
		C43.4771,16.4514,43.4591,16.6462,43.473,16.8242z"/>
	<path fill="#C21614" d="M24.4971,23.1509c0.6003-2.6067,3.0257-4.0117,5.2169-3.0223c1.2511,0.5649,1.854,1.6622,1.6535,3.009
		c-0.0729,0.0729-0.1713,0.133-0.2148,0.2207c-0.8272,1.6662-2.2593,2.199-3.976,2.0893
		C25.7545,25.3567,25.0001,24.382,24.4971,23.1509z M26.5499,20.9896c0.7321,1.1829,1.8552,1.6869,2.9861,2.1858
		c0.3633,0.1603,0.7349,0.3156,1.0417-0.0385c0.2773-0.3201,0.3815-0.6778,0.2275-1.1502
		C30.3296,20.5263,27.9862,19.9066,26.5499,20.9896z"/>
	<path fill="#C31814" d="M31.8128,19.5756c0.3948-1.1204,1.1646-1.8967,2.2179-2.3777c1.7393-0.7941,3.3446,0.0168,3.8385,1.9129
		c-0.159,0.0967-0.2068,0.2501-0.2626,0.4233c-0.4946,1.5348-1.6159,2.3676-3.1281,2.3439
		C33.0423,21.8557,32.2917,21.2072,31.8128,19.5756z M35.1451,17.8794c-0.2393,0-0.4123-0.0106-0.5835,0.0022
		c-0.3481,0.0261-0.7416,0.0676-0.8525,0.4497c-0.1194,0.4118,0.253,0.5985,0.5358,0.7913
		c0.5254,0.3585,1.1429,0.4724,1.7408,0.6105c0.3537,0.0816,0.8244,0.1868,1.046-0.1986c0.2529-0.4397-0.1493-0.7487-0.3965-1.0711
		C36.2326,17.9383,35.7033,17.784,35.1451,17.8794z"/>
	<path fill="#C21814" d="M27.0034,16.6152c0.0991-0.9985,0.6446-1.7443,1.3568-2.3793c1.018-0.9074,2.0786-0.9533,3.1029-0.1651
		c0.9325,0.7175,1.0993,1.6712,0.5192,2.9684c-0.3816-0.1364-0.1276,0.1578-0.1677,0.2528c0,0,0.012-0.0012,0.0115-0.0015
		c-0.375-0.1141-0.6416,0.1038-0.952,0.2666c-1.0041,0.5272-1.9879,0.353-2.9594-0.1519
		C27.5404,17.2103,27.4823,16.6687,27.0034,16.6152z M31.4942,16.4043c0.5448-0.8158,0.085-1.4266-0.3347-1.9045
		c-0.42-0.4783-1.0367-0.6555-1.6432-0.0938C29.856,15.352,30.4984,15.9597,31.4942,16.4043z"/>
	<path fill="#B30C08" d="M31.8128,19.5756c0.4789,1.6317,1.2295,2.2801,2.6657,2.3025c1.5122,0.0238,2.6335-0.8092,3.1281-2.3439
		c0.0558-0.1732,0.1036-0.3267,0.2626-0.4233c0.1704,1.4251-0.6788,2.7914-2.1217,3.4134
		c-1.2799,0.5519-2.9225,0.1605-3.7399-0.9114C31.5279,20.9837,31.4018,20.3012,31.8128,19.5756z"/>
	<path fill="#B4100A" d="M24.4971,23.1509c0.503,1.2311,1.2574,2.2058,2.6797,2.2968c1.7167,0.1097,3.1486-0.4231,3.976-2.0893
		c0.0436-0.0877,0.1419-0.1478,0.2148-0.2207c-0.1273,1.5406-1.0441,2.4602-2.4026,2.9352
		c-1.4431,0.5046-2.7956,0.1825-3.9438-0.8086C24.3913,24.7207,24.3175,23.9457,24.4971,23.1509z"/>
	<path fill="#B30B08" d="M27.0034,16.6152c0.4789,0.0537,0.537,0.5953,0.9117,0.79c0.9714,0.5049,1.9553,0.6793,2.9594,0.1519
		c0.3102-0.1628,0.5768-0.3808,0.952-0.2666c-0.8011,1.2509-2.0223,1.7598-3.3441,1.3938
		C27.4956,18.4111,27.0025,17.7211,27.0034,16.6152z"/>
	<path fill="#FDDF61" d="M23.9234,27.8286c0.2824-0.4264,0.3678-1.0165,1.0493-0.7309c0.309,0.1295,0.4112,0.3667,0.2127,0.6582
		C24.8504,28.248,24.4493,28.3237,23.9234,27.8286z"/>
	<path fill="#FDDF61" d="M20.1506,28.7398c0.4122-0.5207,0.7526-1.082,1.5186-0.3974
		C21.2422,28.7569,20.9788,29.568,20.1506,28.7398z"/>
	<path fill="#FDDF61" d="M23.615,20.1785c-0.1467,0.3049-0.313,0.6196-0.6657,0.565c-0.2584-0.04-0.5371-0.2628-0.4829-0.5789
		c0.0542-0.3158,0.2838-0.5873,0.6459-0.5223C23.3705,19.6885,23.6392,19.8283,23.615,20.1785z"/>
	<path fill="#FDDF61" d="M25.1117,18.9124c0.2861-0.4107,0.5151-0.8005,1.0213-0.4677c0.2089,0.1373,0.1919,0.343,0.0415,0.5395
		C25.8285,19.4357,25.4977,19.3504,25.1117,18.9124z"/>
	<path fill="#B30B08" d="M31.8147,17.2918c0.0402-0.0949-0.2139-0.389,0.1677-0.2528
		C31.9266,17.1233,31.8707,17.2076,31.8147,17.2918z"/>
	<path fill="#AC5C10" d="M42.3901,16.3679c-0.1351,0.0142-0.2702,0.0283-0.4053,0.0425
		C42.101,16.2123,42.2339,16.1767,42.3901,16.3679z"/>
	<path fill="#C21614" d="M22.5888,24.8249c-0.0691,0.07-0.1383,0.14-0.2074,0.2098c-1.0478-0.7373-0.7684-1.804-0.8142-2.8827
		C22.8253,22.7549,23.0106,23.296,22.5888,24.8249z"/>
	<path fill="#C21614" d="M24.7546,16.0819c-0.2212-0.981-0.7265-1.7225-0.2179-2.6179
		C25.4736,14.1765,25.5622,14.919,24.7546,16.0819z"/>
	<path fill="#C21614" d="M26.5499,20.9896c1.4364-1.0831,3.7796-0.4633,4.2553,0.997c0.1538,0.4724,0.0496,0.8302-0.2275,1.1502
		c-0.3068,0.3543-0.6782,0.1989-1.0417,0.0385C28.4051,22.6767,27.2821,22.1726,26.5499,20.9896z"/>
	<path fill="#C21614" d="M35.1451,17.8794c0.5582-0.0954,1.0875,0.0589,1.4901,0.5841c0.2473,0.3226,0.6495,0.6314,0.3966,1.0711
		c-0.2216,0.3853-0.6924,0.2802-1.046,0.1986c-0.5979-0.138-1.2153-0.252-1.7408-0.6105c-0.2826-0.1928-0.6552-0.3796-0.5358-0.7913
		c0.1109-0.3821,0.5043-0.4234,0.8525-0.4497C34.7329,17.8687,34.9058,17.8794,35.1451,17.8794z"/>
	<path fill="#C21614" d="M31.4942,16.4043c-0.9958-0.4448-1.6383-1.0524-1.9777-1.9983c0.6065-0.5618,1.223-0.3844,1.6432,0.0938
		C31.5792,14.9777,32.039,15.5886,31.4942,16.4043z"/>
</g>
</svg>
