<?xml version="1.0" encoding="utf-8"?>
<!-- Generator: Adobe Illustrator 21.0.2, SVG Export Plug-In . SVG Version: 6.00 Build 0)  -->
<svg version="1.1" id="Layer_1" xmlns="http://www.w3.org/2000/svg" xmlns:xlink="http://www.w3.org/1999/xlink" x="0px" y="0px"
	 width="52.6px" height="48.1px" viewBox="0 0 52.6 48.1" style="enable-background:new 0 0 52.6 48.1;" xml:space="preserve">
<g>
	<g>
		<g>
			<path d="M4.6,43.8c3.2,4.4,9.3,5.4,13.6,2.2l30.1-21.7c4.4-3.2,5.4-9.3,2.2-13.6C43,0.3,28.4-2.1,18,5.4c-1.4,1-2.6,2.2-3.8,3.4
				c-1.5,0.7-3,1.5-4.4,2.5C-0.6,18.9-2.9,33.5,4.6,43.8z M6.8,42.3c-6.6-9.1-4.6-22,4.6-28.6c1.3-0.9,2.7-1.7,4.1-2.3
				c0.6-0.3,12.2-4.4,24.6,7.5c1.2,1.2,3.2,1.4,4.6,0.4c1.6-1.2,2-3.5,0.8-5.1s-3.5-2-5.1-0.8c-0.2,0.1-0.3,0.2-0.5,0.4l0-4.1
				L36.4,11c0.7-1.2,0.6-2.7-0.2-3.9c-1.2-1.6-3.5-2-5.1-0.8c-0.6,0.4-1,1.1-1.3,1.8l-1.3-3.3l-3.4,3.2c-2.1-0.3-4-0.3-5.5-0.2
				c0.1,0,0.1,0,0.1-0.1c9.1-6.6,22-4.6,28.6,4.6c2.3,3.2,1.6,7.5-1.6,9.8L16.6,43.8C13.5,46.1,9.1,45.4,6.8,42.3z"/>
			<path d="M4.4,44c-7.6-10.5-5.2-25.2,5.3-32.8c1.3-0.9,2.8-1.8,4.4-2.5c1.2-1.3,2.5-2.5,3.8-3.4C28.4-2.4,43.1,0,50.7,10.5
				c3.2,4.5,2.2,10.8-2.2,14L18.4,46.2C13.9,49.4,7.6,48.4,4.4,44z M14.4,9L14.4,9L14.4,9c-1.7,0.8-3.2,1.6-4.5,2.6
				C-0.3,19-2.7,33.4,4.8,43.7c3.1,4.3,9,5.2,13.3,2.1L48.1,24c4.3-3.1,5.2-9,2.1-13.3C42.8,0.5,28.4-1.8,18.2,5.6
				C16.9,6.5,15.6,7.7,14.4,9z M6.6,42.4c-6.7-9.3-4.6-22.3,4.7-29c1.2-0.9,2.6-1.6,4.2-2.3c0.1-0.1,12.1-4.7,24.9,7.5
				c1.1,1.1,3,1.3,4.3,0.3c1.5-1.1,1.8-3.2,0.8-4.7c-1.1-1.5-3.2-1.8-4.7-0.8c-0.2,0.1-0.3,0.2-0.4,0.4l-0.5,0.6l0-4.5l-4.1,1.5
				l0.3-0.6c0.6-1.1,0.6-2.6-0.2-3.6c-1.1-1.5-3.2-1.8-4.7-0.8c-0.5,0.4-0.9,0.9-1.2,1.6l-0.2,0.6l-1.4-3.6l-3.3,3l-0.1,0
				c-1.8-0.3-3.6-0.4-5.5-0.2L18.7,8l0.8-0.6c9.3-6.7,22.3-4.6,29,4.7c2.4,3.3,1.6,7.8-1.6,10.2L16.8,44
				C13.6,46.4,8.9,45.6,6.6,42.4z M25.1,7.7l3.6-3.3l1.2,3.1c0.3-0.5,0.7-1,1.1-1.3c1.7-1.3,4.2-0.9,5.4,0.9c0.8,1,0.9,2.4,0.5,3.6
				l3.5-1.3l0,3.8c0,0,0,0,0.1,0c1.7-1.3,4.2-0.9,5.4,0.9s0.9,4.2-0.9,5.4c-1.5,1.1-3.7,0.9-5-0.4c-12.6-12-24.2-7.5-24.4-7.4
				c-1.6,0.7-2.9,1.4-4.1,2.3C2.5,20.4,0.5,33.1,7,42.1c2.2,3,6.5,3.7,9.5,1.5l30.1-21.8c3-2.2,3.7-6.4,1.5-9.5
				c-6.4-8.8-18.7-11-27.7-5C22,7.3,23.5,7.4,25.1,7.7z"/>
		</g>
		<g>
			<ellipse transform="matrix(0.8103 -0.5861 0.5861 0.8103 -10.3399 12.0242)" cx="13.4" cy="22" rx="1.4" ry="1.4"/>
			<path d="M12,23c-0.5-0.8-0.4-1.8,0.4-2.4c0.8-0.5,1.8-0.4,2.4,0.4c0.5,0.8,0.4,1.8-0.4,2.4C13.6,23.9,12.6,23.7,12,23z
				 M12.4,22.7c0.4,0.5,1.1,0.6,1.7,0.3s0.6-1.1,0.3-1.7c-0.4-0.5-1.1-0.6-1.7-0.3S12.1,22.1,12.4,22.7z"/>
		</g>
		<g>
			<ellipse transform="matrix(0.8103 -0.5861 0.5861 0.8103 -15.2204 15.7026)" cx="16.6" cy="31.4" rx="1.4" ry="1.4"/>
			<path d="M15.3,32.3c-0.5-0.8-0.4-1.8,0.4-2.4c0.8-0.5,1.8-0.4,2.4,0.4c0.5,0.8,0.4,1.8-0.4,2.4C16.9,33.3,15.8,33.1,15.3,32.3z
				 M15.7,32.1c0.4,0.5,1.1,0.6,1.7,0.3c0.5-0.4,0.6-1.1,0.3-1.7c-0.4-0.5-1.1-0.6-1.7-0.3C15.4,30.8,15.3,31.5,15.7,32.1z"/>
		</g>
		<g>
			<ellipse transform="matrix(0.8103 -0.5861 0.5861 0.8103 -8.5792 17.7443)" cx="23.1" cy="22.1" rx="1.4" ry="1.4"/>
			<path d="M21.7,23.1c-0.5-0.8-0.4-1.8,0.4-2.4c0.8-0.5,1.8-0.4,2.4,0.4c0.5,0.8,0.4,1.8-0.4,2.4C23.3,24,22.3,23.9,21.7,23.1z
				 M22.2,22.8c0.4,0.5,1.1,0.6,1.7,0.3c0.5-0.4,0.6-1.1,0.3-1.7c-0.4-0.5-1.1-0.6-1.7-0.3C21.9,21.5,21.8,22.3,22.2,22.8z"/>
		</g>
	</g>
</g>
</svg>
