<?xml version="1.0" encoding="utf-8"?>
<!-- Generator: Adobe Illustrator 21.0.2, SVG Export Plug-In . SVG Version: 6.00 Build 0)  -->
<svg version="1.1" id="Layer_1" xmlns="http://www.w3.org/2000/svg" xmlns:xlink="http://www.w3.org/1999/xlink" x="0px" y="0px"
	 width="256px" height="256px" viewBox="0 0 256 256" enable-background="new 0 0 256 256" xml:space="preserve">
<g>
	<path fill="#EC9C00" d="M123.4929,25.6546c0.0705,15.6042,0.141,31.2085,0.2115,46.8127
		c-0.0013,2.8409-0.0026,5.6818-0.0038,8.5228c-3.1983,13.5285,1.4351,19.2071,15.8462,17.6369
		c7.1953-0.784,14.6947,1.2322,22.0566,1.9818c-4.2762,0.6119-8.5524,1.2238-12.8286,1.8358
		c-8.4963,3.9155-25.2579-1.2049-23.67,13.2364c1.4044,12.7721,16.8458,9.3859,26.9745,10.9601
		c2.9854,0.464,6.2871,1.1553,6.6694-2.6715c0.3707-3.7116-3.2054-4.0688-6.0704-4.31c-6.8789-0.579-19.7699-1.1109-18.4476-5.0879
		c2.8648-8.6158,13.4084-5.3939,21.3555-3.8752c3.454,0.66,7.0612,0.5715,10.4804,1.3469
		c6.5479,1.4851,14.7684,2.797,14.1719,11.3712c-0.6552,9.4178-9.2824,10.9849-16.865,10.8683
		c-15.8922-0.2445-31.766-1.5864-47.6591-1.9276c-7.4615-0.1602-14.6946,2.0417-15.6561,10.9802
		c-1.0106,9.3949,7.0176,11.2899,13.3899,11.8682c30.5738,2.7744,60.7893,1.6238,89.0515-12.4667
		c2.8701-1.4309,8.7414-2.3053,6.9378-6.3302c-2.1859-4.8779-6.7928-0.7884-10.0348,0.5741
		c-25.8456,10.8615-52.4827,16.2937-80.5859,12.4857c-4.6066-0.6242-11.3753-1.0725-11.181-5.7835
		c0.2589-6.2785,7.4401-5.154,12.1057-5.0412c8.4518,0.2044,16.8768,1.4092,25.3299,1.6987
		c14.3278,0.4907,29.4254,3.5891,40.2246-10.1367c1.3257,1.4014,2.6523,2.8037,3.9789,4.206
		c3.5642-1.3116,7.0833-2.7669,10.7016-3.9063c8.7075-2.742,20.8965-8.0217,24.867,1.4776
		c4.0615,9.7171-8.0912,14.2187-16.5219,17.8364c-37.8552,16.2439-77.4136,13.8156-116.9938,10.5871
		c-15.7154-1.2819-30.6472-5.8159-43.9889-14.336c-3.8883-2.4831-10.3273-5.6315-4.7093-12.4288
		c1.7831-2.1574,9.0481-1.9283,4.207-6.7688c-3.1862-3.1858-7.2234,0.492-9.9714,3.3428
		c-7.8808,8.1757-2.3816,14.5591,3.6226,19.7417c9.0204,7.7861,20.1675,11.74,31.6791,14.2304
		c36.0375,7.7964,72.3159,5.0078,108.5804,2.0971c1.4689-0.5879,2.9379-1.1759,4.4069-1.7638
		c2.0886-0.1185,4.1773-0.237,6.2659-0.3555c1.4641,0.0389,2.9282,0.0778,4.3922,0.1168c-0.0208,0.5944-0.0369,1.1889-0.0482,1.7834
		c-1.1652,0.2343-2.3304,0.4686-3.4955,0.7029c-1.6537,0.5029-3.3073,1.0057-4.9609,1.5086
		c-49.8533,10.7737-99.1519,9.8657-147.1321-8.6979c-12.2019-4.7209-25.3692-9.9449-29.5043-24.9849
		c15.9163-19.4359,38.2734-25.8798,61.4909-30.5885c2.8024,10.809-7.7362,5.9385-11.1712,9.4632
		c-2.0778,2.1321-4.6302,3.8002-6.9693,5.6768c1.354,0.7565,3.5581,2.4677,3.9371,2.1291
		c8.2946-7.4096,20.7106-0.6438,29.2796-9.3765c4.7354-4.8259,13.2943-4.3093,20.2631-1.8539
		c1.3192,0.4648,2.9773,3.8689,2.4647,5.0044c-3.0771,6.8154-10.1577,6.9623-16.1508,8.3569
		c-5.8027,1.3503-11.8551,1.6285-17.8,2.3601c-7.5787,0.9327-14.7719,3.7573-15.1306,12.1243
		c-0.3992,9.3125,7.829,11.9094,15.2302,13.3118c3.1797,0.6025,9.1734,2.8958,9.7235-2.4074
		c0.4391-4.2329-5.2571-3.2435-8.5839-3.7208c-4.2592-0.6111-9.6741-1.2614-10.16-5.9518c-0.6184-5.9696,5.2379-6.4047,9.734-7.4011
		c10.6367-2.3573,21.3223-4.5478,31.8425-7.3535c5.0572-1.3487,9.1623-5.3878,9.4506-10.5065
		c0.3211-5.6996-4.647-8.1594-9.726-9.4779c-4.9193-1.2717-9.8392-2.5444-14.7591-3.8171
		c11.3305-1.8454,26.8769,0.8159,20.8588-19.5757c-0.0026-2.8374-0.006-5.6747-0.0093-8.5119
		c0.1761-16.7751,0.3522-33.5503,0.5283-50.3254C117.8404,23.319,120.6667,24.4868,123.4929,25.6546z"/>
	<path fill="#E5EAEE" d="M253.2029,149.022c0.8632,50.2701-44.3074,98.1797-99.314,104.7684
		c-12.9431,1.5503-26.0756,1.5149-39.1202,2.2096c-2.8338-1.3932-5.6684-2.7871-8.503-4.1809
		c-25.66-8.5336-34.421-28.4373-23.3647-53.0811c0.6842-0.2184,1.3685-0.4367,2.0528-0.6551
		c28.5166,3.7067,57.1381,3.8612,85.5563,0.06C204.7619,193.5614,237.8891,186.0506,253.2029,149.022z"/>
	<path fill="#E5EAEE" d="M192.2684,166.767c1.1652-0.2343,2.3304-0.4686,3.4955-0.7028c1.5537-0.5308,3.1074-1.0617,4.6612-1.5926
		c1.3068-0.2403,2.6137-0.4806,3.9205-0.7208c0.8826-0.4526,1.7651-0.9051,2.6477-1.3577c0.5834,0.063,1.1047-0.0883,1.5641-0.454
		c1.4818-0.6169,2.9635-1.2338,4.4452-1.8507c0.6839-0.1879,1.3678-0.3757,2.0517-0.5636c0.9177-0.4573,1.8354-0.9146,2.7532-1.3719
		c11.4233-4.9942,22.9533-9.8648,26.9942-23.4021c4.2081-5.7956,2.3915-11.6302-0.7614-16.8009
		c-9.5284-15.6262-25.6207-21.1365-41.8387-26.2847c-25.5349-8.2213-51.8073-11.0027-78.501-10.6751
		c0.0013-2.8409,0.0025-5.6819,0.0038-8.5228c40.4322,0.1439,79.8651,4.6746,114.6397,27.8602
		c10.465,6.9775,17.3299,16.6234,16.9831,30.0393c-0.6297,1.3669-1.2607,2.7359-1.8915,4.1049
		c-0.0698,0.7121-0.0378,1.4195,0.0958,2.1223c-0.1558,0.6873-0.2086,1.3824-0.1584,2.0854
		c-0.573,0.7966-1.1461,1.5932-1.7195,2.3895c-0.3456,0.5788-0.4889,1.2042-0.4304,1.8761l0.0522,0.0868
		c-8.4957,10.8087-19.5807,18.0988-31.9993,23.5484c-30.626,13.4395-63.0999,16.5771-96.0167,17.2206
		c-1.4022-0.0013-2.8046-0.0024-4.2069-0.0036c-2.8342-0.0796-5.6684-0.1591-8.5025-0.2387
		c-5.9497-0.7305-11.957-1.1499-17.8397-2.2425c-35.2817-6.5529-71.9871-10.347-92.6563-46.2797
		c-1.012-22.821,12.0728-37.6458,44.5225-49.3248c10.2651-3.6945,21.027-6.0044,31.5617-8.9482
		c0.0021,2.8629,0.0041,5.7261,0.0061,8.5894C59.6177,89.3509,42.677,92.661,28.3224,102.245
		c-11.1178,7.4229-24.6875,14.5407-17.6518,32.3487c4.1356,15.0389,17.3029,20.2629,29.5048,24.9839
		c47.9803,18.5636,97.2788,19.4717,147.1321,8.698C188.9611,167.7728,190.6147,167.2699,192.2684,166.767z"/>
	<path fill="#CED7DC" d="M82.901,198.738c-11.0563,24.6438-2.2953,44.5474,23.365,53.0809
		c0.0146,0.7247,0.0289,1.4496,0.0432,2.1744C52.035,252.2125-0.4663,200.1159,2.2962,150.7828
		C17.8506,185.8475,50.0885,192.7774,82.901,198.738z"/>
	<path fill="#F36C60" d="M123.2595,183.8009c32.9169-0.6436,65.3907-3.7812,96.0167-17.2207
		c12.4186-5.4496,23.5036-12.7397,31.9993-23.5485c0.6105,0.668,1.221,1.3361,1.8315,2.0042
		c0.0321,1.3293,0.0642,2.6586,0.0961,3.9869c-15.3141,37.0277-48.4412,44.5385-82.6931,49.12
		c-28.4182,3.8012-57.0396,3.6468-85.5564-0.0599c7.0307-7.2223,15.494-11.5071,25.5604-12.5041
		c2.8444,0.0058,5.6888,0.0117,8.5332,0.0175C120.4514,184.9979,121.8554,184.3994,123.2595,183.8009z"/>
	<path fill="#FCC946" d="M76.1445,85.3526c-0.002-2.8633-0.0039-5.7265-0.0061-8.5894c1.6507-22.5169-2.1319-45.2723,2.9506-67.641
		c1.9702-2.3955,3.9445-4.789,5.9189-7.1825c0,0-0.136,0.1188-0.136,0.119c0.7439-0.039,1.4878-0.0782,2.2317-0.1174
		c0.7209-0.0322,1.4419-0.0644,2.1628-0.0966c1.4225,0.0445,2.845,0.089,4.2676,0.1335c0.7511,0.1362,1.5022,0.2724,2.2533,0.4086
		c0.5943,0.7543,1.1885,1.5085,1.7828,2.2628c-1.3832,0.7358-2.7665,1.4715-4.1498,2.2073
		c-0.6268,0.5512-1.2537,1.1024-1.8805,1.6536l-0.0441,0.0668c-0.806,1.5134-1.612,3.0269-2.4179,4.5403
		c-8.4218,20.0627-2.4124,41.018-3.7926,61.5163c-0.0043,2.883-0.0087,5.7659-0.013,8.6489
		c0.541,5.8712,1.082,11.7423,1.6231,17.6135c5.8929,9.0464,14.5788,0.8015,21.4997,3.484
		c5.0796,1.3195,10.0476,3.7793,9.7266,9.4788c-0.2883,5.1187-4.3935,9.1578-9.4506,10.5065
		c-10.5202,2.8057-21.2058,4.9962-31.8425,7.3535c-4.4961,0.9964-10.3523,1.4315-9.734,7.4011
		c0.4858,4.6904,5.9008,5.3407,10.16,5.9518c3.3268,0.4773,9.023-0.5121,8.5839,3.7208c-0.5501,5.3032-6.5438,3.0099-9.7235,2.4074
		c-7.4012-1.4024-15.6294-3.9993-15.2302-13.3118c0.3587-8.367,7.5519-11.1916,15.1306-12.1243
		c5.9449-0.7316,11.9973-1.0099,17.8-2.3601c5.9932-1.3946,13.0737-1.5415,16.1508-8.3569
		c0.5126-1.1355-1.1455-4.5396-2.4647-5.0044c-6.9688-2.4554-15.5277-2.972-20.2631,1.8539
		c-8.5691,8.7328-20.985,1.9669-29.2796,9.3765c-0.379,0.3386-2.5831-1.3726-3.9371-2.1291
		c2.3391-1.8766,4.8914-3.5447,6.9693-5.6768c3.435-3.5247,13.9737,1.3459,11.1681-9.4616
		C79.9358,99.1728,75.3871,91.6936,76.1445,85.3526z"/>
	<path fill="#DF3737" d="M110.5141,185.5789c-10.0664,0.997-18.5297,5.2818-25.5604,12.5041
		c-0.6841,0.2183-1.3684,0.4367-2.0527,0.655c-32.8125-5.9606-65.0504-12.8905-80.6048-47.9552
		c-0.7475-5.2495-1.4948-10.498-2.242-15.7466c20.6693,35.9327,57.3746,39.7268,92.6564,46.2798
		c5.8827,1.0926,11.89,1.512,17.8397,2.2423C110.5664,184.2322,110.5543,184.9058,110.5141,185.5789z"/>
	<path fill="#785748" d="M189.4069,33.4249c18.8852,7.1532,39.5945,9.0441,57.1991,19.8915
		c-2.9755,6.0777-7.3449,5.8501-13.1124,3.8698c-29.4538-10.1132-59.1408-19.5529-88.5101-29.9009
		c-10.0988-3.5582-21.454-4.3848-29.8446-12.2241c10.6333-1.6048,20.0864,2.5173,29.6446,6.1293
		c1.371-0.0041,2.7419-0.0081,4.1129-0.0122c0.7778,0.7063,1.5556,1.4125,2.3323,2.1194c0.71,0.0492,1.4118-0.0115,2.1041-0.1815
		l0.9494,0.1876c0,0,0.9644-0.0805,0.9644-0.0805c0.7491,0.0923,1.4982,0.1845,2.2473,0.2768c0,0-0.1324-0.0875-0.1323-0.0875
		c0.8193,0.6266,1.6385,1.2532,2.4577,1.8798l0.9621,0.1528l0.949-0.22l1.0153,0.2569l1.0446-0.073l0.7973,0.3389
		c0,0,0.8645-0.0533,0.8677-0.0539c0.9436,0.5579,1.884,1.1163,2.8243,1.6748l0.9673,0.2317l0.9709-0.2163
		c0.7182,0.0871,1.4365,0.1742,2.1547,0.2613c3.6129,1.3233,7.2258,2.6466,10.8387,3.9699c1.2401,0.1655,2.4801,0.331,3.7204,0.4964
		C187.757,32.5496,188.5819,32.9872,189.4069,33.4249z"/>
	<path fill="#795748" d="M123.8929,6.1018c42.1913,6.0774,84.3871,12.1243,126.5574,18.3439
		c1.6825,0.2482,3.1239,2.1363,4.6776,3.2603c-2.605,2.532-3.6554,6.8543-8.995,5.8573
		c-41.1212-7.6783-82.2807-15.1511-123.4273-22.6881c-1.1827-1.012-2.3665-2.0236-3.5503-3.0352
		C120.7346,7.2605,122.3138,6.6811,123.8929,6.1018z"/>
	<path fill="#8A6859" d="M122.7047,10.8756c41.1476,7.5366,82.3071,15.0094,123.4284,22.6877c5.3396,0.997,6.39-3.3253,8.995-5.8573
		c2.6639,11.9302-0.4828,16.2057-13.5159,12.5763c-14.1313-3.9352-28.8428-5.7803-43.3019-8.5366
		c-2.252-0.5485-4.5034-1.0974-6.7548-1.6462c-1.2909-0.2052-2.5819-0.4104-3.8732-0.6153
		c-5.1301-1.2008-10.2599-2.4021-15.3896-3.6033c-0.6856-0.3098-1.3779-0.3257-2.077-0.0476
		c-0.6994-0.0876-1.3989-0.1752-2.0983-0.2628c-1.459-0.6372-2.9179-1.2744-4.3769-1.9117
		c-0.6751-0.2149-1.3443-0.198-2.0077,0.0507c-0.6404-0.2443-1.2945-0.2892-1.9623-0.1346c-0.803-0.0541-1.606-0.1081-2.409-0.1621
		c0,0,0.1324,0.0875,0.132,0.0874c-0.7516-0.6906-1.5029-1.3811-2.2542-2.0716c-0.6331-0.1139-1.2635-0.1004-1.8912,0.0404
		c-0.7061,0.6094-1.4122,1.2188-2.1182,1.8282c-0.7778-0.7063-1.5556-1.4125-2.3331-2.1179
		c-1.3708,0.0043-2.742,0.0078-4.1132,0.0113c-9.5582-3.612-19.0113-7.7341-29.6446-6.1293c0,0-0.4908-0.3696-0.4902-0.369
		C117.3345,13.4203,120.0196,12.1479,122.7047,10.8756z"/>
	<path fill="#8B695A" d="M115.139,15.0612c8.3905,7.8394,19.7458,8.6659,29.8446,12.2241
		c29.3692,10.3479,59.0563,19.7876,88.5101,29.9009c5.7675,1.9803,10.1369,2.2079,13.1124-3.8698
		c2.7578,12.8158-1.0558,15.0707-13.4345,10.5198c-36.3292-13.356-73.0883-25.5388-109.6788-38.1813
		c-2.8261-1.1681-5.6523-2.3359-8.4803-3.5083c-0.9349-0.3705-1.8679-0.7365-2.7976-1.1015
		c0.8134-2.1172,1.6234-4.2353,2.4334-6.3534C114.6482,14.6916,115.139,15.0612,115.139,15.0612z"/>
	<path fill="#805E4F" d="M93.4203,6.857c1.3833-0.7358,2.7665-1.4715,4.1504-2.2087c0.1185-0.6434,0.2238-1.2874,0.3167-1.9334
		l-0.142-0.8473c1.4597,0.1895,2.9193,0.379,4.3789,0.5685c2.4569,0.4923,4.9138,0.9847,7.3708,1.477
		c1.0645,0.1677,2.1289,0.3353,3.1934,0.503c0.0007,0.5379-0.0017,1.0758-0.0071,1.6139c-0.6578,0.2609-1.3396,0.3689-2.0456,0.3244
		c-0.7579,0.5687-1.5157,1.1375-2.2736,1.7062c0,0-0.3326,0.33-0.3326,0.33c-0.5872,0.6892-1.1743,1.3784-1.7615,2.0677
		c0,0-0.0798,0.1164-0.0798,0.1164c-0.6252,0.8039-1.2505,1.6078-1.8757,2.4117l0.2231,0.0934
		c-4.3467-1.5008-8.6934-3.0017-13.04-4.5025c0,0,0.0441-0.0668,0.0435-0.0669C92.1659,7.9593,92.7931,7.4081,93.4203,6.857z"/>
	<path fill="#826150" d="M85.0079,1.9397c-1.9744,2.3935-3.9487,4.787-5.9189,7.1825c-3.7735-1.9961-3.4596-5.6741-1.7089-8.0452
		C78.1418,0.0454,82.3597,1.5739,85.0079,1.9397z"/>
	<path fill="#DFD7D3" d="M172.2926,25.8808c5.1297,1.2012,10.2595,2.4025,15.3896,3.6033c-1.49,0.7102-2.9804,1.4208-4.4709,2.1314
		c-3.6129-1.3233-7.2258-2.6466-10.8387-3.9697C172.3563,27.0572,172.3297,26.4688,172.2926,25.8808z"/>
	<path fill="#85624F" d="M112.6814,6.0297c0.0055-0.5379,0.0078-1.0757,0.0071-1.6136c3.7343,0.5621,7.4687,1.1241,11.2037,1.6859
		c-1.5785,0.5791-3.1577,1.1585-4.737,1.7392C116.9973,7.2382,114.8393,6.6339,112.6814,6.0297z"/>
	<path fill="#DFE5E8" d="M106.3093,253.9934c-0.0143-0.7249-0.0285-1.4497-0.0432-2.1744c2.8342,1.394,5.6687,2.7878,8.5026,4.1811
		C111.9484,255.3307,109.1288,254.662,106.3093,253.9934z"/>
	<path fill="#EDE9E6" d="M191.5555,30.0995c2.2514,0.5488,4.5029,1.0976,6.7548,1.6462
		C196.0591,31.1967,193.8073,30.6481,191.5555,30.0995z"/>
	<path fill="#85624F" d="M109.4951,3.9131c-2.4569-0.4923-4.9139-0.9847-7.3708-1.477
		C104.5813,2.9284,107.0382,3.4207,109.4951,3.9131z"/>
	<path fill="#E79898" d="M251.6541,141.0693c0.573-0.7966,1.146-1.5932,1.7187-2.3899c0.61-0.0062,1.2205-0.013,1.8309-0.0207
		c-0.5088,1.4314-1.0176,2.8629-1.5265,4.2942c-0.0001-0.0001-0.8605,0.107-0.8605,0.107
		C252.4292,142.3963,252.0417,141.7328,251.6541,141.0693z"/>
	<path fill="#E8C7C7" d="M253.4357,134.4718c0.6309-1.369,1.2618-2.7381,1.8915-4.1049c-0.0003,1.3727,0.0005,2.7432,0.0045,4.1122
		C254.7019,134.412,254.0689,134.4101,253.4357,134.4718z"/>
	<path fill="#B7A59D" d="M95.7872,2.3869c-0.7511-0.1362-1.5022-0.2724-2.2539-0.4057c-0.0025-0.6061-0.0299-1.214-0.0827-1.8207
		c1.4316,0.569,2.8632,1.1381,4.2949,1.7071c0,0,0.142,0.8473,0.1419,0.847C97.2016,2.5122,96.5016,2.4032,95.7872,2.3869z"/>
	<path fill="#A68C80" d="M93.4505,0.1604c0.0529,0.6067,0.0802,1.2146,0.0827,1.8207c-1.4219-0.0474-2.8444-0.0919-4.2682-0.1319
		c0.0381-0.5582,0.005-1.1166-0.1007-1.6706C90.5931,0.1726,92.0218,0.1665,93.4505,0.1604z"/>
	<path fill="#F36C60" d="M253.107,145.036c-0.6105-0.6681-1.2211-1.3362-1.8315-2.0042c0.0001,0.0001-0.0522-0.0867-0.0522-0.0867
		c0.5328,0.0149,1.0639,0.0532,1.5934,0.1148c0,0,0.8604-0.1071,0.8605-0.107C253.4872,143.6473,253.2971,144.3416,253.107,145.036z
		"/>
	<path fill="#785647" d="M87.1036,1.9414c-0.7439,0.0392-1.4878,0.0784-2.2317,0.1174c0.7429-0.5934,1.4858-1.1866,2.2288-1.7805
		C87.1148,0.8322,87.1158,1.3868,87.1036,1.9414z"/>
	<path fill="#EDE9E6" d="M189.4069,33.4249c-0.825-0.4376-1.6499-0.8753-2.4751-1.3128
		C187.7566,32.5497,188.5818,32.9873,189.4069,33.4249z"/>
	<path fill="#876349" d="M87.1036,1.9414c0.0122-0.5546,0.0112-1.1092-0.0029-1.6631c0.6731-0.3332,1.3612-0.3676,2.0639-0.101
		c0.1055,0.5554,0.1386,1.1138,0.1005,1.672C88.5455,1.877,87.8245,1.9092,87.1036,1.9414z"/>
	<path fill="#ECA9A5" d="M253.4357,134.4718c0.6332-0.0617,1.2662-0.0598,1.896,0.0073c0.1187,0.714,0.0849,1.419-0.1013,2.1158
		c-0.5642-0.0452-1.1315-0.0453-1.6988-0.0008C253.3979,135.8913,253.3659,135.1838,253.4357,134.4718z"/>
	<path fill="#EE978F" d="M253.5316,136.5941c0.5673-0.0445,1.1346-0.0444,1.6988,0.0008c0.219,0.6903,0.2132,1.3781-0.0236,2.0639
		c-0.6135,0.0075-1.224,0.0144-1.834,0.0206C253.3229,137.9765,253.3757,137.2813,253.5316,136.5941z"/>
	<path fill="#FCC946" d="M185.297,130.2047c-10.8002,13.725-25.8978,10.6266-40.2256,10.1359
		c-8.4531-0.2895-16.8781-1.4943-25.3299-1.6987c-4.6656-0.1128-11.8468-1.2373-12.1057,5.0412
		c-0.1943,4.711,6.5744,5.1593,11.181,5.7835c28.1032,3.8079,54.7403-1.6243,80.5859-12.4857
		c3.2419-1.3624,7.8489-5.452,10.0348-0.5741c1.8037,4.0249-4.0676,4.8993-6.9378,6.3302
		c-28.2622,14.0905-58.4777,15.241-89.0515,12.4667c-6.3723-0.5782-14.4005-2.4733-13.3899-11.8682
		c0.9615-8.9386,8.1945-11.1404,15.6561-10.9802c15.8931,0.3412,31.7669,1.6832,47.6591,1.9276
		c7.5826,0.1167,16.2098-1.4505,16.865-10.8683c0.5965-8.5742-7.624-9.8861-14.1719-11.3712
		c-3.4192-0.7755-7.0264-0.6869-10.4804-1.3469c-7.9472-1.5187-18.4908-4.7406-21.3555,3.8752
		c-1.3224,3.977,11.5687,4.5089,18.4476,5.0879c2.865,0.2412,6.4411,0.5983,6.0704,4.31c-0.3822,3.8269-3.6839,3.1355-6.6694,2.6715
		c-10.1287-1.5742-25.5702,1.812-26.9745-10.9601c-1.5879-14.4413,15.1736-9.3209,23.6713-13.2368
		c5.067,0.7262,10.238,1.0292,15.1781,2.2614C177.1073,107.9861,192.9601,109.3261,185.297,130.2047z"/>
	<path fill="#FCC946" d="M180.7472,166.2832c-36.2645,2.9107-72.5429,5.6993-108.5804-2.0971
		c-11.5117-2.4904-22.6587-6.4443-31.6791-14.2304c-6.0043-5.1826-11.5034-11.5661-3.6226-19.7417
		c2.748-2.8508,6.7852-6.5286,9.9714-3.3428c4.8411,4.8405-2.4238,4.6113-4.207,6.7688c-5.618,6.7973,0.821,9.9457,4.7093,12.4288
		c13.3418,8.5202,28.2736,13.0542,43.9889,14.336c39.5802,3.2284,79.1386,5.6568,116.9938-10.5871
		c8.4307-3.6177,20.5834-8.1193,16.5219-17.8364c-3.9705-9.4993-16.1595-4.2196-24.867-1.4776
		c-3.6183,1.1394-7.1374,2.5947-10.7005,3.9064c4.3753-12.8937,25.731-17.1354,42.7095-8.4832
		c3.8684,16.5772-6.9193,23.7879-19.1577,30.0714c-0.7215,0.619-1.443,1.238-2.1645,1.857
		c-0.6809,0.0254-1.3575,0.0929-2.0302,0.2014c-0.7859,0.6063-1.5716,1.2139-2.3573,1.8215
		c-1.3481,0.1125-2.6962,0.225-4.0442,0.3375c-0.7653,0.6037-1.5306,1.2074-2.2959,1.811
		c-1.3657,0.0681-2.7314,0.1361-4.0971,0.2042c-1.4728,0.6443-2.9457,1.2886-4.4185,1.9329
		c-2.0886,0.1185-4.1773,0.237-6.2654,0.3539C183.6858,165.1051,182.2165,165.6942,180.7472,166.2832z"/>
	<path fill="#BDC2CE" d="M123.7006,80.9901c26.6937-0.3276,52.966,2.4538,78.501,10.6753
		c1.3537,5.8596,2.7074,11.7191,4.061,17.5785c-14.8864-2.8784-29.7728-5.7567-44.6592-8.6351
		c-7.3619-0.7496-14.8613-2.7658-22.0566-1.9818C125.1357,100.1972,120.5023,94.5186,123.7006,80.9901z"/>
	<path fill="#BEC2CE" d="M76.1445,85.3526c-0.7574,6.341,3.7913,13.8202-3.9856,18.6532
		c-23.2144,4.7072-45.5715,11.1511-61.4878,30.587c-7.0362-17.807,6.5335-24.9249,17.6513-32.3478
		C42.677,92.661,59.6177,89.3509,76.1445,85.3526z"/>
	<path fill="#EC9D03" d="M161.6034,100.6089c14.8864,2.8784,29.7728,5.7567,44.657,8.6332
		c8.6381,4.7007,17.2784,9.4032,25.9185,14.1062c-0.0224,0.806-0.0447,1.6116-0.067,2.4172c0,0-0.1268,0.1619-0.1268,0.1619
		c-16.9781-8.6528-38.3338-4.4111-42.7091,8.4826c-1.3278-1.4024-2.6544-2.8047-3.98-4.2061
		c7.6641-20.8778-8.1886-22.2178-21.3418-25.4984c-4.9401-1.2321-10.1111-1.5352-15.1781-2.2614
		C153.051,101.8327,157.3272,101.2208,161.6034,100.6089z"/>
	<path fill="#BEC3CD" d="M86.8951,100.8963c-0.541-5.8712-1.082-11.7423-1.6234-17.615c5.4706-0.0994,10.9415-0.1973,16.4129-0.2937
		c0.5069,3.1528,2.4149,5.6284,5.4275,4.3098c1.8187-0.7961,2.5541-4.0752,3.7762-6.2387c1.2021-0.0234,2.4041-0.0468,3.6062-0.0701
		c6.0189,20.3914-9.5276,17.7301-20.8581,19.5754C91.3893,100.6748,89.1422,100.7855,86.8951,100.8963z"/>
	<path fill="#FEFDFC" d="M112.2114,21.0441c0.9331,0.366,1.8662,0.7319,2.801,1.1025c-0.1743,16.7797-0.3504,33.5548-0.5262,50.3299
		c-1.1965,0.0046-2.3934,0.0092-3.5904,0.0137C111.3342,55.3413,111.7728,38.1927,112.2114,21.0441z"/>
	<path fill="#EBA210" d="M86.8951,100.8963c2.2471-0.1108,4.4941-0.2215,6.7413-0.3322c4.9199,1.2727,9.8398,2.5454,14.7591,3.8172
		C101.474,101.6978,92.7881,109.9427,86.8951,100.8963z"/>
	<path fill="#E6EBEF" d="M110.896,72.4903c1.1968-0.0047,2.3937-0.0093,3.5902-0.0139c0.003,2.8373,0.0064,5.6746,0.009,8.512
		c-1.2028,0.0236-2.4048,0.0469-3.6073,0.0695C110.8903,78.2016,110.8931,75.346,110.896,72.4903z"/>
	<path fill="#ECA618" d="M191.42,164.1639c1.4728-0.6443,2.9457-1.2886,4.4179-1.9345c-0.0282,0.6849-0.0391,1.3716-0.0331,2.0587
		l0.0074-0.0074C194.3481,164.2417,192.884,164.2028,191.42,164.1639z"/>
	<path fill="#ECA618" d="M180.7472,166.2832c1.4693-0.589,2.9386-1.178,4.4074-1.7654
		C183.6851,165.1073,182.2162,165.6952,180.7472,166.2832z"/>
	<path fill="#ECA618" d="M200.4251,164.4716c-1.5537,0.5309-3.1075,1.0618-4.6612,1.5926c0.0113-0.5947,0.0274-1.1891,0.0482-1.7835
		c0.0001-0.0001-0.0074,0.0074-0.0073,0.0073C197.345,164.3492,198.885,164.4104,200.4251,164.4716z"/>
	<path fill="#ECA618" d="M192.2684,166.767c-1.6537,0.5029-3.3074,1.0058-4.961,1.5086
		C188.9611,167.7727,190.6148,167.2699,192.2684,166.767z"/>
	<path fill="#99A8AD" d="M232.1791,123.3478c-8.6403-4.7026-17.2805-9.4052-25.9186-14.1058
		c-1.3515-5.8575-2.7052-11.717-4.0588-17.5766c16.218,5.1481,32.3103,10.6583,41.8387,26.2845
		c3.1529,5.1706,4.9695,11.0052,0.7608,16.7979c-3.2262-3.0582-6.4518-6.1134-9.6773-9.1686
		C234.1422,124.8355,233.1606,124.0917,232.1791,123.3478z"/>
	<path fill="#EA9E07" d="M235.1237,125.5793c3.2256,3.0552,6.4511,6.1104,9.6773,9.1686
		c-4.0403,13.5403-15.5704,18.4109-26.9945,23.4048c-0.918,0.4572-1.8352,0.9147-2.7523,1.3722
		c-0.6839,0.1879-1.3678,0.3757-2.0519,0.5634c-1.4718-0.0252-2.9434-0.0502-4.415-0.0753l0.0049,0.0148
		c0.0054-0.6568,0.0191-1.3133,0.0409-1.9698c0.6724-0.1098,1.3491-0.1774,2.0304-0.2026c0.7217-0.619,1.4429-1.2381,2.1641-1.8572
		c12.2385-6.2835,23.0261-13.4942,19.1577-30.0714c-0.0004,0.0006,0.1264-0.1614,0.1258-0.1605
		C233.115,125.7045,234.1194,125.6419,235.1237,125.5793z"/>
	<path fill="#EC9D00" d="M200.4251,164.4716c-1.5401-0.0612-3.0801-0.1225-4.6202-0.1836c-0.0061-0.687,0.0048-1.3737,0.033-2.0586
		c1.3663-0.0665,2.732-0.1345,4.0986-0.2018c0.7656-0.6034,1.5303-1.2076,2.2951-1.8118c1.3481-0.1125,2.6962-0.225,4.0456-0.3365
		c0.7726,0.0502,1.544,0.0994,2.3153,0.1485c0,0-0.0049-0.0148-0.0049-0.0148c-0.0009,0.6422-0.011,1.2842-0.0302,1.9261
		c-0.4594,0.3657-0.9807,0.517-1.5646,0.4538c-0.8828,0.4525-1.765,0.9052-2.6472,1.3579
		C203.0388,163.9911,201.7319,164.2313,200.4251,164.4716z"/>
	<path fill="#E9544E" d="M110.5141,185.5789c0.0402-0.6731,0.0523-1.3467,0.0362-2.0206c2.8341,0.0798,5.6683,0.1594,8.5025,0.2389
		c0.0076,0.5997,0.0057,1.1995-0.0055,1.7992C116.2029,185.5906,113.3585,185.5847,110.5141,185.5789z"/>
	<path fill="#EAA61E" d="M208.5573,161.9391c0.0192-0.6419,0.0293-1.2839,0.0302-1.9261c1.4715,0.025,2.9431,0.05,4.4149,0.0752
		C211.5208,160.7053,210.0391,161.3222,208.5573,161.9391z"/>
	<path fill="#F0645A" d="M119.0473,185.5964c0.0113-0.5997,0.0131-1.1995,0.0055-1.7992c1.4023,0.0012,2.8046,0.0024,4.2068,0.0036
		C121.8554,184.3994,120.4514,184.9979,119.0473,185.5964z"/>
	<path fill="#ECA412" d="M215.0543,159.5248c0.9172-0.4575,1.8344-0.915,2.7523-1.3722
		C216.8897,158.6102,215.972,159.0676,215.0543,159.5248z"/>
	<path fill="#EAA61E" d="M204.3456,163.7508c0.8822-0.4527,1.7644-0.9053,2.6472-1.3579
		C206.1107,162.8457,205.2281,163.2982,204.3456,163.7508z"/>
	<path fill="#F2776D" d="M252.8168,143.0599c-0.5295-0.0616-1.0606-0.0999-1.5934-0.1148c-0.0586-0.6718,0.0847-1.2973,0.4304-1.876
		C252.0417,141.7328,252.4292,142.3963,252.8168,143.0599z"/>
	<path fill="#FEFDFC" d="M85.2851,74.6339c1.3802-20.4982-4.6292-41.4536,3.7914-61.5175
		c-0.0012-0.0013,0.0689-0.3506,0.0689-0.3506c-0.0703,20.6183-0.1407,41.2366-0.211,61.8549
		C87.718,74.625,86.5015,74.6295,85.2851,74.6339z"/>
	<path fill="#E7E9E9" d="M85.2851,74.6339c1.2164-0.0044,2.4329-0.0089,3.6494-0.0135c0.4884,3.9175,1.9017,6.8426,6.6341,6.2041
		c0.7329,0.0601,1.4681,0.1187,2.2033,0.1772c1.3089,0.0091,2.6179,0.0182,3.9268,0.0274c0.1849,0.6537,0.1801,1.3061-0.0145,1.957
		c-5.4709,0.0979-10.9419,0.1958-16.4125,0.2952C85.2764,80.3998,85.2808,77.5169,85.2851,74.6339z"/>
	<path fill="#85624F" d="M91.4957,8.5773c4.3467,1.5008,8.6934,3.0017,13.0385,4.5015c-0.5428,1.4742-1.0841,2.9494-1.6313,4.4217
		c-1.6594-0.2712-3.3128-0.5394-4.9663-0.8076c-2.9304-1.3091-5.8607-2.6181-8.7911-3.9272c0,0-0.0701,0.3494-0.0689,0.3507
		C89.8837,11.6042,90.6897,10.0908,91.4957,8.5773z"/>
	<path fill="#85624F" d="M93.4203,6.857c-0.6272,0.5512-1.2544,1.1023-1.8811,1.6535C92.1666,7.9593,92.7934,7.4081,93.4203,6.857z"
		/>
	<path fill="#85624F" d="M95.7872,2.3869c0.7144,0.0163,1.4144,0.1254,2.1001,0.3276c-0.0928,0.6464-0.1982,1.2905-0.3167,1.9338
		C96.9758,3.8954,96.3815,3.1411,95.7872,2.3869z"/>
	<path fill="#9C8074" d="M144.7836,21.1905c1.3712-0.0035,2.7424-0.007,4.1132-0.0113
		C147.5255,21.1824,146.1546,21.1864,144.7836,21.1905z"/>
	<path fill="#C3B2AB" d="M163.7404,23.6587c1.459,0.6372,2.9179,1.2745,4.3767,1.9113c-0.0002-0.0004,0.2721,0.3272,0.2721,0.3272
		c-0.979-0.0675-1.9579-0.135-2.9369-0.2025l-0.8645,0.0533c0,0-0.7973-0.3389-0.7967-0.3371
		C163.8324,24.8264,163.8153,24.2417,163.7404,23.6587z"/>
	<path fill="#F2EFED" d="M172.2926,25.8808c0.037,0.5879,0.0637,1.1764,0.08,1.765c-0.7182-0.0873-1.4365-0.1744-2.1546-0.2597
		c0.0147-0.5165,0.0139-1.0347-0.0024-1.5529C170.9147,25.5552,171.607,25.571,172.2926,25.8808z"/>
	<path fill="#F8F7F6" d="M170.2156,25.8332c0.0163,0.5182,0.0171,1.0364,0.0024,1.5529c-0.0001-0.0018-0.9709,0.2145-0.9709,0.2145
		s-0.9673-0.2317-0.9673-0.2317c-0.0872-0.4998-0.0507-0.9903,0.1094-1.4717c0,0-0.2723-0.3276-0.2721-0.3272
		C168.8168,25.658,169.5162,25.7456,170.2156,25.8332z"/>
	<path fill="#C8BAB3" d="M168.3891,25.8973c-0.1601,0.4813-0.1966,0.9719-0.1094,1.4717c-0.9404-0.5585-1.8807-1.117-2.8243-1.6748
		C166.4312,25.7622,167.4102,25.8297,168.3891,25.8973z"/>
	<path fill="#DBD2CD" d="M163.7404,23.6587c0.0749,0.583,0.092,1.1677,0.0506,1.7522c-0.0007-0.0018-1.0453,0.0712-1.0453,0.0712
		s-1.0153-0.2569-1.0154-0.2549c-0.0152-0.5046-0.0144-1.0113,0.0024-1.5178C162.3961,23.4607,163.0654,23.4438,163.7404,23.6587z"
		/>
	<path fill="#D6CBC6" d="M161.7327,23.7094c-0.0168,0.5066-0.0177,1.0132-0.0024,1.5178c0.0001-0.002-0.9489,0.218-0.9489,0.218
		s-0.9621-0.1528-0.9624-0.1526c-0.1137-0.5697-0.1298-1.1425-0.0486-1.7179C160.4382,23.4202,161.0923,23.4651,161.7327,23.7094z"
		/>
	<path fill="#A68E83" d="M159.7705,23.5748c-0.0812,0.5755-0.0651,1.1482,0.0486,1.7179c-0.8189-0.6268-1.6381-1.2534-2.4574-1.88
		C158.1645,23.4667,158.9675,23.5207,159.7705,23.5748z"/>
	<path fill="#AD958A" d="M155.2394,21.4284c0.7513,0.6905,1.5025,1.381,2.2542,2.0716c-0.7487-0.0922-1.4978-0.1844-2.246-0.274
		C155.305,22.6284,155.3019,22.0282,155.2394,21.4284z"/>
	<path fill="#BFACA4" d="M155.2394,21.4284c0.0625,0.5998,0.0656,1.2,0.0082,1.7977c-0.001-0.0027-0.9653,0.0778-0.9653,0.0778
		s-0.9494-0.1876-0.9498-0.1868c-0.0607-0.5495-0.0554-1.0992,0.0157-1.6482C153.9759,21.328,154.6063,21.3145,155.2394,21.4284z"/>
	<path fill="#A68E83" d="M153.3482,21.4688c-0.0711,0.549-0.0764,1.0987-0.0157,1.6482c-0.692,0.1692-1.3938,0.2299-2.1037,0.1807
		C151.936,22.6876,152.6421,22.0782,153.3482,21.4688z"/>
	<path fill="#FCC947" d="M102.9088,17.5035c0.5413-1.4752,1.0826-2.9504,1.6254-4.4247c0.0016,0.001-0.2215-0.0924-0.2214-0.0935
		c0.6253-0.8042,1.2504-1.6075,1.8756-2.4107c0,0,0.0798-0.1164,0.0798-0.1157c0.5871-0.689,1.1743-1.3787,1.7615-2.0683
		c0,0,0.3326-0.33,0.3325-0.3288c0.7578-0.5684,1.5158-1.1379,2.2737-1.7074c0.706,0.0445,1.3878-0.0635,2.0456-0.3244
		c2.1579,0.604,4.3159,1.2083,6.4739,1.8112c1.1839,1.0103,2.3677,2.0219,3.5504,3.0339c-2.6861,1.2728-5.3712,2.5452-8.0569,3.817
		c-0.8106,2.1176-1.6206,4.2357-2.434,6.3529c-0.442,17.1477-0.8806,34.2962-1.319,51.4451
		c-0.0027,2.8559-0.0055,5.7115-0.0079,8.5679c-1.2217,2.1642-1.9571,5.4434-3.7758,6.2395
		c-3.0126,1.3186-4.9206-1.157-5.4275-4.3098c0.1942-0.6525,0.199-1.3048,0.0167-1.9585c-0.0092-2.1542-0.021-4.3084-0.0328-6.4625
		C102.0819,55.5455,102.4953,36.5245,102.9088,17.5035z"/>
	<path fill="#85624F" d="M106.1883,10.5747c-0.6252,0.8032-1.2503,1.6064-1.8756,2.4107
		C104.9379,12.1825,105.5631,11.3786,106.1883,10.5747z"/>
	<path fill="#85624F" d="M108.0296,8.3906c-0.5872,0.6897-1.1743,1.3794-1.7615,2.0683
		C106.8553,9.7691,107.4425,9.0799,108.0296,8.3906z"/>
	<path fill="#85624F" d="M110.6358,6.3544c-0.7579,0.5695-1.5159,1.1391-2.2737,1.7074
		C109.1201,7.4919,109.878,6.9231,110.6358,6.3544z"/>
	<path fill="#ECA412" d="M212.8278,155.9982c-0.7212,0.6191-1.4424,1.2382-2.1641,1.8572
		C211.3848,157.2363,212.1063,156.6173,212.8278,155.9982z"/>
	<path fill="#ECA412" d="M208.5924,160.0278c-0.7713-0.0492-1.5426-0.0983-2.3153-0.1485c0.7843-0.6086,1.57-1.2163,2.3559-1.8226
		C208.6115,158.7144,208.5978,159.371,208.5924,160.0278z"/>
	<path fill="#EAA61E" d="M202.2315,160.2158c-0.7648,0.6042-1.5295,1.2084-2.2951,1.8118
		C200.7009,161.4231,201.4662,160.8195,202.2315,160.2158z"/>
	<path fill="#EC9C00" d="M235.1237,125.5793c-1.0043,0.0626-2.0087,0.1253-3.0124,0.187c0.0229-0.8064,0.0452-1.612,0.0676-2.4181
		C233.1606,124.0917,234.1422,124.8355,235.1237,125.5793z"/>
	<path fill="#EC9C00" d="M89.1454,12.7657c2.9304,1.3091,5.8607,2.6181,8.7905,3.9284c0.0687,19.2981,0.138,38.5951,0.2072,57.892
		c-0.2096,1.433-0.4193,2.866-0.629,4.299c-0.6478,0.6459-1.2956,1.2919-1.9434,1.9378c-4.7347,0.64-6.1479-2.285-6.6363-6.2025
		C89.0048,54.0023,89.0751,33.384,89.1454,12.7657z"/>
	<path fill="#E5EAEE" d="M97.5142,78.8851c0.2096-1.433,0.4193-2.866,0.629-4.2988c1.1751-0.0065,2.3502-0.0131,3.5253-0.0198
		c0.0118,2.1542,0.0236,4.3084,0.0328,6.4625c-1.3116-0.0092-2.6205-0.0183-3.9294-0.0268
		C97.6861,80.2969,97.6002,79.591,97.5142,78.8851z"/>
	<path fill="#BEC3CD" d="M97.5142,78.8851c0.0859,0.7059,0.1719,1.4118,0.2577,2.1171c-0.7353-0.0591-1.4704-0.1177-2.2034-0.1778
		C96.2186,80.177,96.8664,79.5311,97.5142,78.8851z"/>
	<path fill="#FDFCFB" d="M101.6685,74.5666c-1.1751,0.0067-2.3502,0.0134-3.5253,0.0198
		c-0.0693-19.2972-0.1386-38.5941-0.2073-57.8922c1.6541,0.267,3.3075,0.5352,4.9669,0.8064
		C102.4953,36.5245,102.0819,55.5455,101.6685,74.5666z"/>
</g>
</svg>
