<?xml version="1.0" encoding="utf-8"?>
<!-- Generator: Adobe Illustrator 21.0.2, SVG Export Plug-In . SVG Version: 6.00 Build 0)  -->
<svg version="1.1" id="Layer_1" xmlns="http://www.w3.org/2000/svg" xmlns:xlink="http://www.w3.org/1999/xlink" x="0px" y="0px"
	 width="256px" height="256px" viewBox="0 0 256 256" enable-background="new 0 0 256 256" xml:space="preserve">
<g>
	<path fill="#FDDF61" d="M191.8,163.9c-2.5,5.1-1,11.9-6.3,15.7c-4.5-0.7-4.8-6.9-9.6-6.5c-2.9-6.6-7.3-2.7-10.5-1
		c-28.6,15.3-57.2,30.6-85.5,46.4c-5.2,2.9-11.5,5.6-12.6,12.9c-0.6,0.8-1.4,1.4-1.8,2.3c-7.3,14.9-7.3,14.9-19.8,5.5
		c-2.3-6-6.6-3.6-10.4-2.3c-5.5,1.9-11,3.3-16.8,2.7c-1.1-12.6,2.5-24.5,5.8-36.4c3.2-0.6,6.4-1,9.6-1.8c19.8-4.7,31.2-17,31.1-33.6
		c-1.6-14.3-12.6-18.3-23.7-22.1c1.8-10.3,6-19.8,9.5-29.5c18.9,5.7,39.2-11.6,38-32.1C87,72.8,79.5,66.4,69.7,62.2
		c0.7-4.1,1.3-8.1,2-12.2c10.4,3.1,20.8,5.9,31.7,5.8c11.4-0.1,22,2.5,32.1,7.8c9,4.7,18,9.5,27.1,14c24.7,12,43.1,30.7,56.8,54.4
		c-1.6,6.7-6.7,10.2-12.3,13C199.2,149.1,193,154.4,191.8,163.9z M142.8,106.4c0.5-0.8,1.1-1.6,1.6-2.4c5.5-12.3,3.9-21.3-4.9-28.1
		c-9.7-7.5-19.7-7-29.4,1.6c-6.7,6-11.9,13.1-12.8,22.5c0,10.5,4.7,17,14,19.6c12.5,3.5,24.1-1.4,31.7-13.2H142.8z M142.7,128
		c-3.9,6.9-2.7,13.3,1.8,19.3c7.7,10.1,23.3,13.9,35.4,8.6c13.7-5.9,21.7-18.8,20.1-32.3c-4.7-17.9-19.9-25.6-36.3-18.1
		C153.8,110,146.5,117.4,142.7,128z M138.5,161.7c1.9-12.7-3.8-23.1-15.7-28.5c-20.7-9.4-43.7,3.9-49.4,28.6c-1.7,7.5-1,14.9,5,20
		c10.9,9.4,23.7,12.4,37.3,7.7C128.6,185,137.3,176.3,138.5,161.7z M68.1,206.1c5,4.7,8.8,4,11.9-0.7c1.9-2.8,0.9-5-2-6.2
		C71.5,196.5,70.7,202.1,68.1,206.1z M32.3,214.7c7.8,7.8,10.3,0.2,14.4-3.8C39.5,204.5,36.2,209.8,32.3,214.7z M65.1,133.7
		c0.2-3.3-2.3-4.6-4.8-5.1c-3.4-0.6-5.6,2-6.1,4.9c-0.5,3,2.1,5.1,4.6,5.5C62.2,139.6,63.7,136.6,65.1,133.7z M79.3,121.7
		c3.7,4.1,6.8,5,10.1,0.7c1.4-1.9,1.6-3.8-0.4-5.1C84.2,114.1,82,117.8,79.3,121.7z"/>
	<path fill="#E98803" d="M73.1,16c3.3-9.2,10.8-8.5,18-7.3c13.9,2.4,27.5,6.5,41.5,7.8c36.8,3.6,66.4,22.9,95.1,43.8
		c12.3,8.9,21.4,21.4,23.7,37.5c-2.8-0.1-5.6-0.2-8.4-0.3c-1.5-1.8-2.7-1.5-3.8,0.4l0.1-0.1c-6.8,1-12.1-2-17-6.2
		c-5.9-5.2-11.7-10.6-17.7-15.7c-15-12.7-31.5-23.1-50.7-27.4c-10.5-2.3-20.2-5.9-28.6-12.4c-10.8-8.3-22.3-10-35.2-6.9
		C76.3,32.6,73.8,30.3,73.1,16z"/>
	<path fill="#AC5C10" d="M73.1,16c0.7,14.3,3.3,16.6,16.8,13.4c12.9-3.1,24.5-1.4,35.2,6.9c8.4,6.5,18.1,10,28.6,12.4
		c19.2,4.3,35.7,14.7,50.7,27.4c6,5.1,11.8,10.5,17.7,15.7c4.9,4.2,10.2,7.2,17,6.2c-9.8,6-11.2,17-15,26.5
		c-12.7-23.3-27-44.7-54.4-52.6c-4.3-1.3-8.6-3.3-12.4-5.8C131.2,48.8,102.5,42,71.5,44.2C63.3,34.3,68,25.1,73.1,16z"/>
	<path fill="#AC5C10" d="M71.5,44.2c31-2.2,59.7,4.7,85.9,21.8c3.8,2.5,8.1,4.5,12.4,5.8c27.3,7.9,41.7,29.3,54.4,52.6
		c-1,2.9-1.2,6.4-4.8,7.6c-13.7-23.7-32.1-42.4-56.8-54.4c-9.1-4.5-18.1-9.2-27.1-14c-10.1-5.3-20.7-7.9-32.1-7.8
		C92.4,55.9,82,53,71.6,50C71.6,48.1,71.5,46.1,71.5,44.2z"/>
	<path fill="#E4BB5F" d="M219.3,132c3.7-1.2,3.8-4.7,4.8-7.6c3.9-9.5,5.2-20.4,15-26.5L239,98c1.3-0.1,2.6-0.3,3.8-0.4
		c2.8,0.1,5.6,0.2,8.4,0.3l-0.3-0.1c-0.4,1.9,0.5,3.2,2.1,4.2c5.1,13-0.9,23-9.3,31.6c-14.5,14.9-33.6,22.1-52.1,30.3
		c1.2-9.5,7.4-14.8,15.3-18.9C212.6,142.1,217.8,138.7,219.3,132z"/>
	<path fill="#E6BF63" d="M67.3,231.4c1.2-7.3,7.5-10,12.6-12.9c28.3-15.8,56.9-31.1,85.5-46.4c3.3-1.7,7.6-5.7,10.5,1
		c-32.7,19.8-65.6,39.2-100.4,55.2C72.8,229.5,70,230.4,67.3,231.4z"/>
	<path fill="#C41916" d="M41.3,145.7c11.1,3.9,22.2,7.8,23.7,22.1c-4.8,1.7-3.5,9.5-9.6,9.9c4-14.5,2.2-19.6-9.7-25.3
		c0.4,10.2-2.2,20.3,7.7,27.3c-4.6,12.5-16.1,11.8-26.2,13.8C31.5,177.4,35.3,161.2,41.3,145.7z"/>
	<path fill="#C41B17" d="M69.7,62.2c9.8,4.2,17.3,10.6,19.1,21.9c-1.1,1.2-2.7,2.1-3.2,3.5c-5.1,14.6-16.3,19.5-30.4,20.2
		C60.5,92.7,65.9,77.7,69.7,62.2z M75.9,94.9c7.6-11,6.8-18-2.1-24.8C69,78.6,73.8,85.6,75.9,94.9z"/>
	<path fill="#B50F0B" d="M27.3,193.5c10.1-2,21.5-1.3,26.2-13.8c0.7-0.7,1.3-1.3,2-2c6.1-0.4,4.8-8.2,9.6-9.9
		c0,16.6-11.3,28.9-31.1,33.6c-3.2,0.8-6.4,1.2-9.6,1.8C23.4,199.3,25.5,196.4,27.3,193.5z"/>
	<path fill="#B30C09" d="M55.1,107.8c14.1-0.7,25.3-5.6,30.4-20.2c0.5-1.4,2.1-2.4,3.2-3.5c1.2,20.6-19.1,37.8-38,32.1
		C52.2,113.4,53.7,110.6,55.1,107.8z"/>
	<path fill="#E9C56F" d="M18.5,239.5c5.8,0.6,11.3-0.9,16.8-2.7c3.7-1.3,8.1-3.7,10.4,2.3C36.6,240.6,27.7,247.9,18.5,239.5z"/>
	<path fill="#E98803" d="M253.1,101.9c-1.6-0.9-2.5-2.2-2.1-4.2C253.2,98.4,253,100.2,253.1,101.9z"/>
	<path fill="#C21614" d="M73.5,161.8c5.7-24.7,28.6-38,49.4-28.6c11.8,5.3,17.6,15.7,15.7,28.5c-0.7,0.7-1.6,1.3-2,2.1
		c-7.8,15.8-21.4,20.8-37.6,19.8C85.4,182.7,78.3,173.5,73.5,161.8z M92.9,141.4c6.9,11.2,17.6,16,28.3,20.7c3.4,1.5,7,3,9.9-0.4
		c2.6-3,3.6-6.4,2.2-10.9C128.7,137,106.5,131.1,92.9,141.4z"/>
	<path fill="#C31814" d="M142.7,128c3.7-10.6,11-18,21-22.5c16.5-7.5,31.7,0.2,36.3,18.1c-1.5,0.9-2,2.4-2.5,4
		c-4.7,14.5-15.3,22.4-29.6,22.2C154.4,149.6,147.3,143.4,142.7,128z M174.3,111.9c-2.3,0-3.9-0.1-5.5,0c-3.3,0.2-7,0.6-8.1,4.3
		c-1.1,3.9,2.4,5.7,5.1,7.5c5,3.4,10.8,4.5,16.5,5.8c3.3,0.8,7.8,1.8,9.9-1.9c2.4-4.2-1.4-7.1-3.8-10.1
		C184.6,112.5,179.6,111,174.3,111.9z"/>
	<path fill="#C21814" d="M97.2,99.9c0.9-9.5,6.1-16.5,12.8-22.5c9.6-8.6,19.7-9,29.4-1.6c8.8,6.8,10.4,15.8,4.9,28.1
		c-3.6-1.3-1.2,1.5-1.6,2.4h0.1c-3.6-1.1-6.1,1-9,2.5c-9.5,5-18.8,3.3-28-1.4C102.3,105.6,101.8,100.5,97.2,99.9z M139.7,98
		c5.2-7.7,0.8-13.5-3.2-18s-9.8-6.2-15.6-0.9C124.2,88,130.3,93.7,139.7,98z"/>
	<path fill="#B30C08" d="M142.7,128c4.5,15.4,11.6,21.6,25.2,21.8c14.3,0.2,24.9-7.7,29.6-22.2c0.5-1.6,1-3.1,2.5-4
		c1.6,13.5-6.4,26.4-20.1,32.3c-12.1,5.2-27.7,1.5-35.4-8.6C140.1,141.3,138.9,134.8,142.7,128z"/>
	<path fill="#B4100A" d="M73.5,161.8c4.8,11.7,11.9,20.9,25.4,21.7c16.3,1,29.8-4,37.6-19.8c0.4-0.8,1.3-1.4,2-2.1
		c-1.2,14.6-9.9,23.3-22.7,27.8c-13.7,4.8-26.5,1.7-37.3-7.7C72.5,176.7,71.8,169.3,73.5,161.8z"/>
	<path fill="#B30B08" d="M97.2,99.9c4.5,0.5,5.1,5.6,8.6,7.5c9.2,4.8,18.5,6.4,28,1.4c2.9-1.5,5.5-3.6,9-2.5
		c-7.6,11.8-19.1,16.7-31.7,13.2C101.9,117,97.2,110.4,97.2,99.9z"/>
	<path fill="#FDDF61" d="M68.1,206.1c2.7-4,3.5-9.6,9.9-6.9c2.9,1.2,3.9,3.5,2,6.2C76.8,210.1,73,210.8,68.1,206.1z"/>
	<path fill="#FDDF61" d="M32.3,214.7c3.9-4.9,7.1-10.2,14.4-3.8C42.7,214.9,40.2,222.6,32.3,214.7z"/>
	<path fill="#FDDF61" d="M65.1,133.7c-1.4,2.9-3,5.9-6.3,5.3c-2.4-0.4-5.1-2.5-4.6-5.5s2.7-5.6,6.1-4.9
		C62.8,129,65.4,130.4,65.1,133.7z"/>
	<path fill="#FDDF61" d="M79.3,121.7c2.7-3.9,4.9-7.6,9.7-4.4c2,1.3,1.8,3.2,0.4,5.1C86.1,126.7,83,125.8,79.3,121.7z"/>
	<path fill="#B30B08" d="M142.8,106.4c0.4-0.9-2-3.7,1.6-2.4C143.8,104.8,143.3,105.6,142.8,106.4z"/>
	<path fill="#AC5C10" d="M242.9,97.6c-1.3,0.1-2.6,0.3-3.8,0.4C240.1,96.1,241.4,95.8,242.9,97.6z"/>
	<path fill="#C21814" d="M55.4,177.7c-0.7,0.7-1.3,1.3-2,2c-9.9-7-7.3-17.1-7.7-27.3C57.7,158.1,59.4,163.2,55.4,177.7z"/>
	<path fill="#C21814" d="M75.9,94.9c-2.1-9.3-6.9-16.3-2.1-24.8C82.7,76.9,83.6,83.9,75.9,94.9z"/>
	<path fill="#C21814" d="M92.9,141.4c13.6-10.3,35.8-4.4,40.3,9.4c1.5,4.5,0.5,7.9-2.2,10.9c-2.9,3.4-6.4,1.9-9.9,0.4
		C110.5,157.3,99.9,152.6,92.9,141.4z"/>
	<path fill="#C21814" d="M174.3,111.9c5.3-0.9,10.3,0.6,14.1,5.5c2.3,3.1,6.1,6,3.8,10.1c-2.1,3.6-6.6,2.7-9.9,1.9
		c-5.7-1.3-11.5-2.4-16.5-5.8c-2.7-1.8-6.2-3.6-5.1-7.5c1-3.6,4.8-4,8.1-4.3C170.4,111.8,172,111.9,174.3,111.9z"/>
	<path fill="#C21814" d="M139.7,98c-9.4-4.2-15.5-10-18.7-18.9c5.7-5.3,11.6-3.6,15.6,0.9C140.5,84.4,144.9,90.2,139.7,98z"/>
</g>
</svg>
