<?xml version="1.0" encoding="utf-8"?>
<!-- Generator: Adobe Illustrator 21.0.2, SVG Export Plug-In . SVG Version: 6.00 Build 0)  -->
<svg version="1.1" id="Layer_1" xmlns="http://www.w3.org/2000/svg" xmlns:xlink="http://www.w3.org/1999/xlink" x="0px" y="0px"
	 width="256px" height="256px" viewBox="0 0 256 256" enable-background="new 0 0 256 256" xml:space="preserve">
<g>
	<path fill="#FCC948" d="M185.625,249.9637c-26.2615-16.623-53.1244-32.3947-78.6363-50.08
		c-33.5119-23.2313-65.8555-48.1123-98.958-71.9337c-6.2479-4.4963-8.5245-9.3427-7.9431-16.8966
		c1.5864-20.6142,3.0053-41.2053,13.5587-59.7323c5.0588-8.8809,11.5967-16.3071,22.5876-18.0871
		c18.387-0.8388,34.063,5.487,48.4754,16.6097c20.7865,16.0421,32.6486,38.3368,43.542,60.9256
		C150.0788,156.0325,159.6511,206.321,185.625,249.9637z M26.817,93.0698c-1.4523-12.0706-2.9049-24.1409-4.3572-36.2114
		C14.8055,69.9489,16.9176,81.9059,26.817,93.0698z M106.9585,128.1965c-2.194-14.321-3.9319-25.6629-5.9988-39.1544
		C94.3506,104.0676,96.194,118.174,106.9585,128.1965z M48.4016,82.4659c-1.4167-11.4712-2.8334-22.9426-4.2504-34.4138
		C36.635,60.7116,38.3021,72.1486,48.4016,82.4659z M64.6917,105.18c-1.2482,0.2229-2.4962,0.4456-3.7444,0.6686
		c-0.4124,12.1745-2.8022,24.7293,8.5683,34.6597C67.9078,128.7322,66.2998,116.9561,64.6917,105.18z M77.3479,53.9509
		c-1.0699,0.1653-2.1401,0.3305-3.21,0.4955c-1.0673,12.2084-2.8403,24.5283,8.3998,34.796
		C80.8078,77.4785,79.078,65.7147,77.3479,53.9509z M35.9809,136.7816c1.9334-0.1908,3.8665-0.3817,5.8001-0.5725
		c-1.2594-10.9099-2.5186-21.82-3.7778-32.7301c-1.7212,0.1833-3.4427,0.3668-5.1639,0.5501
		C33.8864,114.9465,34.9337,125.8642,35.9809,136.7816z M94.2897,173.0489c-1.3533-11.1602-2.7068-22.3207-4.0601-33.4812
		c-1.1062,0.1415-2.2126,0.283-3.3188,0.4245C86.847,151.4271,83.1149,163.3274,94.2897,173.0489z M120.7621,141.7442
		c-1.5507,0.1407-3.1017,0.2812-4.6525,0.4219c0.8906,10.9979,1.781,21.9957,2.6714,32.9938
		c1.6362-0.1431,3.2726-0.2861,4.9088-0.4292C122.7141,163.7352,121.7382,152.7397,120.7621,141.7442z M11.5284,93.2369
		c-1.6625,0.2334-3.3251,0.4665-4.9875,0.6999c0.9657,7.8476,1.9314,15.6952,2.8971,23.5425
		c1.3295-0.1527,2.6591-0.3055,3.9886-0.4582C12.7941,109.0931,12.1614,101.1649,11.5284,93.2369z M142.3812,213.859
		c1.4625-0.2624,2.925-0.5245,4.3876-0.7866c-0.702-4.4444-1.4996-8.8762-2.0788-13.336
		c-0.5462-4.2052-0.8625-8.4399-1.2799-12.6616c-1.2059,0.1632-2.4115,0.3261-3.6175,0.4892
		C140.6555,196.3291,141.5185,205.0941,142.3812,213.859z"/>
	<path fill="#FCE163" d="M185.625,249.9637c-25.9739-43.6427-35.5462-93.9312-57.3737-139.1943
		c-10.8934-22.5889-22.7555-44.8835-43.542-60.9256C70.2968,38.7212,54.6209,32.3953,36.2338,33.2341
		c0.7322-0.714,1.4668-1.4267,2.1973-2.1397c8.2776-0.5268,16.559-1.0529,24.8356-1.5823
		c4.8219,1.5841,9.6486,3.1714,14.4754,4.7587c12.1258,9.6364,24.2518,19.2731,36.3776,28.9095
		c2.2387,2.3827,4.4774,4.7655,6.7162,7.1482c0.7113,1.2709,1.4226,2.5417,2.1336,3.8128
		c2.9862,5.8763,5.9727,11.7526,8.9592,17.6289c5.8106,12.0385,11.6215,24.0767,17.4322,36.1151
		c3.7726,10.0369,7.5453,20.0735,11.3176,30.1104c8.371,22.6659,16.7415,45.332,25.1125,67.9981
		c1.2058,2.1452,2.412,4.2901,3.6179,6.4352c1.7208,2.8386,3.4414,5.6771,5.1624,8.5157
		c9.4846,9.1965,16.3954,7.9677,25.3634-4.5099l-0.1088-0.184c2.4388-2.3681,5.8996-4.3018,7.1439-7.1774
		c6.2451-14.4301,11.9105-29.1066,17.7795-43.6967c0.5207,23.3021-6.0613,44.247-22.4842,61.2253
		C211.0077,258.2405,200.1406,258.7227,185.625,249.9637z"/>
	<path fill="#81B321" d="M215.7653,19.5455c7.9043,1.0792,8.3206,7.0707,7.7994,12.8057
		c-1.3318,14.652,4.3214,24.6043,18.5377,29.558c8.9289,3.1114,6.9851,8.2481,2.379,13.755
		c-13.2031-12.741-13.2175-12.7689-29.7218-4.2212c-2.8037,1.452-5.4207,3.2581-8.1239,4.9004
		c-7.0645-1.3233-14.1287-2.6464-21.1918-3.9724c7.4117-12.8232-1.6878-18.4369-10.7035-24.0868
		c10.9976-0.012,21.9952-0.0238,32.993-0.0358c4.6267,2.4336,9.2537,4.867,13.8894,7.2941c0.5794,0.7738,1.1503,1.5541,1.721,2.3344
		c-0.2294-1.0623-0.4588-2.1248-0.6882-3.1871c-4.0232-5.1511-8.0463-10.3019-12.0695-15.4529
		C212.3128,32.6731,214.039,26.1091,215.7653,19.5455z"/>
	<path fill="#E72129" d="M207.7338,48.2484c-10.9979,0.012-21.9955,0.0238-32.9909,0.0371
		c-0.8633-2.0175-1.7286-4.0363-2.594-6.0551c3.858-0.8662,7.7163-1.7322,11.966-2.6864c-7.888-2.1799-14.8133-4.0937-21.739-6.0076
		c-0.2171-0.6132-0.2935-1.2432-0.2281-1.8909c4.0232-4.1695,8.0456-8.3381,12.0684-12.5065
		c1.6552-1.1847,3.3101-2.3692,4.9653-3.5539c0.9856-0.3765,2.0009-0.6913,2.9526-1.139
		c18.5731-8.7365,18.5713-8.7396,33.6366,5.1028c-1.7316,6.5603-3.458,13.1242-5.1766,19.6895
		C209.6458,42.2427,208.6898,45.2457,207.7338,48.2484z"/>
	<path fill="#D6912A" d="M244.7495,185.3766c-5.8692,14.5901-11.5345,29.2666-17.7795,43.6967
		c-1.2446,2.8756-4.7054,4.8093-7.1421,7.179c1.4681-5.5189,2.9345-11.0394,4.4008-16.5598
		c1.4823-2.9041,2.9646-5.8082,4.4471-8.7122c3.2925-8.1677,11.3298-15.0835,6.6039-25.4324
		c-0.4418-0.967,0.9665-3.4998,2.1917-4.3582c7.641-5.3534,4.2916-10.0403-0.595-14.7642
		c-1.321-4.4112-2.6418-8.8224-3.9628-13.2334c0.4611-2.7258,0.1852-5.8883,1.518-8.0974
		c4.4565-7.3863,1.5723-11.0644-5.7608-13.0746c0.7948-8.4013,1.5881-16.8018,2.3814-25.2024
		c2.4507-0.3498,4.9012-0.6997,7.3519-1.0495c3.1365,0.1788,6.2729,0.3577,9.4094,0.5365
		C251.9943,132.8599,250.4514,159.1974,244.7495,185.3766z"/>
	<path fill="#FADB2C" d="M162.3757,33.5364c6.9255,1.9139,13.8512,3.8277,21.739,6.0076c-4.2495,0.9542-8.1078,1.8201-11.9619,2.685
		c-10.0425,1.4413-20.0891,2.884-30.1356,4.3266c-7.0558-0.6545-14.1116-1.309-21.1674-1.9635
		c-11.8338-3.6502-23.6679-7.3007-35.5017-10.9509c-7.4758-5.6635-14.9517-11.3271-22.4277-16.9906
		c-0.8634-2.2441-1.7266-4.4882-2.59-6.7323c2.0958,0.4621,4.1917,0.9242,6.2884,1.3782
		c9.3074,4.4496,18.6143,8.9067,27.9209,13.3641c11.7956,2.8391,23.4622,6.6101,35.4255,8.2384
		C140.5979,34.3462,151.5594,33.4169,162.3757,33.5364z"/>
	<path fill="#FCDB2E" d="M185.4429,72.3736c7.0645,1.3233,14.1288,2.6464,21.1961,3.9695
		c12.8893,1.3481,25.776,2.6968,38.6625,4.0452c2.8186,0.5307,5.6371,1.0615,10.6985,2.0146
		c-5.378,2.3094-8.5955,3.6909-11.8125,5.0727c0.0004,0.0003-0.7791,0.1953-0.7786,0.1945
		c-15.4282,0.6059-30.8564,1.2132-46.2851,1.8201c-4.4853-0.7479-8.9707-1.4959-13.4558-2.2439
		c-5.9341-2.2679-11.868-4.5357-17.8021-6.8036c0.7074-3.3944,1.415-6.7887,2.1232-10.1823
		C173.8076,70.9657,179.6254,71.6698,185.4429,72.3736z"/>
	<path fill="#AAE138" d="M162.3757,33.5364c-10.8163-0.1196-21.7781,0.8098-32.4106-0.6373
		c-11.9635-1.6283-23.6299-5.3993-35.4258-8.2368c0.8503-5.5808,1.7007-11.1631,2.5512-16.7452
		c0.7149-0.0632,1.4299-0.1264,2.1446-0.1895c2.2503,2.9868,4.5009,5.9734,6.7513,8.96c3.9431,2.0452,7.6721,5.0062,11.868,5.9695
		c14.6772,3.3688,29.5154,6.0481,44.2925,8.9892C162.0823,32.2932,162.1587,32.9232,162.3757,33.5364z"/>
	<path fill="#A9E53E" d="M60.3303,9.9185c0.8634,2.2441,1.7268,4.4882,2.5887,6.7336c0.1168,4.2885,0.2346,8.576,0.3526,12.8632
		c-8.2815,0.5263-16.5629,1.0524-24.8405,1.5792c-0.0291-4.8991-1.0182-10.022,0.084-14.6567
		C41.8607,2.369,49.5997,0.2562,60.3303,9.9185z"/>
	<path fill="#89C02B" d="M179.1814,15.5851c-1.6553,1.1847-3.3101,2.3692-4.9633,3.5481
		c-12.7527-1.8019-25.5076-3.598-38.2625-5.3944c2.1427-2.1047,4.2854-4.2094,6.428-6.3141
		c4.2795-1.5395,8.4622-3.4669,12.8572-4.5451C168.0428-0.2615,172.8171,2.4003,179.1814,15.5851z"/>
	<path fill="#E8282B" d="M97.0906,7.9171c-0.8505,5.5821-1.701,11.1644-2.5512,16.7452
		c-9.3064-4.459-18.6132-8.9161-27.9207-13.3657c7.4829-3.0845,14.9666-6.1768,22.4482-9.2712
		c0.6274,0.4976,1.257,0.9967,1.8867,1.4959c0,0-0.208-0.178-0.2074-0.1773c1.4219,0.8378,2.843,1.6747,4.2642,2.512l-0.085-0.0702
		c0.745,0.7331,1.4899,1.4664,2.2349,2.1997L97.0906,7.9171z"/>
	<path fill="#80B725" d="M142.3839,7.4248c-2.1427,2.1047-4.2854,4.2094-6.4276,6.317c-9.9896,0.984-19.9796,1.965-29.9697,2.9459
		c-2.2503-2.9866-4.5009-5.9732-6.7513-8.96c4.2072-2.5402,8.1491-5.9379,12.713-7.3257c3.1565-0.9599,9.7428-0.1089,10.3897,1.5852
		C126.7642,13.5791,134.8699,8.905,142.3839,7.4248z"/>
	<path fill="#E62629" d="M245.3013,80.3883c-12.8865-1.3484-25.7733-2.6971-38.6625-4.0452
		c2.7003-1.6421,5.3173-3.4481,8.121-4.9002c16.5042-8.5478,16.5189-8.5198,29.7218,4.2212
		C244.7525,77.2357,245.027,78.812,245.3013,80.3883z"/>
	<path fill="#85B32A" d="M243.4083,87.671c0,0,0.7792-0.195,0.7791-0.1953c1.2082,6.2757,2.4172,12.552,3.6258,18.8285
		c-3.1365-0.1783-6.2731-0.3571-9.4016-0.536C240.0824,99.7355,241.7455,93.7034,243.4083,87.671z"/>
	<path fill="#AAE138" d="M95.0105,5.856c-1.4213-0.8372-2.8425-1.6742-4.2642-2.512C92.1674,4.1808,93.589,5.0185,95.0105,5.856z"/>
	<path fill="#AAE138" d="M97.1603,7.9855c-0.745-0.7333-1.4899-1.4667-2.2349-2.1997C95.6704,6.5189,96.4154,7.2522,97.1603,7.9855z
		"/>
	<path fill="#AAE138" d="M90.9537,3.5213c-0.6297-0.4992-1.2592-0.9983-1.8867-1.4959C89.6973,2.5254,90.3255,3.0232,90.9537,3.5213
		z"/>
	<path fill="#FAB953" d="M26.817,93.0698c-9.8994-11.1639-12.0115-23.1209-4.3572-36.2114
		C23.9121,68.9289,25.3647,80.9992,26.817,93.0698z"/>
	<path fill="#FAB953" d="M106.9585,128.1965c-10.7645-10.0225-12.6079-24.1289-5.9988-39.1544
		C103.0266,102.5336,104.7645,113.8756,106.9585,128.1965z"/>
	<path fill="#FAB953" d="M48.4016,82.4659C38.3023,72.1486,36.635,60.7116,44.1512,48.0521
		C45.5679,59.5233,46.9849,70.9947,48.4016,82.4659z"/>
	<path fill="#FAB953" d="M64.6917,105.18c1.6079,11.7761,3.2161,23.5522,4.824,35.3283
		c-11.3705-9.9304-8.9807-22.4852-8.5683-34.6597C62.1955,105.6257,63.4437,105.403,64.6917,105.18z"/>
	<path fill="#FAB953" d="M77.3479,53.9509c1.7299,11.7638,3.4599,23.5276,5.1898,35.2915
		c-11.2401-10.2677-9.4671-22.5875-8.3998-34.796C75.2081,54.2814,76.278,54.1161,77.3479,53.9509z"/>
	<path fill="#FAB953" d="M35.9809,136.7816c-1.0473-10.9174-2.0946-21.8352-3.1418-32.7526
		c1.7212-0.1833,3.4427-0.3668,5.1639-0.5501c1.2592,10.9101,2.5186,21.8203,3.7778,32.7301
		C39.8475,136.3999,37.9143,136.5908,35.9809,136.7816z"/>
	<path fill="#FAB953" d="M94.2897,173.0489c-11.1748-9.7215-7.4428-21.6219-7.3789-33.0567
		c1.1062-0.1415,2.2126-0.283,3.3188-0.4245C91.5829,150.7282,92.9364,161.8887,94.2897,173.0489z"/>
	<path fill="#FAB953" d="M120.7621,141.7442c0.9759,10.9955,1.9519,21.991,2.928,32.9865
		c-1.6362,0.1431-3.2726,0.2861-4.9088,0.4292c-0.8906-10.9981-1.781-21.996-2.6714-32.9938
		C117.6607,142.0253,119.2114,141.8849,120.7621,141.7442z"/>
	<path fill="#FAB953" d="M11.5284,93.2369c0.6328,7.928,1.2654,15.8563,1.8982,23.7843c-1.3295,0.1527-2.6591,0.3054-3.9886,0.4582
		c-0.9657-7.8473-1.9314-15.6949-2.8971-23.5425C8.2034,93.7034,9.8661,93.4703,11.5284,93.2369z"/>
	<path fill="#FAB953" d="M142.3812,213.859c-0.8628-8.765-1.7258-17.53-2.5885-26.2949c1.2059-0.1632,2.4116-0.3261,3.6175-0.4892
		c0.4176,4.2217,0.7339,8.4564,1.2799,12.6616c0.5792,4.4598,1.3766,8.8916,2.0788,13.336
		C145.3064,213.3345,143.8437,213.5966,142.3812,213.859z"/>
	<path fill="#7A5846" d="M236.8764,166.4255c4.8866,4.724,8.2361,9.4108,0.595,14.7642c-1.2251,0.8584-2.6334,3.3912-2.1917,4.3582
		c4.7258,10.3489-3.3114,17.2647-6.6031,25.4329c-3.9601-0.4039-7.9215-0.8077-11.8826-1.2119
		c2.4782,3.3079,4.9565,6.6156,7.4347,9.9236c-1.4664,5.5205-2.9327,11.0409-4.4008,16.5598
		c-0.002-0.0016,0.1071,0.1825,0.1077,0.1843c-8.4542,1.504-16.9092,3.0059-25.3643,4.5081
		c-1.7208-2.8385-3.4416-5.6771-5.1602-8.5149c3.2844,0.6046,6.5673,1.2087,9.8969,1.8214
		c1.4184-11.7398-1.4028-13.285-13.5166-8.2575c-8.371-22.6661-16.7415-45.3323-25.1053-67.9971
		c8.2694-11.3516,10.9407-11.527,22.8616-3.3421c4.4194,3.0341,9.7704,4.7357,14.6964,7.0451
		c0.9217,1.6912,1.8432,3.3821,2.7648,5.0733c0.7559-0.1762,1.5119-0.3524,2.2676-0.5286
		c-0.9055-7.7873-1.8109-15.5746-2.7165-23.3616c2.8607-16.1868,2.8321-16.0876,18.6238-11.6456
		c2.9953,0.8425,6.3149,0.5519,9.4851,0.784c7.3349,2.0092,10.219,5.6873,5.7625,13.0736c-1.3328,2.2091-1.0567,5.3717-1.516,8.099
		c-1.9953,2.6206-3.9925,5.2398-5.9897,7.8588C230.2428,162.8437,233.5596,164.6346,236.8764,166.4255z M211.3648,208.5477
		c-3.4659-3.1234-5.8449-5.2675-8.224-7.4113c-1.4744,2.0058-4.5519,4.5475-4.0895,5.9055c0.962,2.826,3.7988,5.0252,5.865,7.4818
		C206.7072,212.8641,208.4981,211.2045,211.3648,208.5477z M227.0177,145.3333c-5.1685-2.837-8.1607-4.8357-11.4569-5.9544
		c-0.5798-0.1968-3.8711,4.3201-3.45,4.897c1.8767,2.5715,4.3712,5.1372,7.2285,6.3533
		C220.4828,151.1159,223.1357,148.1196,227.0177,145.3333z M205.1634,177.1351c-3.5291-2.9077-5.5129-5.6121-7.9492-6.1013
		c-1.2344-0.248-4.8663,3.7604-4.5966,5.385c0.3983,2.3992,2.9605,5.1385,5.3089,6.2089
		C198.965,183.101,201.7366,179.8389,205.1634,177.1351z M181.2081,162.768c-3.8151-3.1612-6.214-5.149-8.6128-7.1367
		c-1.4063,1.9483-4.2166,4.1757-3.8915,5.7797c0.4931,2.436,2.7914,5.1897,5.0702,6.2966
		C174.8464,168.2284,177.6591,165.2295,181.2081,162.768z M228.7011,182.0807c1.0506-1.6948,2.1006-3.3894,3.1509-5.0842
		c-3.3179-2.034-6.6359-4.0682-9.9536-6.1024c-1.1634,1.9199-2.327,3.84-3.4903,5.7599
		C221.8391,178.4629,225.2701,180.2718,228.7011,182.0807z M186.094,194.6465c0.8731-1.4674,1.7463-2.9352,2.6194-4.4028
		c-3.1268-2.206-6.2535-4.412-9.3801-6.618c-1.3115,2.1102-2.6226,4.2201-3.9338,6.3303
		C178.9642,191.5195,182.5289,193.083,186.094,194.6465z"/>
	<path fill="#E72127" d="M167.9886,70.2596c-0.7074,3.3946-1.415,6.789-2.1218,10.1836c-1.5905,2.7991-3.1813,5.598-4.7724,8.3971
		c-3.701-2.0679-7.268-4.4316-11.1288-6.1457c-9.6387-4.2794-19.4108-8.2635-29.1291-12.3661
		c-2.2387-2.3827-4.4774-4.7655-6.715-7.1453c2.2437-6.1951,4.4862-12.393,6.7287-18.5909
		c7.0558,0.6545,14.1116,1.309,21.1691,1.9629c7.5191,7.1124,15.0365,14.2254,22.5542,21.3381
		c1.2426,0.7605,2.4852,1.521,3.7278,2.2812L167.9886,70.2596z"/>
	<path fill="#FADC2C" d="M120.8362,70.3285c9.7186,4.1026,19.4906,8.0867,29.1291,12.3661
		c3.8609,1.7141,7.4278,4.0778,11.1332,6.1434c9.5906,10.152,19.1769,20.3066,28.7632,30.461
		c3.5662,7.8612,7.1322,15.7223,10.6983,23.5838c0.9055,7.787,1.8109,15.5743,2.7165,23.3616
		c-0.7559,0.1762-1.5119,0.3524-2.2676,0.5286c-0.9217-1.6912-1.8433-3.3821-2.7634-5.0699
		c-7.6339-12.1988-15.2693-24.4009-22.9051-36.6031c-10.197-11.0663-20.3939-22.1322-30.5912-33.1982
		c-7.2599-5.9204-14.5197-11.8406-21.7796-17.7607C122.2587,72.8702,121.5475,71.5993,120.8362,70.3285z"/>
	<path fill="#7CB41E" d="M175.3406,125.1c7.6357,12.2021,15.2711,24.4043,22.9051,36.6031
		c-4.9278-2.3128-10.2788-4.0144-14.6981-7.0485c-11.921-8.1849-14.5922-8.0095-22.8616,3.3421
		c-3.7798-10.0379-7.5521-20.0746-11.3267-30.1125C158.0184,126.9554,166.6795,126.0278,175.3406,125.1z"/>
	<path fill="#A9E239" d="M175.3406,125.1c-8.6611,0.9278-17.3222,1.8554-25.9817,2.7842
		c-5.8089-12.0374-11.6195-24.0756-17.4327-36.1167c4.2726,0.0428,8.548,0.0885,12.8233,0.1342
		C154.9467,102.9678,165.1437,114.0338,175.3406,125.1z"/>
	<path fill="#ACDC38" d="M120.8498,44.5922c-2.2426,6.1979-4.4852,12.3959-6.7287,18.5909
		c-12.1269-9.6393-24.2529-19.2759-36.3787-28.9129c2.5352-0.2102,5.0705-0.4195,7.6057-0.6289
		C97.1821,37.2916,109.016,40.942,120.8498,44.5922z"/>
	<path fill="#E72928" d="M85.3481,33.6414c-2.5352,0.2094-5.0707,0.4188-7.6057,0.6289c-4.8268-1.5868-9.6536-3.174-14.4754-4.7582
		c-0.1131-4.2841-0.2311-8.5715-0.3477-12.86C70.3964,22.3143,77.8723,27.9778,85.3481,33.6414z"/>
	<path fill="#D6912A" d="M194.5715,240.9447c8.4551-1.5022,16.9101-3.0041,25.3643-4.5081
		C210.9666,248.9124,204.0558,250.1412,194.5715,240.9447z"/>
	<path fill="#E72928" d="M144.7496,91.9018c-4.2752-0.0457-8.5507-0.0914-12.8233-0.1342
		c-2.9838-5.8737-5.9701-11.75-8.9566-17.6263C130.2299,80.0612,137.4897,85.9814,144.7496,91.9018z"/>
	<path fill="#AE7954" d="M185.7912,225.9938c12.114-5.0276,14.935-3.4823,13.5166,8.2575
		c-3.3299-0.6127-6.6123-1.2168-9.8969-1.8214C188.2031,230.2839,186.997,228.139,185.7912,225.9938z"/>
	<path fill="#A6E137" d="M164.5731,67.8933c-7.5174-7.1127-15.035-14.2257-22.5541-21.3381
		c10.045-1.4421,20.0916-2.8848,30.1341-4.3261c0.8613,2.0201,1.7264,4.0389,2.5898,6.0564
		c9.0136,5.6487,18.1129,11.2623,10.7014,24.0855c-5.8189-0.7012-11.6365-1.4053-17.4547-2.1104
		c-0.0009-0.001,0.3114-0.0862,0.3107-0.0864C167.0571,69.4137,165.815,68.6535,164.5731,67.8933z"/>
	<path fill="#F4D72B" d="M207.7338,48.2484c0.956-3.0028,1.912-6.0058,2.8602-9.0101c4.0154,5.1498,8.0385,10.3006,12.062,15.4516
		c-0.3427,0.2916-0.6897,0.578-1.0412,0.8592C216.9875,53.1155,212.3605,50.6821,207.7338,48.2484z"/>
	<path fill="#F4D72B" d="M222.6559,54.6899c0.2294,1.0623,0.4588,2.1248,0.6882,3.1871c-0.5708-0.7803-1.1418-1.5606-1.721-2.3344
		C221.966,55.2679,222.3132,54.9815,222.6559,54.6899z"/>
	<path fill="#F8DE2C" d="M105.9867,16.6876c9.99-0.9808,19.9799-1.9619,29.9697-2.9459c12.7545,1.7935,25.5096,3.5896,38.262,5.3915
		c-4.0249,4.1742-8.0476,8.3428-12.0705,12.5123c-14.7776-2.9404-29.616-5.6197-44.293-8.9884
		C113.6587,21.6938,109.9298,18.7328,105.9867,16.6876z"/>
	<path fill="#7CB31E" d="M200.5601,142.8827c-3.5662-7.8614-7.1322-15.7226-10.6978-23.5859
		c6.2052-3.2134,4.7288-7.7941,2.4494-12.6869c-2.9848-6.407-5.7718-12.9047-8.6436-19.3634
		c4.4853,0.748,8.9706,1.4959,13.4538,2.2433c4.6994,15.4521,6.0333,16.4972,21.0479,16.8206
		c4.296,0.0927,8.5887,0.3339,12.8827,0.507c-0.7933,8.4008-1.5864,16.8013-2.3814,25.2026
		c-3.1718-0.231-6.4915,0.0595-9.4868-0.7829C203.3925,126.7951,203.4207,126.6959,200.5601,142.8827z"/>
	<path fill="#E52327" d="M231.052,106.8174c-4.294-0.1731-8.5867-0.4143-12.8827-0.507
		c-15.0145-0.3235-16.3482-1.3685-21.0479-16.8206c15.4304-0.6065,30.8587-1.2137,46.2869-1.8196
		c-1.6631,6.0332-3.3262,12.0653-4.9971,18.098C235.9535,106.118,233.5026,106.4679,231.052,106.8174z"/>
	<path fill="#AE7954" d="M224.2286,219.6925c-2.4782-3.308-4.9565-6.6156-7.4347-9.9236c3.9612,0.4041,7.9225,0.808,11.8826,1.2119
		C227.1934,213.8844,225.7109,216.7884,224.2286,219.6925z"/>
	<path fill="#AE7954" d="M236.8764,166.4255c-3.3168-1.7909-6.6337-3.5818-9.9506-5.373c1.9972-2.619,3.9945-5.2383,5.9897-7.8588
		C234.2347,157.6031,235.5556,162.0143,236.8764,166.4255z"/>
	<path fill="#A8E438" d="M183.668,87.2465c2.872,6.4587,5.659,12.9564,8.6436,19.3634c2.2794,4.8929,3.7558,9.4735-2.4493,12.6869
		c-9.5867-10.1523-19.173-20.3069-28.7638-30.4589c1.5866-2.7968,3.1776-5.5957,4.7681-8.3948
		C171.8,82.7108,177.7341,84.9786,183.668,87.2465z"/>
	<path fill="#AE7954" d="M211.3648,208.5477c-2.8669,2.6569-4.6577,4.3164-6.4486,5.976c-2.0663-2.4566-4.9029-4.6558-5.865-7.4818
		c-0.4622-1.3581,2.6151-3.8998,4.0894-5.9055C205.5201,203.2802,207.8991,205.4243,211.3648,208.5477z"/>
	<path fill="#AE7954" d="M227.0177,145.3333c-3.8823,2.7863-6.5349,5.7826-7.6784,5.2959c-2.8571-1.216-5.3518-3.7818-7.2285-6.3533
		c-0.4211-0.577,2.8702-5.0939,3.45-4.897C218.8569,140.4976,221.8492,142.4963,227.0177,145.3333z"/>
	<path fill="#AE7954" d="M205.1634,177.1351c-3.4267,2.7038-6.1986,5.9659-7.2369,5.4925
		c-2.3481-1.0704-4.9106-3.8097-5.3089-6.2089c-0.2697-1.6246,3.3621-5.633,4.5966-5.385
		C199.6508,171.523,201.6341,174.2274,205.1634,177.1351z"/>
	<path fill="#AE7954" d="M181.2081,162.768c-3.5488,2.4616-6.3615,5.4604-7.4341,4.9396c-2.2791-1.1069-4.5771-3.8606-5.0702-6.2966
		c-0.3248-1.604,2.4853-3.8314,3.8915-5.7797C174.994,157.619,177.3928,159.6067,181.2081,162.768z"/>
	<path fill="#AE7954" d="M228.7011,182.0807c-3.431-1.8089-6.862-3.6178-10.2931-5.4267c1.1634-1.9199,2.327-3.84,3.4903-5.7599
		c3.3179,2.0342,6.6359,4.0684,9.9536,6.1024C230.8017,178.6913,229.7514,180.3859,228.7011,182.0807z"/>
	<path fill="#AE7954" d="M186.094,194.6465c-3.5648-1.5635-7.1298-3.127-10.6947-4.6905c1.3115-2.1102,2.6226-4.2201,3.9338-6.3303
		c3.1268,2.206,6.2535,4.412,9.3801,6.618C187.8403,191.7114,186.9671,193.1791,186.094,194.6465z"/>
	<path fill="#FCDB2E" d="M164.5731,67.8933c1.2422,0.7602,2.4841,1.5204,3.7271,2.2809
		C167.0582,69.4142,165.8157,68.6537,164.5731,67.8933z"/>
</g>
</svg>
