<?xml version="1.0" encoding="utf-8"?>
<!-- Generator: Adobe Illustrator 19.2.1, SVG Export Plug-In . SVG Version: 6.00 Build 0)  -->
<!DOCTYPE svg PUBLIC "-//W3C//DTD SVG 1.1//EN" "http://www.w3.org/Graphics/SVG/1.1/DTD/svg11.dtd">
<svg version="1.1" id="Layer_1" xmlns="http://www.w3.org/2000/svg" xmlns:xlink="http://www.w3.org/1999/xlink" x="0px" y="0px"
	 width="20px" height="20px" viewBox="0 0 20 20" style="enable-background:new 0 0 20 20;" xml:space="preserve">
<style type="text/css">
	.st0{fill:none;}
	.st1{opacity:0.3;fill:#FFFFFF;enable-background:new    ;}
	.st2{fill:#FFFFFF;}
</style>
<rect x="1" y="1" class="st0" width="45" height="45"/>
<g id="layer1" transform="translate(0,-1028.3622)">
	<g id="bicycle-24" transform="translate(-84,-358)">
		<path id="path7060" class="st1" d="M95.6,1390.2c-0.4,0-0.5,0.8-0.1,1l1.7,0.7v1.5h-5.4v-0.8h1.1c0.3,0,0.5-0.2,0.5-0.5
			c0-0.3-0.2-0.5-0.5-0.5h-3c0,0-0.1,0-0.1,0c-0.3,0-0.4,0.3-0.4,0.6c0,0.3,0.3,0.4,0.6,0.4h1.2v0.8l-0.8,2.4
			c-0.2,0-0.5-0.1-0.7-0.1c-1.7,0-3.1,1.4-3.1,3.1s1.4,3.1,3.1,3.1c1.7,0,3.1-1.4,3.1-3.1c0-0.2,0-0.5-0.1-0.7h0.9
			c0.2,0,0.3-0.1,0.4-0.2l2.6-3.8h0.1h0.8l0.5,1.6c-1.6,0.1-2.9,1.4-2.9,3.1c0,1.7,1.4,3.1,3.1,3.1s3.1-1.4,3.1-3.1
			c0-1.4-1-2.6-2.3-2.9l-0.9-2.5v-1.8c0-0.1,0-0.2-0.1-0.3c0,0,0,0,0,0c0,0,0,0,0-0.1c0,0,0-0.1-0.1-0.1c0,0,0,0,0,0c0,0,0,0,0,0
			c0,0,0,0-0.1,0l0,0l-0.3-0.1l-1.4-0.6c0,0-0.1,0-0.2,0C95.6,1390.2,95.6,1390.2,95.6,1390.2L95.6,1390.2z M91.8,1394.1h3.4l-2.1,3
			h-1c-0.3-0.4-0.6-0.7-0.9-1L91.8,1394.1z M89.4,1396.8c1.1,0,1.9,0.9,1.9,1.9s-0.9,1.9-1.9,1.9s-1.9-0.9-1.9-1.9
			C87.5,1397.7,88.4,1396.8,89.4,1396.8z M98,1396.8c1.1,0,1.9,0.9,1.9,1.9s-0.9,1.9-1.9,1.9c-1.1,0-1.9-0.9-1.9-1.9
			c0-0.1,0-0.3,0-0.4C96.3,1397.5,97,1396.8,98,1396.8z"/>
		<path id="path5421" class="st2" d="M95.6,1390.2c-0.4,0-0.5,0.8-0.1,1l1.7,0.7v1.5h-5.4v-0.8h1.1c0.3,0,0.5-0.2,0.5-0.5
			c0-0.3-0.2-0.5-0.5-0.5h-3c0,0-0.1,0-0.1,0c-0.3,0-0.4,0.3-0.4,0.6c0,0.3,0.3,0.4,0.6,0.4h1.2v0.8l-0.8,2.4
			c-0.2,0-0.5-0.1-0.7-0.1c-1.7,0-3.1,1.4-3.1,3.1s1.4,3.1,3.1,3.1c1.7,0,3.1-1.4,3.1-3.1c0-0.2,0-0.5-0.1-0.7h0.9
			c0.2,0,0.3-0.1,0.4-0.2l2.6-3.8h0.1h0.8l0.5,1.6c-1.6,0.1-2.9,1.4-2.9,3.1c0,1.7,1.4,3.1,3.1,3.1s3.1-1.4,3.1-3.1
			c0-1.4-1-2.6-2.3-2.9l-0.9-2.5v-1.8c0-0.1,0-0.2-0.1-0.3c0,0,0,0,0,0c0,0,0,0,0-0.1c0,0,0-0.1-0.1-0.1c0,0,0,0,0,0c0,0,0,0,0,0
			c0,0,0,0-0.1,0l0,0l-0.3-0.1l-1.4-0.6c0,0-0.1,0-0.2,0C95.6,1390.2,95.6,1390.2,95.6,1390.2L95.6,1390.2z M91.8,1394.1h3.4l-2.1,3
			h-1c-0.3-0.4-0.6-0.7-0.9-1L91.8,1394.1z M89.4,1396.8c1.1,0,1.9,0.9,1.9,1.9s-0.9,1.9-1.9,1.9s-1.9-0.9-1.9-1.9
			C87.5,1397.7,88.4,1396.8,89.4,1396.8z M98,1396.8c1.1,0,1.9,0.9,1.9,1.9s-0.9,1.9-1.9,1.9c-1.1,0-1.9-0.9-1.9-1.9
			c0-0.1,0-0.3,0-0.4C96.3,1397.5,97,1396.8,98,1396.8z"/>
	</g>
</g>
</svg>
