<?xml version="1.0" encoding="utf-8"?>
<!-- Generator: Adobe Illustrator 15.0.0, SVG Export Plug-In . SVG Version: 6.00 Build 0)  -->
<!DOCTYPE svg PUBLIC "-//W3C//DTD SVG 1.1//EN" "http://www.w3.org/Graphics/SVG/1.1/DTD/svg11.dtd">
<svg version="1.1" id="Layer_1" xmlns="http://www.w3.org/2000/svg" xmlns:xlink="http://www.w3.org/1999/xlink" x="0px" y="0px"
	 width="60px" height="60px" viewBox="0 0 60 60" enable-background="new 0 0 60 60" xml:space="preserve">
<g>
	<path fill="#ffffff" d="M29.128,20.498c-2.854,2.857-2.854,7.492,0,10.35c2.854,2.858,7.479,2.858,10.334,0
		c2.853-2.857,2.853-7.49,0-10.35C36.607,17.641,31.982,17.641,29.128,20.498z M37.965,26.439c0,0.361-0.297,0.656-0.656,0.656
		h-5.979c-0.361,0-0.656-0.295-0.656-0.656v-1.32c0-0.361,0.295-0.657,0.656-0.657h5.979c0.359,0,0.656,0.296,0.656,0.657V26.439z"
		/>
	<path fill="#ffffff" d="M30,0C13.432,0,0,13.432,0,30s13.432,30,30,30s30-13.432,30-30S46.568,0,30,0z M42.288,33.678
		c-5.379,5.369-11.554,2.7-11.554,2.7c-1.161-0.501-2.842-0.18-3.734,0.716l-7.823,7.836c-0.894,0.895-2.354,0.895-3.249,0
		l-0.859-0.861c-0.894-0.895-0.894-2.358,0-3.252l7.824-7.836c0.893-0.895,1.256-2.595,0.806-3.776c0,0-2.541-6.672,2.604-11.536
		c4.54-4.292,11.57-4.421,15.985,0C46.699,22.088,46.709,29.264,42.288,33.678z"/>
</g>
</svg>
