<?xml version="1.0" encoding="utf-8"?>
<!-- Generator: Adobe Illustrator 18.0.0, SVG Export Plug-In . SVG Version: 6.00 Build 0)  -->
<!DOCTYPE svg PUBLIC "-//W3C//DTD SVG 1.1//EN" "http://www.w3.org/Graphics/SVG/1.1/DTD/svg11.dtd">
<svg version="1.1" id="Layer_1" xmlns="http://www.w3.org/2000/svg" xmlns:xlink="http://www.w3.org/1999/xlink" x="0px" y="0px"
	 viewBox="0 0 50 50" enable-background="new 0 0 50 50" xml:space="preserve">
<g>
	<circle fill="#30A07A" cx="25" cy="25" r="25"/>
</g>
<rect fill="none" width="50" height="50"/>
<g id="layer1" transform="translate(0,-1028.3622)">
	<g id="bicycle-24" transform="translate(-84,-358)">
		<path id="path7060" opacity="0.3" fill="#FFFFFF" enable-background="new    " d="M113.7,1396.5c-1,0.1-1.1,1.9-0.2,2.2l4,1.6v3.4
			H105v-1.8h2.5c0.6,0,1.1-0.5,1.1-1.1s-0.5-1.1-1.1-1.1h-6.9c-0.1,0-0.2,0-0.3,0c-0.6,0.1-1,0.7-1,1.3c0.1,0.6,0.7,1,1.3,1h2.7v1.8
			l-1.9,5.6c-0.5-0.1-1.1-0.2-1.7-0.2c-4,0-7.2,3.2-7.2,7.2s3.2,7.2,7.2,7.2s7.2-3.2,7.2-7.2c0-0.5-0.1-1.1-0.2-1.6h2
			c0.4,0,0.7-0.2,0.9-0.5l6.1-8.7h0.2h1.8l1.2,3.6c-3.7,0.3-6.6,3.3-6.6,7.1c0,4,3.2,7.2,7.2,7.2s7.2-3.2,7.2-7.2
			c0-3.3-2.2-6-5.2-6.8l-2-5.7v-4.2c0-0.2-0.1-0.4-0.2-0.6c0,0,0,0,0-0.1s-0.1-0.1-0.1-0.2c-0.1-0.1-0.1-0.2-0.2-0.2
			c0,0-0.1,0-0.1-0.1c0,0-0.1,0-0.1-0.1c-0.1,0-0.1-0.1-0.2-0.1l-0.1-0.1l-0.8-0.3l-3.3-1.3c-0.1,0-0.3-0.1-0.4-0.1
			C113.8,1396.5,113.7,1396.5,113.7,1396.5L113.7,1396.5z M104.9,1405.5h7.9l-4.9,6.9h-2.4c-0.6-0.9-1.3-1.6-2.1-2.2L104.9,1405.5z
			 M99.5,1411.8c2.5,0,4.5,2,4.5,4.5s-2,4.5-4.5,4.5s-4.5-2-4.5-4.5C95.1,1413.8,97.1,1411.8,99.5,1411.8z M119.3,1411.8
			c2.5,0,4.5,2,4.5,4.5s-2,4.5-4.5,4.5s-4.5-2-4.5-4.5c0-0.3,0.1-0.6,0.1-0.9C115.3,1413.3,117.1,1411.8,119.3,1411.8z"/>
		<path id="path5421" fill="#FFFFFF" d="M113.7,1396.5c-1,0.1-1.1,1.9-0.2,2.2l4,1.6v3.4H105v-1.8h2.5c0.6,0,1.1-0.5,1.1-1.1
			s-0.5-1.1-1.1-1.1h-6.9c-0.1,0-0.2,0-0.3,0c-0.6,0.1-1,0.7-1,1.3c0.1,0.6,0.7,1,1.3,1h2.7v1.8l-1.9,5.6c-0.5-0.1-1.1-0.2-1.7-0.2
			c-4,0-7.2,3.2-7.2,7.2s3.2,7.2,7.2,7.2s7.2-3.2,7.2-7.2c0-0.5-0.1-1.1-0.2-1.6h2c0.4,0,0.7-0.2,0.9-0.5l6.1-8.7h0.2h1.8l1.2,3.6
			c-3.7,0.3-6.6,3.3-6.6,7.1c0,4,3.2,7.2,7.2,7.2s7.2-3.2,7.2-7.2c0-3.3-2.2-6-5.2-6.8l-2-5.7v-4.2c0-0.2-0.1-0.4-0.2-0.6
			c0,0,0,0,0-0.1s-0.1-0.1-0.1-0.2c-0.1-0.1-0.1-0.2-0.2-0.2c0,0-0.1,0-0.1-0.1c0,0-0.1,0-0.1-0.1c-0.1,0-0.1-0.1-0.2-0.1l-0.1-0.1
			l-0.8-0.3l-3.3-1.3c-0.1,0-0.3-0.1-0.4-0.1C113.8,1396.5,113.7,1396.5,113.7,1396.5L113.7,1396.5z M104.9,1405.5h7.9l-4.9,6.9
			h-2.4c-0.6-0.9-1.3-1.6-2.1-2.2L104.9,1405.5z M99.5,1411.8c2.5,0,4.5,2,4.5,4.5s-2,4.5-4.5,4.5s-4.5-2-4.5-4.5
			C95.1,1413.8,97.1,1411.8,99.5,1411.8z M119.3,1411.8c2.5,0,4.5,2,4.5,4.5s-2,4.5-4.5,4.5s-4.5-2-4.5-4.5c0-0.3,0.1-0.6,0.1-0.9
			C115.3,1413.3,117.1,1411.8,119.3,1411.8z"/>
	</g>
</g>
</svg>
